SplineFontDB: 3.0
FontName: CodepageMono
FullName: Codepage Mono
FamilyName: Codepage Mono
Weight: Regular
Copyright: Public domain.
UComments: "This font originally made by James Canete in 2017.+AAoACgAA-This font is dual-licensed to the public domain and under the following+AAoA-license: you are granted a perpetual, irrevocable license to copy, modify,+AAoA-publish, and distribute this file as you see fit."
Version: 000.002
ItalicAngle: 0
UnderlinePosition: -64
UnderlineWidth: 64
Ascent: 768
Descent: 256
InvalidEm: 0
LayerCount: 2
Layer: 0 0 "Back" 1
Layer: 1 0 "Fore" 0
PreferredKerning: 4
XUID: [1021 857 -1527602574 14321]
StyleMap: 0x0000
FSType: 0
OS2Version: 0
OS2_WeightWidthSlopeOnly: 0
OS2_UseTypoMetrics: 1
CreationTime: 1486086150
ModificationTime: 1488246431
PfmFamily: 17
TTFWeight: 400
TTFWidth: 5
LineGap: 128
VLineGap: 128
OS2TypoAscent: 0
OS2TypoAOffset: 1
OS2TypoDescent: 0
OS2TypoDOffset: 1
OS2TypoLinegap: 128
OS2WinAscent: 0
OS2WinAOffset: 1
OS2WinDescent: 0
OS2WinDOffset: 1
HheadAscent: 0
HheadAOffset: 1
HheadDescent: 0
HheadDOffset: 1
OS2Vendor: 'PfEd'
MarkAttachClasses: 1
DEI: 91125
LangName: 1033
Encoding: ISO8859-1
UnicodeInterp: none
NameList: AGL For New Fonts
DisplaySize: -24
AntiAlias: 1
FitToEm: 1
WinInfo: 0 33 13
BeginPrivate: 6
BlueValues 21 [0 0 448 448 640 640]
OtherBlues 11 [-192 -192]
StdHW 5 [128]
StdVW 5 [128]
StemSnapH 32 [64 128 192 256 320 384 448 512]
StemSnapV 32 [64 128 192 256 320 384 448 512]
EndPrivate
TeXData: 1 0 0 524288 262144 174762 458752 1048576 174762 783286 444596 497025 792723 393216 433062 380633 303038 157286 324010 404750 52429 2506097 1059062 262144
BeginChars: 388 356

StartChar: A
Encoding: 65 65 0
GlifName: A_
Width: 512
VWidth: 0
Flags: W
HStem: 0 21G<0 128 320 448> 256 64<128 320> 620 20G<204 244>
VStem: 0 128<0 256 320 416> 320 128<0 256 320 416>
DStem2: 0 416 128 416 0.707107 0.707107<90.5097 226.274> 224 640 224 512 0.707107 -0.707107<90.5097 226.274>
LayerCount: 2
Fore
SplineSet
128 416 m 1
 128 320 l 1
 320 320 l 1
 320 416 l 1
 224 512 l 1
 128 416 l 1
320 256 m 1
 128 256 l 1
 128 0 l 1
 0 0 l 1
 0 416 l 1
 224 640 l 1
 448 416 l 1
 448 0 l 1
 320 0 l 1
 320 256 l 1
EndSplineSet
Validated: 1
EndChar

StartChar: B
Encoding: 66 66 1
GlifName: B_
Width: 512
VWidth: 0
Flags: W
HStem: 0 64<192 308.609> 320 64<192 303.174> 576 64<192 311.226>
VStem: 64 128<64 320 384 576> 320 128<82.5396 297.831 395.335 567.49>
LayerCount: 2
Fore
SplineSet
192 320 m 1
 192 64 l 1
 224 64 256 64 256 64 c 2
 320 64 320 96 320 192 c 1
 320 256 320 320 256 320 c 2
 192 320 l 1
192 576 m 1
 192 384 l 1
 256 384 l 2
 320 384 320 416 320 480 c 1
 320 544 320 576 256 576 c 2
 192 576 l 1
0 0 m 1
 0 32 l 1
 64 64 l 9
 64 576 l 1
 0 608 l 1
 0 640 l 1
 320 640 l 2
 448 640 448 480 448 480 c 1
 448 480 448 352 352 352 c 1
 448 352 448 192 448 192 c 1
 448 192 448 0 320 0 c 2
 0 0 l 1
EndSplineSet
Validated: 1
EndChar

StartChar: C
Encoding: 67 67 2
GlifName: C_
Width: 512
VWidth: 0
Flags: W
HStem: 0 64<184.309 335.821> 448 21G<384 448> 576 64<184.309 335.821>
VStem: 0 128<163.388 476.612> 384 64<113.359 192 448 526.641>
LayerCount: 2
Fore
SplineSet
384 192 m 1
 448 192 l 1
 448 64 384 0 256 0 c 0
 128 0 0 64 0 320 c 0
 0 576 128 640 256 640 c 0
 384 640 448 576 448 448 c 1
 384 448 l 1
 384 512 352 576 256 576 c 0
 160 576 128 512 128 320 c 0
 128 128 160 64 256 64 c 0
 352 64 384 128 384 192 c 1
EndSplineSet
Validated: 1
EndChar

StartChar: D
Encoding: 68 68 3
GlifName: D_
Width: 512
VWidth: 0
Flags: W
HStem: 0 64<192 274.688> 576 64<192 274.688>
VStem: 64 128<64 576> 320 128<161.015 478.985>
LayerCount: 2
Fore
SplineSet
192 576 m 1
 192 64 l 1
 288 64 320 96 320 320 c 3
 320 544 288 576 192 576 c 1
192 0 m 2
 0 0 l 1
 0 32 l 1
 64 64 l 9
 64 576 l 1
 0 608 l 1
 0 640 l 1
 192 640 l 2
 352 640 448 544 448 320 c 3
 448 96 352 0 192 0 c 2
EndSplineSet
Validated: 1
EndChar

StartChar: E
Encoding: 69 69 4
GlifName: E_
Width: 512
VWidth: 0
Flags: W
HStem: 0 64<192 288> 320 64<192 224> 428 20G<268 320> 448 21G<396 448> 576 64<192 288>
VStem: 64 128<64 320 384 576>
LayerCount: 2
Fore
SplineSet
0 0 m 17xec
 0 32 l 1
 64 64 l 9
 64 576 l 17
 0 608 l 1
 0 640 l 9
 448 640 l 25
 448 448 l 17
 416 448 l 1xdc
 288 576 l 9
 192 576 l 1
 192 384 l 1
 224 384 l 1
 288 448 l 1
 320 448 l 1
 320 256 l 1
 288 256 l 1
 224 320 l 1
 192 320 l 1
 192 64 l 1
 288 64 l 17
 416 192 l 1
 448 192 l 9
 448 0 l 25
 0 0 l 17xec
EndSplineSet
Validated: 1
EndChar

StartChar: F
Encoding: 70 70 5
GlifName: F_
Width: 512
VWidth: 0
Flags: W
HStem: 0 21G<0 256> 320 64<192 224> 428 20G<268 320> 448 21G<396 448> 576 64<192 288>
VStem: 64 128<64 320 384 576>
LayerCount: 2
Fore
SplineSet
192 64 m 17xec
 256 32 l 1
 256 0 l 1
 0 0 l 1
 0 32 l 1
 64 64 l 9
 64 576 l 17
 0 608 l 1
 0 640 l 9
 448 640 l 25
 448 448 l 17
 416 448 l 1xdc
 288 576 l 9
 192 576 l 1
 192 384 l 1
 224 384 l 1
 288 448 l 1
 320 448 l 1
 320 256 l 1
 288 256 l 1
 224 320 l 1
 192 320 l 1
 192 64 l 17xec
EndSplineSet
Validated: 1
EndChar

StartChar: G
Encoding: 71 71 6
GlifName: G_
Width: 512
VWidth: 0
Flags: W
HStem: 0 64<170.288 299.681> 256 64<192 320> 448 21G<384 448> 576 64<184.309 335.821>
VStem: 0 128<145.357 476.612> 320 128<84.3705 256> 384 64<448 526.641>
LayerCount: 2
Fore
SplineSet
192 256 m 1xfc
 192 320 l 1
 288 320 352 320 448 320 c 1
 448 0 l 1
 416 0 l 1
 384 64 l 1
 384 64 288 0 224 0 c 0
 96 0 0 64 0 320 c 0
 0 576 128 640 256 640 c 0
 384 640 448 576 448 448 c 1
 384 448 l 1xfa
 384 512 352 576 256 576 c 0
 160 576 128 512 128 320 c 3
 128 192 128 64 224 64 c 3
 320 64 320 96 320 256 c 1
 192 256 l 1xfc
EndSplineSet
Validated: 1
EndChar

StartChar: H
Encoding: 72 72 7
GlifName: H_
Width: 512
VWidth: 0
Flags: W
HStem: 0 21G<0 128 320 448> 320 64<128 320> 620 20G<0 128 320 448>
VStem: 0 128<0 320 384 640> 320 128<0 320 384 640>
LayerCount: 2
Fore
SplineSet
128 0 m 25
 0 0 l 25
 0 640 l 25
 128 640 l 25
 128 384 l 25
 320 384 l 25
 320 640 l 25
 448 640 l 25
 448 0 l 25
 320 0 l 25
 320 320 l 25
 128 320 l 25
 128 0 l 25
EndSplineSet
Validated: 1
EndChar

StartChar: I
Encoding: 73 73 8
GlifName: I_
Width: 512
VWidth: 0
Flags: W
HStem: 0 21G<128 384> 620 20G<128 384>
VStem: 192 128<64 576>
LayerCount: 2
Fore
SplineSet
128 0 m 17
 128 32 l 1
 192 64 l 9
 192 576 l 17
 128 608 l 1
 128 640 l 9
 384 640 l 17
 384 608 l 1
 320 576 l 9
 320 64 l 17
 384 32 l 1
 384 0 l 9
 128 0 l 17
EndSplineSet
Validated: 1
EndChar

StartChar: J
Encoding: 74 74 9
GlifName: J_
Width: 512
VWidth: 0
Flags: W
HStem: 0 64<149.716 234.284> 620 20G<192 448>
VStem: 0 128<85.7791 256> 256 128<85.7791 576>
LayerCount: 2
Fore
SplineSet
192 0 m 3
 32 0 0 64 0 256 c 1
 128 256 l 1
 128 64 160 64 192 64 c 0
 224 64 256 64 256 256 c 2
 256 576 l 1
 192 608 l 1
 192 640 l 9
 448 640 l 17
 448 608 l 1
 384 576 l 1
 384 256 l 2
 384 64 352 0 192 0 c 3
EndSplineSet
Validated: 1
EndChar

StartChar: K
Encoding: 75 75 10
GlifName: K_
Width: 512
VWidth: 0
Flags: W
HStem: 0 21G<0 192 320 448> 620 20G<0 192 320 448>
VStem: 64 128<64 288 352 576> 320 128<0 160 480 640>
DStem2: 192 352 288 320 0.707107 0.707107<45.2548 181.019> 288 320 192 288 0.707107 -0.707107<0 135.765>
LayerCount: 2
Fore
SplineSet
192 0 m 1
 0 0 l 17
 0 32 l 1
 64 64 l 9
 64 576 l 17
 0 608 l 1
 0 640 l 9
 192 640 l 1
 192 352 l 1
 320 480 l 1
 320 640 l 1
 448 640 l 1
 448 480 l 1
 288 320 l 1
 448 160 l 1
 448 0 l 1
 320 0 l 1
 320 160 l 1
 192 288 l 1
 192 0 l 1
EndSplineSet
Validated: 1
EndChar

StartChar: L
Encoding: 76 76 11
GlifName: L_
Width: 512
VWidth: 0
Flags: W
HStem: 0 64<192 288> 620 20G<0 256>
VStem: 64 128<64 576>
LayerCount: 2
Fore
SplineSet
192 576 m 9
 192 64 l 1
 288 64 l 17
 416 192 l 1
 448 192 l 9
 448 0 l 25
 0 0 l 17
 0 32 l 1
 64 64 l 9
 64 576 l 17
 0 608 l 1
 0 640 l 9
 256 640 l 17
 256 608 l 1
 192 576 l 9
EndSplineSet
Validated: 1
EndChar

StartChar: M
Encoding: 77 77 12
GlifName: M_
Width: 512
VWidth: 0
Flags: W
HStem: 0 21G<0 128 320 448> 620 20G<0 116 332 448>
VStem: 0 128<0 416> 320 128<0 416>
LayerCount: 2
Fore
SplineSet
128 0 m 1
 0 0 l 1
 0 640 l 1
 96 640 l 1
 224 512 l 1
 352 640 l 1
 448 640 l 1
 448 0 l 1
 320 0 l 1
 320 416 l 1
 224 320 l 1
 128 416 l 1
 128 0 l 1
EndSplineSet
Validated: 1
EndChar

StartChar: N
Encoding: 78 78 13
GlifName: N_
Width: 512
VWidth: 0
Flags: W
HStem: 0 21G<0 128 320 448> 620 20G<0 116 320 448>
VStem: 0 128<0 416> 320 128<0 224 416 640>
LayerCount: 2
Fore
SplineSet
128 0 m 1
 0 0 l 25
 0 640 l 1
 96 640 l 1
 320 416 l 1
 320 640 l 1
 448 640 l 25
 448 0 l 25
 320 0 l 1
 320 224 l 1
 128 416 l 1
 128 0 l 1
EndSplineSet
Validated: 1
EndChar

StartChar: O
Encoding: 79 79 14
GlifName: O_
Width: 512
VWidth: 0
Flags: W
HStem: 0 64<153.673 294.327> 576 64<153.673 294.327>
VStem: 0 128<111.366 528.634> 320 128<111.366 528.634>
LayerCount: 2
Fore
SplineSet
128 320 m 3
 128 96 128 64 224 64 c 3
 320 64 320 96 320 320 c 3
 320 544 320 576 224 576 c 3
 128 576 128 544 128 320 c 3
0 320 m 3
 0 608 64 640 224 640 c 3
 384 640 448 608 448 320 c 3
 448 32 384 0 224 0 c 3
 64 0 0 32 0 320 c 3
EndSplineSet
Validated: 1
EndChar

StartChar: P
Encoding: 80 80 15
GlifName: P_
Width: 512
VWidth: 0
Flags: W
HStem: 0 21G<0 256> 320 64<192 295.703> 576 64<192 295.703>
VStem: 64 128<64 320 384 576> 320 128<407.306 552.694>
LayerCount: 2
Fore
SplineSet
192 576 m 25
 192 384 l 25
 256 384 l 18
 320 384 320 480 320 480 c 1
 320 480 320 576 256 576 c 10
 192 576 l 25
0 0 m 17
 0 32 l 1
 64 64 l 9
 64 576 l 17
 0 608 l 1
 0 640 l 1
 256 640 l 2
 384 640 448 576 448 480 c 1
 448 384 384 320 256 320 c 2
 192 320 l 1
 192 64 l 17
 256 32 l 1
 256 0 l 9
 0 0 l 17
EndSplineSet
Validated: 1
EndChar

StartChar: Q
Encoding: 81 81 16
GlifName: Q_
Width: 512
VWidth: 0
Flags: W
HStem: 0 64<162.106 224> 576 64<160.241 287.759>
VStem: 0 128<110.418 529.582> 320 128<123.865 529.582>
LayerCount: 2
Fore
SplineSet
0 320 m 0
 0 608 64 640 224 640 c 0
 384 640 448 608 448 320 c 0
 448 128 416 32 352 0 c 1
 384 -64 l 1
 448 -96 l 1
 448 -128 l 1
 288 -128 l 1
 224 0 l 2
 64 0 0 32 0 320 c 0
224 64 m 1
 160 192 l 1
 256 192 l 1
 288 96 l 1
 288 128 320 96 320 320 c 0
 320 576 288 576 224 576 c 0
 160 576 128 576 128 320 c 0
 128 64 160 64 224 64 c 1
EndSplineSet
Validated: 1
EndChar

StartChar: R
Encoding: 82 82 17
GlifName: R_
Width: 512
VWidth: 0
Flags: W
HStem: 0 21G<0 192 320 448> 320 64<192 224> 576 64<192 295.703>
VStem: 64 128<64 320 384 576> 320 128<0 192 405.21 552.694>
LayerCount: 2
Fore
SplineSet
192 576 m 25
 192 384 l 25
 256 384 l 18
 320 384 320 480 320 480 c 1
 320 480 320 576 256 576 c 10
 192 576 l 25
0 0 m 1
 0 32 l 1
 64 64 l 9
 64 576 l 17
 0 608 l 1
 0 640 l 1
 256 640 l 2
 384 640 448 576 448 480 c 1
 448 480 448 352 352 320 c 1
 448 192 l 1
 448 0 l 1
 320 0 l 1
 320 192 l 1
 224 320 l 1
 192 320 l 1
 192 0 l 1
 0 0 l 1
EndSplineSet
Validated: 1
EndChar

StartChar: S
Encoding: 83 83 18
GlifName: S_
Width: 512
VWidth: 0
Flags: W
HStem: 0 64<144.5 303.5> 320 64<183.232 264.768> 448 21G<320 448> 576 64<142.537 303.5>
VStem: 0 128<86.6881 192 435.382 560.5> 320 128<86.68 257.473 448 553.312>
LayerCount: 2
Fore
SplineSet
128 192 m 1
 128 96 128 64 224 64 c 3
 320 64 320 96 320 192 c 0
 320 256 256 320 224 320 c 3
 96 320 0 448 0 480 c 0
 0 576 64 640 224 640 c 0
 384 640 448 576 448 448 c 1
 320 448 l 1
 320 544 320 576 224 576 c 3
 128 576 128 544 128 480 c 0
 128 448 192 384 224 384 c 3
 352 384 448 256 448 192 c 3
 448 64 384 0 224 0 c 3
 64 0 0 64 0 192 c 1
 128 192 l 1
EndSplineSet
Validated: 1
EndChar

StartChar: T
Encoding: 84 84 19
GlifName: T_
Width: 512
VWidth: 0
Flags: W
HStem: 0 21G<128 384> 448 21G<64 116 396 448> 620 20G<64 448>
VStem: 192 128<64 544>
LayerCount: 2
Fore
SplineSet
448 640 m 1
 448 448 l 1
 416 448 l 1
 320 544 l 1
 320 64 l 1
 384 32 l 1
 384 0 l 9
 128 0 l 17
 128 32 l 1
 192 64 l 1
 192 544 l 1
 96 448 l 1
 64 448 l 9
 64 640 l 1
 448 640 l 1
EndSplineSet
Validated: 1
EndChar

StartChar: U
Encoding: 85 85 20
GlifName: U_
Width: 512
VWidth: 0
Flags: W
HStem: 0 64<160.651 287.349> 620 20G<0 128 320 448>
VStem: 0 128<111.274 640> 320 128<111.274 640>
LayerCount: 2
Fore
SplineSet
128 640 m 1
 128 320 l 1
 128 128 128 64 224 64 c 3
 320 64 320 128 320 320 c 1
 320 640 l 1
 448 640 l 1
 448 320 l 1
 448 32 384 0 224 0 c 0
 64 0 0 32 0 320 c 1
 0 640 l 1
 128 640 l 1
EndSplineSet
Validated: 1
EndChar

StartChar: V
Encoding: 86 86 21
GlifName: V_
Width: 512
VWidth: 0
Flags: W
HStem: 0 21G<204 244> 620 20G<0 128 320 448>
VStem: 0 128<224 640> 320 128<224 640>
DStem2: 128 224 0 224 0.707107 -0.707107<0 135.765> 224 128 224 0 0.707107 0.707107<0 135.765>
LayerCount: 2
Fore
SplineSet
128 640 m 1
 128 224 l 1
 224 128 l 1
 320 224 l 1
 320 640 l 1
 448 640 l 1
 448 224 l 1
 224 0 l 1
 0 224 l 1
 0 640 l 1
 128 640 l 1
EndSplineSet
Validated: 1
EndChar

StartChar: W
Encoding: 87 87 22
GlifName: W_
Width: 512
VWidth: 0
Flags: W
HStem: 0 21G<76 168 280 372> 620 20G<0 128 320 448>
VStem: 0 128<192 640> 192 64<340.992 384> 320 128<192 640>
CounterMasks: 1 38
LayerCount: 2
Fore
SplineSet
192 384 m 1
 256 384 l 1
 288 192 l 1
 320 192 l 1
 320 640 l 1
 448 640 l 1
 448 96 l 1
 352 0 l 1
 288 0 l 1
 224 160 l 1
 160 0 l 1
 96 0 l 1
 0 96 l 1
 0 640 l 1
 128 640 l 1
 128 192 l 1
 160 192 l 1
 192 384 l 1
EndSplineSet
Validated: 1
EndChar

StartChar: X
Encoding: 88 88 23
GlifName: X_
Width: 512
VWidth: 0
Flags: W
HStem: 0 21G<0 107.429 340.571 448> 620 20G<0 107.429 340.571 448>
LayerCount: 2
Fore
SplineSet
0 576 m 1
 0 640 l 1
 96 640 l 1
 224 416 l 1
 352 640 l 1
 448 640 l 1
 448 576 l 1
 320 320 l 1
 448 64 l 1
 448 0 l 1
 352 0 l 1
 224 224 l 1
 96 0 l 1
 0 0 l 1
 0 64 l 1
 128 320 l 1
 0 576 l 1
EndSplineSet
Validated: 1
EndChar

StartChar: Y
Encoding: 89 89 24
GlifName: Y_
Width: 512
VWidth: 0
Flags: W
HStem: 0 21G<128 384> 620 20G<64 192 320 448>
VStem: 64 128<448 640> 192 128<64 256> 320 128<448 640>
LayerCount: 2
Fore
SplineSet
64 640 m 1xe0
 192 640 l 1
 192 448 l 1
 256 320 l 1
 320 448 l 1
 320 640 l 1
 448 640 l 1
 448 448 l 1xe8
 320 256 l 1
 320 64 l 1
 384 32 l 1
 384 0 l 1
 128 0 l 1
 128 32 l 1
 192 64 l 1
 192 256 l 1xd0
 64 448 l 1
 64 640 l 1xe0
EndSplineSet
Validated: 1
EndChar

StartChar: Z
Encoding: 90 90 25
GlifName: Z_
Width: 512
VWidth: 0
Flags: W
HStem: 0 64<128 288> 448 21G<0 52> 576 64<160 320>
VStem: 0 128<64 128> 320 128<512 576>
DStem2: 0 128 128 128 0.640184 0.768221<81.9436 499.856>
LayerCount: 2
Fore
SplineSet
0 0 m 1
 0 128 l 1
 320 512 l 1
 320 576 l 1
 160 576 l 1
 32 448 l 1
 0 448 l 9
 0 640 l 1
 448 640 l 1
 448 512 l 1
 128 128 l 1
 128 64 l 1
 288 64 l 17
 416 192 l 1
 448 192 l 9
 448 0 l 25
 0 0 l 1
EndSplineSet
Validated: 1
EndChar

StartChar: bracketleft
Encoding: 91 91 26
GlifName: bracketleft
Width: 512
VWidth: 0
Flags: W
HStem: 0 64<256 384> 576 64<256 384>
VStem: 128 128<64 576>
LayerCount: 2
Fore
SplineSet
128 0 m 25
 128 640 l 25
 384 640 l 25
 384 576 l 25
 256 576 l 25
 256 64 l 25
 384 64 l 25
 384 0 l 25
 128 0 l 25
EndSplineSet
Validated: 1
EndChar

StartChar: backslash
Encoding: 92 92 27
GlifName: backslash
Width: 512
VWidth: 0
Flags: W
HStem: 0 21G<396 448>
DStem2: 32 576 0 416 0.707107 -0.707107<90.5097 588.313>
LayerCount: 2
Fore
SplineSet
0 576 m 1
 32 576 l 1
 448 160 l 9
 448 0 l 1
 416 0 l 1
 0 416 l 9
 0 576 l 1
EndSplineSet
Validated: 1
EndChar

StartChar: bracketright
Encoding: 93 93 28
GlifName: bracketright
Width: 512
VWidth: 0
Flags: W
HStem: 0 64<128 256> 576 64<128 256>
VStem: 256 128<64 576>
LayerCount: 2
Fore
SplineSet
128 640 m 25
 384 640 l 25
 384 0 l 25
 128 0 l 25
 128 64 l 25
 256 64 l 25
 256 576 l 25
 128 576 l 25
 128 640 l 25
EndSplineSet
Validated: 1
EndChar

StartChar: asciicircum
Encoding: 94 94 29
GlifName: asciicircum
Width: 512
VWidth: 0
Flags: W
HStem: 512 256
DStem2: 0 544 96 512 0.707107 0.707107<45.2548 226.274> 224 768 224 640 0.707107 -0.707107<90.5097 271.529>
LayerCount: 2
Fore
SplineSet
224 768 m 25
 448 544 l 25
 448 512 l 25
 352 512 l 1
 224 640 l 25
 96 512 l 1
 0 512 l 25
 0 544 l 25
 224 768 l 25
EndSplineSet
Validated: 1
EndChar

StartChar: underscore
Encoding: 95 95 30
GlifName: underscore
Width: 512
VWidth: 0
Flags: W
HStem: -128 64<0 512>
LayerCount: 2
Fore
SplineSet
0 -64 m 1
 512 -64 l 1
 512 -128 l 1
 0 -128 l 1
 0 -64 l 1
EndSplineSet
Validated: 1
EndChar

StartChar: at
Encoding: 64 64 31
GlifName: at
Width: 512
VWidth: 0
Flags: W
HStem: 0 64<158.246 358.688> 32 32<340 384> 128 256<214.781 320> 512 64<157.681 289.69>
VStem: 0 128<96.8209 479.179> 320 128<384 477.562>
LayerCount: 2
Fore
SplineSet
384 64 m 1x7c
 384 32 l 1x7c
 384 32 320 0 224 0 c 0
 0 0 0 64 0 288 c 0
 0 512 0 576 224 576 c 0
 448 576 448 512 448 288 c 1
 448 192 384 128 320 128 c 0
 224 128 192 128 192 256 c 0
 192 352 192 384 320 384 c 1
 320 480 288 512 224 512 c 0
 128 512 128 448 128 288 c 0
 128 128 128 64 224 64 c 2xbc
 384 64 l 1x7c
EndSplineSet
Validated: 1
EndChar

StartChar: exclam
Encoding: 33 33 32
GlifName: exclam
Width: 512
VWidth: 0
Flags: W
HStem: 0 128<209.798 302.202> 620 20G<224 288>
VStem: 128 256<389.403 578.03> 192 128<17.7979 110.202>
LayerCount: 2
Fore
SplineSet
128 512 m 3xe0
 128 576 192 640 256 640 c 3
 320 640 384 576 384 512 c 3
 384 448 320 192 256 192 c 3
 192 192 128 448 128 512 c 3xe0
192 64 m 3xd0
 192 96 224 128 256 128 c 3
 288 128 320 96 320 64 c 3
 320 32 288 0 256 0 c 3
 224 0 192 32 192 64 c 3xd0
EndSplineSet
Validated: 1
EndChar

StartChar: quotedbl
Encoding: 34 34 33
GlifName: quotedbl
Width: 512
VWidth: 0
Flags: W
HStem: 448 256<139.641 170.863 341.137 372.359>
VStem: 64 128<542.531 682.906> 320 128<542.531 682.906>
LayerCount: 2
Fore
SplineSet
64 608 m 0
 64 672 96 704 128 704 c 0
 160 704 192 672 192 608 c 0
 192 448 l 1
 160 448 l 0
 160 448 64 544 64 608 c 0
448 608 m 0
 448 544 352 448 352 448 c 0
 320 448 l 1
 320 608 l 0
 320 672 352 704 384 704 c 0
 416 704 448 672 448 608 c 0
EndSplineSet
Validated: 1
EndChar

StartChar: numbersign
Encoding: 35 35 34
GlifName: numbersign
Width: 512
VWidth: 0
Flags: W
HStem: 0 21G<64 192 256 384> 128 64<0 64 192 256 384 448> 384 64<0 64 192 256 384 448>
VStem: 64 128<0 128 192 384 448 576> 256 128<0 128 192 384 448 576>
LayerCount: 2
Fore
SplineSet
192 384 m 25
 192 192 l 25
 256 192 l 25
 256 384 l 25
 192 384 l 25
64 0 m 25
 64 128 l 25
 0 128 l 25
 0 192 l 25
 64 192 l 25
 64 384 l 25
 0 384 l 25
 0 448 l 25
 64 448 l 25
 64 576 l 25
 192 576 l 25
 192 448 l 25
 256 448 l 25
 256 576 l 25
 384 576 l 25
 384 448 l 25
 448 448 l 25
 448 384 l 25
 384 384 l 25
 384 192 l 25
 448 192 l 25
 448 128 l 25
 384 128 l 25
 384 0 l 25
 256 0 l 25
 256 128 l 25
 192 128 l 25
 192 0 l 25
 64 0 l 25
EndSplineSet
Validated: 1
EndChar

StartChar: dollar
Encoding: 36 36 35
GlifName: dollar
Width: 512
VWidth: 0
Flags: W
HStem: 0 64<143.968 192> 320 64<155.909 285.894> 448 21G<359 448> 576 64<157.688 192 320 352>
VStem: 0 128<410.198 549.802> 0 64<147 192> 192 128<-128 0 640 768> 320 128<94.4161 289.584> 384 64<448 493>
LayerCount: 2
Fore
SplineSet
64 192 m 1xf6
 64 192 96 64 224 64 c 0
 288 64 320 96 320 192 c 1xf5
 320 288 288 320 224 320 c 0
 64 320 0 384 0 480 c 0
 0 576 64 640 192 640 c 1
 192 768 l 1
 320 768 l 1
 320 640 l 1
 416 640 448 576 448 448 c 1
 384 448 l 1xfa80
 384 448 352 576 224 576 c 3
 160 576 128 544 128 480 c 3
 128 416 160 384 224 384 c 0
 384 384 448 320 448 192 c 0xf9
 448 64 384 0 320 0 c 1
 320 -128 l 1
 192 -128 l 1
 192 0 l 1
 32 0 0 64 0 192 c 1
 64 192 l 1xf6
EndSplineSet
Validated: 1
EndChar

StartChar: percent
Encoding: 37 37 36
GlifName: percent
Width: 512
VWidth: 0
Flags: W
HStem: 0 128<337.798 430.202> 384 128<17.7979 110.202>
VStem: 0 128<401.798 494.202> 320 128<17.7979 110.202>
DStem2: 0 96 32 0 0.707107 0.707107<0 543.058>
LayerCount: 2
Fore
SplineSet
320 64 m 0
 320 96 352 128 384 128 c 0
 416 128 448 96 448 64 c 0
 448 32 416 0 384 0 c 0
 352 0 320 32 320 64 c 0
0 448 m 0
 0 480 32 512 64 512 c 0
 96 512 128 480 128 448 c 0
 128 416 96 384 64 384 c 0
 32 384 0 416 0 448 c 0
32 0 m 1
 0 0 l 1
 0 96 l 9
 416 512 l 1
 448 512 l 1
 448 416 l 9
 32 0 l 1
EndSplineSet
Validated: 1
EndChar

StartChar: ampersand
Encoding: 38 38 37
GlifName: ampersand
Width: 512
VWidth: 0
Flags: W
HStem: 0 64<145.757 229.417> 576 64<195.512 252.488>
VStem: 0 128<93.9332 290.064> 64 128<459.532 573.651> 256 128<468.036 573.651>
LayerCount: 2
Fore
SplineSet
448 384 m 1xd8
 352 160 l 1
 448 0 l 1
 320 0 l 1
 288 64 l 1
 256 32 224 0 192 0 c 0xd8
 128 0 0 32 0 192 c 0
 0 352 128 416 128 416 c 1xe8
 96 448 64 448 64 512 c 3
 64 576 96 640 224 640 c 3
 352 640 384 576 384 512 c 3
 384 480 320 416 256 384 c 1
 320 256 l 1
 320 288 352 384 352 384 c 1
 448 384 l 1xd8
224 448 m 1
 256 448 256 480 256 512 c 3
 256 544 256 576 224 576 c 3
 192 576 192 544 192 512 c 3
 192 480 224 448 224 448 c 1
192 320 m 0
 192 320 128 320 128 192 c 0xe8
 128 128 128 64 192 64 c 0
 224 64 224 64 256 160 c 1
 192 320 l 0
EndSplineSet
Validated: 1
EndChar

StartChar: quotesingle
Encoding: 39 39 38
GlifName: quotesingle
Width: 512
VWidth: 0
Flags: W
HStem: 448 256
VStem: 128 128<608 689.59>
LayerCount: 2
Fore
SplineSet
128 608 m 0
 128 640 128 704 192 704 c 0
 256 704 256 640 256 608 c 0
 256 448 64 448 64 448 c 1
 64 480 l 1
 160 544 l 1
 128 608 l 0
EndSplineSet
Validated: 1
EndChar

StartChar: parenleft
Encoding: 40 40 39
GlifName: parenleft
Width: 512
VWidth: 0
Flags: W
HStem: 0 64<306.744 384> 576 64<306.744 384>
VStem: 128 128<160.491 479.509>
LayerCount: 2
Fore
SplineSet
384 0 m 1
 320 0 128 0 128 320 c 0
 128 640 320 640 384 640 c 1
 384 576 l 1
 320 576 256 576 256 320 c 0
 256 64 320 64 384 64 c 1
 384 0 l 1
EndSplineSet
Validated: 1
EndChar

StartChar: parenright
Encoding: 41 41 40
GlifName: parenright
Width: 512
VWidth: 0
Flags: W
HStem: 0 64<128 205.256> 576 64<128 205.256>
VStem: 256 128<160.491 479.509>
LayerCount: 2
Fore
SplineSet
128 0 m 1
 128 64 l 1
 192 64 256 64 256 320 c 0
 256 576 192 576 128 576 c 1
 128 640 l 1
 192 640 384 640 384 320 c 0
 384 0 192 0 128 0 c 1
EndSplineSet
Validated: 1
EndChar

StartChar: asterisk
Encoding: 42 42 41
GlifName: asterisk
Width: 512
VWidth: 0
Flags: W
HStem: 256 64<0 160 352 512> 428 20G<64 175 337 448>
LayerCount: 2
Fore
SplineSet
0 256 m 1
 0 320 l 1
 160 320 l 1
 64 416 l 1
 64 448 l 1
 160 448 l 1
 256 320 l 1
 352 448 l 1
 448 448 l 1
 448 416 l 1
 352 320 l 1
 512 320 l 1
 512 256 l 1
 352 256 l 1
 448 160 l 1
 448 128 l 1
 352 128 l 1
 256 256 l 1
 160 128 l 1
 64 128 l 1
 64 160 l 1
 160 256 l 1
 0 256 l 1
EndSplineSet
Validated: 1
EndChar

StartChar: plus
Encoding: 43 43 42
GlifName: plus
Width: 512
VWidth: 0
Flags: W
HStem: 256 64<64 192 320 448> 428 20G<192 320>
VStem: 192 128<128 256 320 448>
LayerCount: 2
Fore
SplineSet
64 320 m 25
 192 320 l 25
 192 448 l 25
 320 448 l 25
 320 320 l 25
 448 320 l 25
 448 256 l 25
 320 256 l 25
 320 128 l 25
 192 128 l 25
 192 256 l 25
 64 256 l 25
 64 320 l 25
EndSplineSet
Validated: 1
EndChar

StartChar: comma
Encoding: 44 44 43
GlifName: comma
Width: 512
VWidth: 0
Flags: W
HStem: -64 256
VStem: 192 128<43.8125 177.59>
LayerCount: 2
Fore
SplineSet
192 96 m 0
 192 128 192 192 256 192 c 0
 320 192 320 128 320 96 c 0
 320 -64 128 -64 128 -64 c 1
 128 -32 l 1
 224 32 l 1
 224 32 192 64 192 96 c 0
EndSplineSet
Validated: 1
EndChar

StartChar: hyphen
Encoding: 45 45 44
GlifName: hyphen
Width: 512
VWidth: 0
Flags: W
HStem: 256 64<0 448>
LayerCount: 2
Fore
SplineSet
0 320 m 1
 448 320 l 1
 448 256 l 1
 0 256 l 1
 0 320 l 1
EndSplineSet
Validated: 1
EndChar

StartChar: period
Encoding: 46 46 45
GlifName: period
Width: 512
VWidth: 0
Flags: W
HStem: 0 128<209.798 302.202>
VStem: 192 128<17.7979 110.202>
LayerCount: 2
Fore
SplineSet
192 64 m 0
 192 96 224 128 256 128 c 0
 288 128 320 96 320 64 c 0
 320 32 288 0 256 0 c 0
 224 0 192 32 192 64 c 0
EndSplineSet
Validated: 1
EndChar

StartChar: slash
Encoding: 47 47 46
GlifName: slash
Width: 512
VWidth: 0
Flags: W
HStem: 0 21G<0 52>
DStem2: 0 96 32 0 0.707107 0.707107<0 543.058>
LayerCount: 2
Fore
SplineSet
32 0 m 1
 0 0 l 1
 0 96 l 1
 416 512 l 1
 448 512 l 1
 448 416 l 1
 32 0 l 1
EndSplineSet
Validated: 1
EndChar

StartChar: zero
Encoding: 48 48 47
GlifName: zero
Width: 512
VWidth: 0
Flags: W
HStem: 0 64<177.609 270.391> 256 128<195.296 252.704> 576 64<177.43 270.57>
VStem: 0 128<145.807 477.148> 192 64<257.438 382.562> 320 128<145.807 477.148>
CounterMasks: 1 fc
LayerCount: 2
Fore
SplineSet
192 320 m 0
 192 352 192 384 224 384 c 0
 256 384 256 352 256 320 c 0
 256 288 256 256 224 256 c 0
 192 256 192 288 192 320 c 0
128 320 m 0
 128 160 160 64 224 64 c 0
 288 64 320 160 320 320 c 0
 320 480 288 576 224 576 c 0
 160 576 128 480 128 320 c 0
0 320 m 0
 0 576 128 640 224 640 c 0
 320 640 448 576 448 320 c 0
 448 64 352 0 224 0 c 0
 96 0 0 64 0 320 c 0
EndSplineSet
Validated: 1
EndChar

StartChar: one
Encoding: 49 49 48
GlifName: one
Width: 512
VWidth: 0
Flags: W
HStem: 0 64<64 192 320 448> 620 20G<204 320>
VStem: 192 128<64 448>
LayerCount: 2
Fore
SplineSet
64 0 m 25
 64 64 l 25
 192 64 l 25
 192 448 l 25
 64 448 l 1
 64 480 l 1
 224 640 l 9
 320 640 l 1
 320 64 l 25
 448 64 l 25
 448 0 l 25
 64 0 l 25
EndSplineSet
Validated: 1
EndChar

StartChar: two
Encoding: 50 50 49
GlifName: two
Width: 512
VWidth: 0
Flags: W
HStem: 0 128<352 448> 0 64<128 288> 576 64<137.288 310.712>
VStem: 0 128<64 160 512 564.576> 320 128<458.853 565.901>
DStem2: 0 160 128 160 0.707107 0.707107<90.5097 473.038>
LayerCount: 2
Fore
SplineSet
288 64 m 1x78
 352 128 l 1
 448 128 l 1
 448 0 l 25xb8
 0 0 l 1
 0 160 l 1
 224 384 l 1
 256 416 320 448 320 512 c 1
 320 576 288 576 224 576 c 3
 160 576 128 576 128 512 c 1
 0 512 l 1
 0 576 64 640 224 640 c 1
 384 640 448 576 448 512 c 1
 448 448 320 352 288 320 c 1
 128 160 l 1
 128 64 l 1
 288 64 l 1x78
EndSplineSet
Validated: 1
EndChar

StartChar: three
Encoding: 51 51 50
GlifName: three
Width: 512
VWidth: 0
Flags: W
HStem: 0 64<149.47 287.759> 320 64<128 289.625> 576 64<149.47 293.284>
VStem: 0 128<86.6699 128 512 553.33> 320 128<94.4161 285.942 410.054 549.802>
LayerCount: 2
Fore
SplineSet
128 384 m 1
 128 384 160 384 224 384 c 3
 288 384 320 416 320 480 c 3
 320 544 288 576 224 576 c 3
 160 576 128 544 128 512 c 1
 0 512 l 1
 0 576 64 640 224 640 c 3
 384 640 448 576 448 480 c 3
 448 384 352 352 352 352 c 1
 352 352 448 320 448 192 c 3
 448 64 384 0 224 0 c 3
 64 0 0 64 0 128 c 1
 128 128 l 1
 128 96 160 64 224 64 c 3
 288 64 320 96 320 192 c 3
 320 288 288 320 224 320 c 3
 160 320 128 320 128 320 c 1
 128 352 128 384 128 384 c 1
EndSplineSet
Validated: 1
EndChar

StartChar: four
Encoding: 52 52 51
GlifName: four
Width: 512
VWidth: 0
Flags: W
HStem: 0 21G<192 448> 256 64<96 256 384 448> 620 20G<268 384>
VStem: 256 128<64 256 320 480>
DStem2: 0 352 96 320 0.707107 0.707107<45.2548 271.529>
LayerCount: 2
Fore
SplineSet
96 320 m 1
 256 320 l 1
 256 480 l 1
 96 320 l 1
192 0 m 17
 192 32 l 1
 256 64 l 9
 256 256 l 25
 0 256 l 1
 0 352 l 1
 288 640 l 1
 384 640 l 1
 384 320 l 25
 448 320 l 25
 448 256 l 25
 384 256 l 25
 384 64 l 17
 448 32 l 1
 448 0 l 9
 192 0 l 17
EndSplineSet
Validated: 1
EndChar

StartChar: five
Encoding: 53 53 52
GlifName: five
Width: 512
VWidth: 0
Flags: W
HStem: 0 64<149.47 287.759> 320 64<128 285.894> 576 64<128 448>
VStem: 0 128<86.6699 128 384 576> 320 128<94.4161 289.584>
LayerCount: 2
Fore
SplineSet
448 576 m 25
 128 576 l 1
 128 384 l 1
 224 384 l 1
 384 384 448 320 448 192 c 1
 448 64 384 0 224 0 c 1
 64 0 0 64 0 128 c 1
 128 128 l 1
 128 96 160 64 224 64 c 3
 288 64 320 96 320 192 c 1
 320 288 288 320 224 320 c 1
 0 320 l 1
 0 640 l 1
 448 640 l 1
 448 576 l 25
EndSplineSet
Validated: 1
EndChar

StartChar: six
Encoding: 54 54 53
GlifName: six
Width: 512
VWidth: 0
Flags: W
HStem: 0 64<158.31 287.759> 320 64<158.375 287.759> 576 64<191.04 320>
VStem: 0 128<95.2553 484.044> 320 128<94.4161 289.584>
LayerCount: 2
Fore
SplineSet
224 320 m 1
 160 320 128 288 128 192 c 3
 128 96 160 64 224 64 c 3
 288 64 320 96 320 192 c 1
 320 288 288 320 224 320 c 1
320 640 m 1
 320 576 l 1
 160 576 128 544 128 352 c 1
 128 352 160 384 224 384 c 1
 384 384 448 320 448 192 c 1
 448 64 384 0 224 0 c 0
 0 0 0 96 0 352 c 0
 0 544 96 640 320 640 c 1
EndSplineSet
Validated: 1
EndChar

StartChar: seven
Encoding: 55 55 54
GlifName: seven
Width: 512
VWidth: 0
Flags: W
HStem: 0 21G<128 256> 512 128<0 96> 576 64<160 320>
VStem: 128 128<0 224> 320 128<416 576>
DStem2: 128 224 256 224 0.707107 0.707107<90.5097 271.529>
LayerCount: 2
Fore
SplineSet
448 640 m 1xb8
 448 416 l 1
 256 224 l 1
 256 0 l 1
 128 0 l 1
 128 224 l 17
 320 416 l 1
 320 576 l 1
 160 576 l 1xb8
 96 512 l 1
 0 512 l 1
 0 640 l 25xd8
 448 640 l 1xb8
EndSplineSet
Validated: 1
EndChar

StartChar: eight
Encoding: 56 56 55
GlifName: eight
Width: 512
VWidth: 0
Flags: W
HStem: 0 64<159.768 288.232> 320 64<158.375 289.625> 576 64<154.66 293.34>
VStem: 0 128<98.5661 285.942 410.054 549.802> 320 128<98.5661 285.942 410.054 549.802>
LayerCount: 2
Fore
SplineSet
224 384 m 1
 288 384 320 416 320 480 c 1
 320 544 288 576 224 576 c 3
 160 576 128 544 128 480 c 3
 128 416 160 384 224 384 c 1
448 192 m 1
 448 64 352 0 224 0 c 1
 96 0 0 64 0 192 c 1
 0 320 96 352 96 352 c 1
 96 352 0 384 0 480 c 1
 0 576 96 640 224 640 c 1
 352 640 448 576 448 480 c 1
 448 384 352 352 352 352 c 1
 352 352 448 320 448 192 c 1
224 320 m 1
 160 320 128 288 128 192 c 3
 128 96 160 64 224 64 c 3
 288 64 320 96 320 192 c 1
 320 288 288 320 224 320 c 1
EndSplineSet
Validated: 1
EndChar

StartChar: nine
Encoding: 57 57 56
GlifName: nine
Width: 512
VWidth: 0
Flags: W
HStem: 0 64<64 236.095> 320 64<154.716 294.477> 576 64<154.716 292.115>
VStem: 0 128<410.198 549.802> 320 128<153.878 549.676>
LayerCount: 2
Fore
SplineSet
224 384 m 1
 288 384 320 416 320 480 c 3
 320 544 288 576 224 576 c 3
 160 576 128 544 128 480 c 1
 128 416 160 384 224 384 c 1
64 0 m 1
 64 64 l 1
 288 64 320 96 320 352 c 1
 320 352 288 320 224 320 c 1
 64 320 0 384 0 480 c 1
 0 576 64 640 224 640 c 0
 448 640 448 544 448 352 c 0
 448 32 352 0 64 0 c 1
EndSplineSet
Validated: 1
EndChar

StartChar: colon
Encoding: 58 58 57
GlifName: colon
Width: 512
VWidth: 0
Flags: W
HStem: 64 128<209.798 302.202> 384 128<209.798 302.202>
VStem: 192 128<81.7979 174.202 401.798 494.202>
LayerCount: 2
Fore
SplineSet
192 448 m 0
 192 480 224 512 256 512 c 0
 288 512 320 480 320 448 c 0
 320 416 288 384 256 384 c 0
 224 384 192 416 192 448 c 0
192 128 m 0
 192 160 224 192 256 192 c 0
 288 192 320 160 320 128 c 0
 320 96 288 64 256 64 c 0
 224 64 192 96 192 128 c 0
EndSplineSet
Validated: 1
EndChar

StartChar: semicolon
Encoding: 59 59 58
GlifName: semicolon
Width: 512
VWidth: 0
Flags: W
HStem: 0 21G<128 158> 384 128<209.798 302.202>
VStem: 192 128<76.8867 174.202 401.798 494.202>
LayerCount: 2
Fore
SplineSet
192 448 m 0
 192 480 224 512 256 512 c 0
 288 512 320 480 320 448 c 0
 320 416 288 384 256 384 c 0
 224 384 192 416 192 448 c 0
192 128 m 0
 192 160 224 192 256 192 c 0
 288 192 320 160 320 128 c 0
 320 0 128 0 128 0 c 1
 128 32 l 1
 224 64 l 1
 224 64 192 96 192 128 c 0
EndSplineSet
Validated: 1
EndChar

StartChar: less
Encoding: 60 60 59
GlifName: less
Width: 512
VWidth: 0
Flags: W
HStem: 0 21G<332 448>
DStem2: 192 288 64 288 0.707107 -0.707107<0 316.784> 64 288 192 288 0.707107 0.707107<90.5097 407.294>
LayerCount: 2
Fore
SplineSet
64 288 m 1
 352 576 l 1
 448 576 l 1
 448 544 l 1
 192 288 l 1
 448 32 l 1
 448 0 l 1
 352 0 l 1
 64 288 l 1
EndSplineSet
Validated: 1
EndChar

StartChar: equal
Encoding: 61 61 60
GlifName: equal
Width: 512
VWidth: 0
Flags: W
HStem: 192 64<64 448> 384 64<64 448>
LayerCount: 2
Fore
SplineSet
64 448 m 1
 448 448 l 1
 448 384 l 1
 64 384 l 1
 64 448 l 1
64 256 m 1
 448 256 l 1
 448 192 l 1
 64 192 l 1
 64 256 l 1
EndSplineSet
Validated: 1
EndChar

StartChar: greater
Encoding: 62 62 61
GlifName: greater
Width: 512
VWidth: 0
Flags: W
HStem: 0 21G<64 180>
DStem2: 160 576 64 544 0.707107 -0.707107<0 316.784> 64 32 160 0 0.707107 0.707107<45.2548 362.039>
LayerCount: 2
Fore
SplineSet
448 288 m 1
 160 0 l 1
 64 0 l 1
 64 32 l 1
 320 288 l 1
 64 544 l 1
 64 576 l 1
 160 576 l 1
 448 288 l 1
EndSplineSet
Validated: 1
EndChar

StartChar: question
Encoding: 63 63 62
GlifName: question
Width: 512
VWidth: 0
Flags: W
HStem: 0 128<209.798 302.202> 448 21G<48 80> 576 64<149.47 298.53>
VStem: 0 128<465.798 553.33> 192 128<17.7979 110.202 216.39 371> 320 128<461 554.097>
LayerCount: 2
Fore
SplineSet
0 512 m 1xf4
 0 576 64 640 224 640 c 0
 384 640 448 576 448 512 c 0xf4
 448 448 320 384 320 320 c 0
 320 224 288 192 256 192 c 1
 224 192 192 224 192 320 c 0xf8
 192 384 320 448 320 512 c 0
 320 544 288 576 224 576 c 0
 160 576 128 544 128 512 c 0
 128 480 96 448 64 448 c 1
 32 448 0 480 0 512 c 1xf4
192 64 m 0xf8
 192 96 224 128 256 128 c 0
 288 128 320 96 320 64 c 0
 320 32 288 0 256 0 c 0
 224 0 192 32 192 64 c 0xf8
EndSplineSet
Validated: 1
EndChar

StartChar: grave
Encoding: 96 96 63
GlifName: grave
Width: 512
VWidth: 0
Flags: W
HStem: 512 192
VStem: 128 256
LayerCount: 2
Fore
SplineSet
128 704 m 1
 256 704 l 25
 384 512 l 1
 288 512 l 25
 128 672 l 25
 128 704 l 1
EndSplineSet
Validated: 1
EndChar

StartChar: a
Encoding: 97 97 64
GlifName: a
Width: 512
VWidth: 0
Flags: W
HStem: 0 64<150.452 234.432> 256 64<151.767 234.863> 384 64<64 209.578>
VStem: 0 128<86.1997 233.8> 256 128<85.0938 227.883>
LayerCount: 2
Fore
SplineSet
128 160 m 0
 128 96 160 64 192 64 c 0
 224 64 256 96 256 160 c 0
 256 224 224 256 192 256 c 0
 160 256 128 224 128 160 c 0
288 64 m 1
 288 64 256 0 192 0 c 0
 96 0 0 64 0 160 c 0
 0 256 96 320 192 320 c 0
 224 320 256 320 256 320 c 1
 256 320 256 384 64 384 c 1
 64 448 64 448 64 448 c 1
 192 448 l 3
 320 448 384 384 384 160 c 0
 384 128 384 96 384 64 c 17
 448 32 l 1
 448 0 l 1
 352 0 l 1
 288 64 l 1
EndSplineSet
Validated: 1
EndChar

StartChar: b
Encoding: 98 98 65
GlifName: b
Width: 512
VWidth: 0
Flags: W
HStem: 0 64<192 295.267> 384 64<192 245.644> 620 20G<0 192>
VStem: 64 128<64 384 448 576> 320 128<95.087 298.48>
LayerCount: 2
Fore
SplineSet
192 64 m 17
 320 64 320 96 320 224 c 1
 320 288 256 384 192 384 c 9
 192 64 l 17
64 0 m 25
 64 576 l 17
 0 608 l 1
 0 640 l 9
 192 640 l 25
 192 448 l 17
 320 448 448 352 448 224 c 1
 448 64 384 0 256 0 c 9
 64 0 l 25
EndSplineSet
Validated: 1
EndChar

StartChar: c
Encoding: 99 99 66
GlifName: c
Width: 512
VWidth: 0
Flags: W
HStem: 0 64<161.096 299.027> 384 64<161.096 299.027>
VStem: 0 128<99.7228 348.277> 320 128<87.5654 128 320 360.435>
LayerCount: 2
Fore
SplineSet
320 320 m 1
 320 352 288 384 224 384 c 0
 160 384 128 352 128 224 c 0
 128 96 160 64 224 64 c 1
 288 64 320 96 320 128 c 1
 448 128 l 1
 416 32 352 0 224 0 c 0
 64 0 0 64 0 224 c 0
 0 384 64 448 224 448 c 0
 352 448 416 416 448 320 c 1
 320 320 l 1
EndSplineSet
Validated: 1
EndChar

StartChar: d
Encoding: 100 100 67
GlifName: d
Width: 512
VWidth: 0
Flags: W
HStem: 0 64<141.082 229.752> 384 64<202.356 256> 620 20G<192 384>
VStem: 0 128<95.087 298.48> 256 128<91.6855 384 448 576>
LayerCount: 2
Fore
SplineSet
192 64 m 1
 224 64 256 96 256 224 c 1
 256 384 l 1
 192 384 128 288 128 224 c 1
 128 96 128 64 192 64 c 1
384 640 m 1
 384 448 384 224 384 64 c 17
 448 32 l 1
 448 0 l 1
 352 0 l 1
 288 64 l 1
 288 64 256 0 192 0 c 1
 64 0 0 64 0 224 c 1
 0 352 128 448 256 448 c 1
 256 576 l 1
 192 608 l 1
 192 640 l 1
 384 640 l 1
EndSplineSet
Validated: 1
EndChar

StartChar: e
Encoding: 101 101 68
GlifName: e
Width: 512
VWidth: 0
Flags: W
HStem: 0 64<161.096 299.027> 256 64<128 320> 384 64<149.47 298.53>
VStem: 0 128<101.148 256 320 351.623> 320 128<87.5654 128 320 361.328>
LayerCount: 2
Fore
SplineSet
128 256 m 1
 128 224 l 0
 128 96 160 64 224 64 c 1
 288 64 320 96 320 128 c 1
 448 128 l 1
 416 32 352 0 224 0 c 0
 64 0 0 64 0 224 c 0
 0 384 64 448 224 448 c 0
 384 448 448 384 448 256 c 9
 128 256 l 1
128 320 m 1
 320 320 l 1
 320 352 288 384 224 384 c 0
 160 384 128 352 128 320 c 1
EndSplineSet
Validated: 1
EndChar

StartChar: f
Encoding: 102 102 69
GlifName: f
Width: 512
VWidth: 0
Flags: W
HStem: 0 21G<64 320> 320 64<64 128 256 320> 448 21G<384 448> 576 64<265.407 329.678>
VStem: 128 128<64 320 384 549.925> 384 64<448 516.625>
LayerCount: 2
Fore
SplineSet
64 0 m 17
 64 32 l 1
 128 64 l 9
 128 320 l 25
 64 320 l 25
 64 384 l 25
 128 384 l 17
 128 544 160 640 288 640 c 1
 448 640 448 448 448 448 c 1
 384 448 l 1
 384 512 320 576 288 576 c 1
 256 576 256 512 256 384 c 9
 320 384 l 1
 320 320 l 25
 256 320 l 1
 256 64 l 17
 320 32 l 1
 320 0 l 9
 64 0 l 17
EndSplineSet
Validated: 1
EndChar

StartChar: g
Encoding: 103 103 70
GlifName: g
Width: 512
VWidth: 0
Flags: W
HStem: -192 64<135.64 248.36> 0 64<141.082 243.634> 384 64<141.082 229.752>
VStem: 0 128<-119.325 -64 95.087 352.913> 256 128<-109.842 32 74.1355 356.314>
LayerCount: 2
Fore
SplineSet
192 384 m 1
 128 384 128 352 128 224 c 1
 128 96 128 64 192 64 c 1
 256 64 256 96 256 224 c 1
 256 352 224 384 192 384 c 1
384 32 m 1
 384 -160 320 -192 192 -192 c 1
 64 -192 0 -128 0 -64 c 1
 128 -64 l 1
 128 -96 128 -128 192 -128 c 1
 256 -128 256 -96 256 -64 c 1
 256 32 l 1
 256 32 256 0 192 0 c 1
 64 0 0 64 0 224 c 1
 0 384 64 448 192 448 c 1
 256 448 288 384 288 384 c 1
 352 448 l 1
 448 448 l 1
 448 416 l 1
 384 384 l 1
 384 224 384 224 384 32 c 1
EndSplineSet
Validated: 1
EndChar

StartChar: h
Encoding: 104 104 71
GlifName: h
Width: 512
VWidth: 0
Flags: W
HStem: 0 21G<0 192 320 448> 384 64<262.682 352> 620 20G<0 192>
VStem: 64 128<64 318.375 352 576> 320 128<0 346.631>
LayerCount: 2
Fore
SplineSet
0 0 m 1
 0 32 l 1
 64 64 l 1
 64 224 64 384 64 576 c 1
 0 608 l 1
 0 640 l 1
 192 640 l 1
 192 352 l 1
 192 352 256 448 320 448 c 1
 384 448 448 352 448 224 c 2
 448 0 l 25
 320 0 l 25
 320 224 l 2
 320 352 320 384 288 384 c 0
 256 384 192 288 192 288 c 1
 192 224 192 0 192 0 c 1
 0 0 l 1
EndSplineSet
Validated: 1
EndChar

StartChar: i
Encoding: 105 105 72
GlifName: i
Width: 512
VWidth: 0
Flags: W
HStem: 0 21G<128 384> 428 20G<128 320> 512 128<209.798 302.202>
VStem: 192 128<64 384 529.798 622.202>
LayerCount: 2
Fore
SplineSet
192 576 m 0
 192 608 224 640 256 640 c 0
 288 640 320 608 320 576 c 0
 320 544 288 512 256 512 c 0
 224 512 192 544 192 576 c 0
128 0 m 17
 128 32 l 1
 192 64 l 9
 192 384 l 17
 128 416 l 1
 128 448 l 9
 320 448 l 25
 320 64 l 17
 384 32 l 1
 384 0 l 9
 128 0 l 17
EndSplineSet
Validated: 1
EndChar

StartChar: j
Encoding: 106 106 73
GlifName: j
Width: 512
VWidth: 0
Flags: W
HStem: -192 64<216.488 295.512> -20 20G<64 192> 428 20G<256 448> 512 128<337.798 430.202>
VStem: 64 128<-101.25 0> 320 128<-101.25 384 529.798 622.202>
LayerCount: 2
Fore
SplineSet
320 576 m 0
 320 608 352 640 384 640 c 0
 416 640 448 608 448 576 c 0
 448 544 416 512 384 512 c 0
 352 512 320 544 320 576 c 0
256 -128 m 1
 288 -128 320 -96 320 0 c 1
 320 384 l 1
 256 416 l 1
 256 448 l 9
 448 448 l 1
 448 0 l 1
 448 -128 384 -192 256 -192 c 1
 128 -192 64 -128 64 0 c 1
 192 0 l 1
 192 -96 224 -128 256 -128 c 1
EndSplineSet
Validated: 1
EndChar

StartChar: k
Encoding: 107 107 74
GlifName: k
Width: 512
VWidth: 0
Flags: W
HStem: 0 21G<0 192 320 448> 428 20G<320 448> 620 20G<0 192>
VStem: 64 128<64 224 288 576> 320 128<0 96 416 448>
DStem2: 192 288 288 256 0.707107 0.707107<45.2548 181.019> 288 256 192 224 0.707107 -0.707107<0 135.765>
LayerCount: 2
Fore
SplineSet
192 288 m 1
 320 416 l 1
 320 448 l 1
 448 448 l 1
 448 416 l 1
 288 256 l 1
 448 96 l 1
 448 0 l 1
 320 0 l 1
 320 96 l 1
 192 224 l 1
 192 0 l 1
 0 0 l 1
 0 32 l 1
 64 64 l 1
 64 224 64 384 64 576 c 1
 0 608 l 1
 0 640 l 1
 192 640 l 1
 192 288 l 1
EndSplineSet
Validated: 1
EndChar

StartChar: l
Encoding: 108 108 75
GlifName: l
Width: 512
VWidth: 0
Flags: W
HStem: 0 21G<128 384> 620 20G<128 320>
VStem: 192 128<64 576>
LayerCount: 2
Fore
SplineSet
128 0 m 17
 128 32 l 1
 192 64 l 9
 192 576 l 17
 128 608 l 1
 128 640 l 9
 320 640 l 25
 320 64 l 17
 384 32 l 1
 384 0 l 9
 128 0 l 17
EndSplineSet
Validated: 1
EndChar

StartChar: m
Encoding: 109 109 76
GlifName: m
Width: 512
VWidth: 0
Flags: W
HStem: 0 21G<0 128 320 448> 352 96<128 167.775 263.398 294.653>
VStem: 0 128<0 352> 192 64<64 296.119> 224 32<320 349.756> 320 128<0 295.937>
LayerCount: 2
Fore
SplineSet
0 448 m 1xf4
 64 448 l 1
 192 448 224 384 224 320 c 1
 224 384 256 448 320 448 c 1
 384 448 448 384 448 320 c 1
 448 0 l 1
 320 0 l 1
 320 256 320 352 256 352 c 1xec
 256 64 l 1
 192 64 l 1
 192 320 192 352 128 352 c 1
 128 0 l 1
 0 0 l 25
 0 448 l 1xf4
EndSplineSet
Validated: 1
EndChar

StartChar: n
Encoding: 110 110 77
GlifName: n
Width: 512
VWidth: 0
Flags: W
HStem: 0 21G<64 192 320 448> 384 64<213.347 297.548>
VStem: 64 128<0 362.906> 320 128<0 360.694>
LayerCount: 2
Fore
SplineSet
64 384 m 17
 0 416 l 1
 0 448 l 1
 96 448 l 1
 160 384 l 1
 160 384 224 448 256 448 c 0
 352 448 448 384 448 288 c 0
 448 192 448 128 448 0 c 25
 320 0 l 25
 320 128 320 224 320 288 c 0
 320 352 288 384 256 384 c 0
 224 384 192 352 192 288 c 0
 192 224 192 128 192 0 c 25
 64 0 l 25
 64 384 l 17
EndSplineSet
Validated: 1
EndChar

StartChar: o
Encoding: 111 111 78
GlifName: o
Width: 512
VWidth: 0
Flags: W
HStem: 0 64<161.096 286.904> 384 64<161.096 286.904>
VStem: 0 128<99.7228 348.277> 320 128<99.7228 348.277>
LayerCount: 2
Fore
SplineSet
128 224 m 0
 128 96 160 64 224 64 c 0
 288 64 320 96 320 224 c 0
 320 352 288 384 224 384 c 0
 160 384 128 352 128 224 c 0
0 224 m 0
 0 384 64 448 224 448 c 0
 384 448 448 384 448 224 c 0
 448 64 384 0 224 0 c 0
 64 0 0 64 0 224 c 0
EndSplineSet
Validated: 1
EndChar

StartChar: p
Encoding: 112 112 79
GlifName: p
Width: 512
VWidth: 0
Flags: W
HStem: -192 21G<0 256> 0 64<204.366 306.918> 384 64<218.248 306.918>
VStem: 64 128<-128 32 74.1355 356.314> 320 128<95.087 352.913>
LayerCount: 2
Fore
SplineSet
256 384 m 1
 224 384 192 352 192 224 c 1
 192 96 192 64 256 64 c 1
 320 64 320 96 320 224 c 1
 320 352 320 384 256 384 c 1
192 32 m 1
 192 -128 l 1
 256 -160 l 1
 256 -192 l 9
 0 -192 l 17
 0 -160 l 1
 64 -128 l 9
 64 -128 64 224 64 384 c 1
 0 416 l 1
 0 448 l 1
 96 448 l 1
 160 384 l 1
 160 384 192 448 256 448 c 1
 384 448 448 384 448 224 c 1
 448 64 384 0 256 0 c 1
 192 0 192 32 192 32 c 1
EndSplineSet
Validated: 1
EndChar

StartChar: q
Encoding: 113 113 80
GlifName: q
Width: 512
VWidth: 0
Flags: W
HStem: -192 21G<192 448> 0 64<141.082 243.634> 384 64<141.082 229.752>
VStem: 0 128<95.087 352.913> 256 128<-128 32 74.1355 356.314>
LayerCount: 2
Fore
SplineSet
192 384 m 1
 128 384 128 352 128 224 c 1
 128 96 128 64 192 64 c 1
 256 64 256 96 256 224 c 1
 256 352 224 384 192 384 c 1
256 32 m 1
 256 32 256 0 192 0 c 1
 64 0 0 64 0 224 c 1
 0 384 64 448 192 448 c 1
 256 448 288 384 288 384 c 1
 352 448 l 1
 448 448 l 1
 448 416 l 1
 384 384 l 1
 384 224 384 -128 384 -128 c 17
 448 -160 l 1
 448 -192 l 9
 192 -192 l 17
 192 -160 l 1
 256 -128 l 1
 256 32 l 1
EndSplineSet
Validated: 1
EndChar

StartChar: r
Encoding: 114 114 81
GlifName: r
Width: 512
VWidth: 0
Flags: W
HStem: 0 21G<0 256> 384 64<234.585 286.921>
VStem: 64 128<64 311.49> 320 128<256 348.404>
LayerCount: 2
Fore
SplineSet
64 384 m 1
 0 416 l 1
 0 448 l 1
 96 448 l 1
 160 384 l 1
 160 384 224 448 256 448 c 0
 384 448 448 416 448 256 c 0
 320 256 l 1
 320 320 288 384 256 384 c 0
 224 384 192 224 192 224 c 0
 192 224 192 160 192 64 c 1
 256 32 l 1
 256 0 l 1
 0 0 l 1
 0 32 l 1
 64 64 l 1
 64 384 l 1
EndSplineSet
Validated: 1
EndChar

StartChar: s
Encoding: 115 115 82
GlifName: s
Width: 512
VWidth: 0
Flags: W
HStem: 0 64<149.893 314.193> 384 64<133.807 298.107>
VStem: 0 128<87.5 128 323.458 372.359> 320 128<75.2578 124.542 320 360.5>
LayerCount: 2
Fore
SplineSet
128 128 m 1
 128 128 128 64 224 64 c 3
 320 64 320 96 320 96 c 0
 320 128 192 192 192 192 c 0
 192 192 0 288 0 352 c 0
 0 352 0 448 224 448 c 3
 448 448 448 320 448 320 c 1
 320 320 l 1
 320 320 320 384 224 384 c 3
 128 384 128 352 128 352 c 0
 128 320 256 256 256 256 c 0
 256 256 448 160 448 96 c 3
 448 64 448 0 224 0 c 3
 0 0 0 128 0 128 c 1
 128 128 l 1
EndSplineSet
Validated: 1
EndChar

StartChar: t
Encoding: 116 116 83
GlifName: t
Width: 512
VWidth: 0
Flags: W
HStem: 0 64<259.377 316.623> 384 64<0 128 256 384> 620 20G<204 256>
VStem: 128 128<72.6746 384 448 544> 320 128<72.6746 128>
LayerCount: 2
Fore
SplineSet
0 448 m 25
 128 448 l 25
 128 544 l 25
 224 640 l 25
 256 640 l 25
 256 448 l 25
 384 448 l 25
 384 384 l 25
 256 384 l 1
 256 128 l 17
 256 96 256 64 288 64 c 1
 320 64 320 96 320 128 c 9
 448 128 l 17
 448 64 352 0 288 0 c 1
 224 0 128 64 128 128 c 9
 128 384 l 1
 0 384 l 25
 0 448 l 25
EndSplineSet
Validated: 1
EndChar

StartChar: u
Encoding: 117 117 84
GlifName: u
Width: 512
VWidth: 0
Flags: W
HStem: 0 64<155.795 230.216> 428 20G<0 128 256 384>
VStem: 0 128<96.3773 448> 256 128<91.6855 448>
LayerCount: 2
Fore
SplineSet
0 224 m 0
 0 320 0 352 0 448 c 1
 128 448 l 1
 128 320 128 288 128 224 c 0
 128 96 160 64 192 64 c 0
 224 64 256 96 256 224 c 0
 256 288 256 320 256 448 c 1
 384 448 l 1
 384 64 l 1
 448 32 l 1
 448 0 l 1
 352 0 l 1
 288 64 l 1
 288 64 288 0 192 0 c 0
 64 0 0 64 0 224 c 0
EndSplineSet
Validated: 1
EndChar

StartChar: v
Encoding: 118 118 85
GlifName: v
Width: 512
VWidth: 0
Flags: W
HStem: 0 21G<143.333 304.667> 428 20G<0 128 320 448>
VStem: 0 128<192 448> 320 128<192 448>
LayerCount: 2
Fore
SplineSet
0 448 m 1
 128 448 l 1
 128 192 l 1
 224 64 l 1
 320 192 l 1
 320 448 l 1
 448 448 l 1
 448 192 l 1
 288 0 l 1
 160 0 l 1
 0 192 l 1
 0 448 l 1
EndSplineSet
Validated: 1
EndChar

StartChar: w
Encoding: 119 119 86
GlifName: w
Width: 512
VWidth: 0
Flags: W
HStem: 0 128<128 160 288 320> 428 20G<0 128 320 448>
VStem: 0 128<128 448> 192 64<276.992 320> 320 128<128 448>
CounterMasks: 1 38
LayerCount: 2
Fore
SplineSet
0 448 m 1
 128 448 l 1
 128 128 l 1
 160 128 l 1
 192 320 l 1
 256 320 l 1
 288 128 l 1
 320 128 l 1
 320 448 l 1
 448 448 l 1
 448 96 l 1
 352 0 l 1
 288 0 l 1
 224 96 l 1
 160 0 l 1
 96 0 l 1
 0 96 l 1
 0 448 l 1
EndSplineSet
Validated: 1
EndChar

StartChar: x
Encoding: 120 120 87
GlifName: x
Width: 512
VWidth: 0
Flags: W
HStem: 0 21G<0 143 305 448> 428 20G<0 143 305 448>
DStem2: 128 448 0 448 0.581238 -0.813733<0 159.957 316.194 476.15> 0 0 128 0 0.581238 0.813733<74.3985 234.355 390.592 550.549>
LayerCount: 2
Fore
SplineSet
0 448 m 1
 128 448 l 1
 224 320 l 1
 320 448 l 1
 448 448 l 1
 288 224 l 1
 448 0 l 1
 320 0 l 1
 224 128 l 1
 128 0 l 1
 0 0 l 1
 160 224 l 1
 0 448 l 1
EndSplineSet
Validated: 1
EndChar

StartChar: y
Encoding: 121 121 88
GlifName: y
Width: 512
VWidth: 0
Flags: W
HStem: -192 64<0 229.311> 0 64<160.623 287.914> 428 20G<0 128 320 448>
VStem: 0 128<111.24 448> 320 128<-70.5 32 98.2971 448>
LayerCount: 2
Fore
SplineSet
0 224 m 0
 0 320 0 352 0 448 c 1
 128 448 l 1
 128 320 128 288 128 224 c 0
 128 96 160 64 224 64 c 0
 288 64 320 96 320 224 c 0
 320 288 320 320 320 448 c 1
 448 448 l 1
 448 32 l 2
 448 -128 352 -192 0 -192 c 0
 0 -192 0 -192 0 -128 c 1
 256 -128 320 -128 320 32 c 1
 320 32 288 0 224 0 c 1
 96 0 0 64 0 224 c 0
EndSplineSet
Validated: 1
EndChar

StartChar: z
Encoding: 122 122 89
GlifName: z
Width: 512
VWidth: 0
Flags: W
HStem: 0 128<352 448> 0 64<96 288> 320 128<0 96> 384 64<160 288>
DStem2: 0 96 96 64 0.707107 0.707107<45.2548 407.294>
LayerCount: 2
Fore
SplineSet
96 320 m 1x20
 0 320 l 1
 0 448 l 25x20
 448 448 l 17
 448 416 l 1
 96 64 l 1
 288 64 l 1x50
 352 128 l 1
 448 128 l 1
 448 0 l 25x80
 0 0 l 1
 0 96 l 1
 288 384 l 1
 160 384 l 1x50
 96 320 l 1x20
EndSplineSet
Validated: 1
EndChar

StartChar: braceleft
Encoding: 123 123 90
GlifName: braceleft
Width: 512
VWidth: 0
Flags: W
HStem: 0 64<340.935 448> 320 64<64 192> 576 64<334.546 448>
VStem: 192 128<84.8402 288 416 561.114>
LayerCount: 2
Fore
SplineSet
64 384 m 25
 192 384 l 17
 192 640 256 640 352 640 c 9
 448 640 l 25
 448 576 l 1
 320 576 320 576 320 416 c 9
 256 352 l 1
 320 288 l 17
 320 64 320 64 448 64 c 1
 448 0 l 25
 288 0 l 1
 256 0 192 0 192 320 c 9
 64 320 l 1
 64 384 l 25
EndSplineSet
Validated: 1
EndChar

StartChar: bar
Encoding: 124 124 91
GlifName: bar
Width: 512
VWidth: 0
Flags: W
HStem: 0 21G<192 320> 620 20G<192 320>
VStem: 192 128<0 640>
LayerCount: 2
Fore
SplineSet
192 640 m 1
 320 640 l 1
 320 0 l 1
 192 0 l 1
 192 640 l 1
EndSplineSet
Validated: 1
EndChar

StartChar: braceright
Encoding: 125 125 92
GlifName: braceright
Width: 512
VWidth: 0
Flags: W
HStem: 0 64<64 171.065> 320 64<320 448> 576 64<64 177.454>
VStem: 192 128<84.8402 288 416 561.114>
LayerCount: 2
Fore
SplineSet
448 384 m 25
 448 320 l 1
 320 320 l 17
 320 0 256 0 224 0 c 1
 64 0 l 25
 64 64 l 1
 192 64 192 64 192 288 c 9
 256 352 l 1
 192 416 l 17
 192 576 192 576 64 576 c 1
 64 640 l 25
 160 640 l 17
 256 640 320 640 320 384 c 9
 448 384 l 25
EndSplineSet
Validated: 1
EndChar

StartChar: asciitilde
Encoding: 126 126 93
GlifName: asciitilde
Width: 512
VWidth: 0
Flags: W
HStem: 576 64<0 64 252.496 324.229> 640 64<123.771 195.504 384 448>
LayerCount: 2
Fore
SplineSet
0 576 m 1x80
 0 640 l 1
 64 640 l 1x80
 64 640 64 704 160 704 c 1x40
 288 704 224 640 288 640 c 1x80
 352 640 288 704 448 704 c 1
 448 640 l 1
 384 640 l 1x40
 384 640 384 576 288 576 c 1x80
 160 576 224 640 160 640 c 1x40
 96 640 160 576 0 576 c 1x80
EndSplineSet
Validated: 1
EndChar

StartChar: Ccedilla
Encoding: 199 199 94
GlifName: C_cedilla
Width: 512
VWidth: 0
Flags: W
HStem: -128 64<64 171.5> 448 21G<384 448> 576 64<197.221 321.64>
VStem: 0 128<165.448 464.477> 384 64<125.97 192 448 513.25>
LayerCount: 2
Back
SplineSet
384 192 m 1
 448 192 l 1
 448 64 384 0 256 0 c 0
 128 0 0 64 0 320 c 0
 0 576 128 640 256 640 c 0
 384 640 448 576 448 448 c 1
 384 448 l 1
 384 512 352 576 256 576 c 0
 160 576 128 512 128 320 c 0
 128 128 160 64 256 64 c 0
 352 64 384 128 384 192 c 1
EndSplineSet
Fore
SplineSet
384 192 m 1
 448 192 l 1
 448 64 384 32 320 0 c 1
 320 0 320 0 320 -32 c 0
 320 -96 224 -128 64 -128 c 1
 64 -64 l 1
 128 -64 192 -64 192 0 c 1
 96 32 0 96 0 320 c 0
 0 544 128 640 256 640 c 0
 384 640 448 576 448 448 c 1
 384 448 l 1
 384 512 320 576 256 576 c 0
 192 576 128 512 128 320 c 0
 128 128 192 64 256 64 c 0
 320 64 384 128 384 192 c 1
EndSplineSet
Validated: 1
EndChar

StartChar: udieresis
Encoding: 252 252 95
GlifName: udieresis
Width: 512
VWidth: 0
Flags: W
HStem: 0 64<155.795 230.216> 428 20G<0 128 256 384> 576 64<1.4375 126.562 257.438 382.562>
VStem: 0 128<96.3773 448 579.296 636.704> 256 128<91.6855 448 579.296 636.704>
LayerCount: 2
Fore
SplineSet
0 224 m 0
 0 320 0 352 0 448 c 1
 128 448 l 1
 128 320 128 288 128 224 c 0
 128 96 160 64 192 64 c 0
 224 64 256 96 256 224 c 0
 256 288 256 320 256 448 c 1
 384 448 l 1
 384 64 l 1
 448 32 l 1
 448 0 l 1
 352 0 l 1
 288 64 l 1
 288 64 288 0 192 0 c 0
 64 0 0 64 0 224 c 0
64 576 m 0
 32 576 0 576 0 608 c 0
 0 640 32 640 64 640 c 0
 96 640 128 640 128 608 c 0
 128 576 96 576 64 576 c 0
320 576 m 0
 288 576 256 576 256 608 c 0
 256 640 288 640 320 640 c 0
 352 640 384 640 384 608 c 0
 384 576 352 576 320 576 c 0
EndSplineSet
Validated: 1
EndChar

StartChar: eacute
Encoding: 233 233 96
GlifName: eacute
Width: 512
VWidth: 0
Flags: W
HStem: 0 64<161.096 299.027> 256 64<128 320> 384 64<149.47 299.027>
VStem: 0 128<101.148 256 320 351.623>
LayerCount: 2
Fore
SplineSet
128 256 m 1
 128 224 l 0
 128 96 160 64 224 64 c 1
 288 64 320 96 320 128 c 1
 448 128 l 1
 416 32 352 0 224 0 c 0
 64 0 0 64 0 224 c 0
 0 384 64 448 224 448 c 0
 352 448 416 416 448 320 c 9
 448 256 l 25
 128 256 l 1
128 320 m 1
 320 320 l 1
 320 352 288 384 224 384 c 0
 160 384 128 352 128 320 c 1
256 704 m 25
 384 704 l 1
 384 672 l 25
 224 512 l 25
 128 512 l 1
 256 704 l 25
EndSplineSet
Validated: 1
EndChar

StartChar: acircumflex
Encoding: 226 226 97
GlifName: acircumflex
Width: 512
VWidth: 0
Flags: W
HStem: 0 64<150.452 234.432> 256 64<151.767 234.863> 384 64<64 209.578>
VStem: 0 128<86.1997 233.8> 256 128<85.0938 227.883>
LayerCount: 2
Fore
SplineSet
128 160 m 0
 128 96 160 64 192 64 c 0
 224 64 256 96 256 160 c 0
 256 224 224 256 192 256 c 0
 160 256 128 224 128 160 c 0
288 64 m 1
 288 64 256 0 192 0 c 0
 96 0 0 64 0 160 c 0
 0 256 96 320 192 320 c 0
 224 320 256 320 256 320 c 1
 256 320 256 384 64 384 c 1
 64 448 64 448 64 448 c 1
 192 448 l 3
 320 448 384 384 384 160 c 0
 384 128 384 96 384 64 c 17
 448 32 l 1
 448 0 l 1
 352 0 l 1
 288 64 l 1
192 704 m 1
 256 704 l 25
 384 512 l 1
 288 512 l 25
 224 576 l 25
 160 512 l 25
 64 512 l 1
 192 704 l 1
EndSplineSet
Validated: 1
EndChar

StartChar: adieresis
Encoding: 228 228 98
GlifName: adieresis
Width: 512
VWidth: 0
Flags: W
HStem: 0 64<150.452 234.432> 256 64<151.767 234.863> 384 64<64 209.578> 576 64<1.4375 126.562 257.438 382.562>
VStem: 0 128<86.1997 233.8 579.296 636.704> 256 128<85.0938 227.883 579.296 636.704>
LayerCount: 2
Fore
SplineSet
128 160 m 0
 128 96 160 64 192 64 c 0
 224 64 256 96 256 160 c 0
 256 224 224 256 192 256 c 0
 160 256 128 224 128 160 c 0
288 64 m 1
 288 64 256 0 192 0 c 0
 96 0 0 64 0 160 c 0
 0 256 96 320 192 320 c 0
 224 320 256 320 256 320 c 1
 256 320 256 384 64 384 c 1
 64 448 64 448 64 448 c 1
 192 448 l 3
 320 448 384 384 384 160 c 0
 384 128 384 96 384 64 c 17
 448 32 l 1
 448 0 l 1
 352 0 l 1
 288 64 l 1
64 576 m 0
 32 576 0 576 0 608 c 0
 0 640 32 640 64 640 c 0
 96 640 128 640 128 608 c 0
 128 576 96 576 64 576 c 0
320 576 m 0
 288 576 256 576 256 608 c 0
 256 640 288 640 320 640 c 0
 352 640 384 640 384 608 c 0
 384 576 352 576 320 576 c 0
EndSplineSet
Validated: 1
EndChar

StartChar: agrave
Encoding: 224 224 99
GlifName: agrave
Width: 512
VWidth: 0
Flags: W
HStem: 0 64<150.452 234.432> 256 64<151.767 234.863> 384 64<64 209.578>
VStem: 0 128<86.1997 233.8> 256 128<85.0938 227.883>
LayerCount: 2
Fore
SplineSet
128 160 m 0
 128 96 160 64 192 64 c 0
 224 64 256 96 256 160 c 0
 256 224 224 256 192 256 c 0
 160 256 128 224 128 160 c 0
288 64 m 1
 288 64 256 0 192 0 c 0
 96 0 0 64 0 160 c 0
 0 256 96 320 192 320 c 0
 224 320 256 320 256 320 c 1
 256 320 256 384 64 384 c 1
 64 448 64 448 64 448 c 1
 192 448 l 3
 320 448 384 384 384 160 c 0
 384 128 384 96 384 64 c 17
 448 32 l 1
 448 0 l 1
 352 0 l 1
 288 64 l 1
320 512 m 25
 224 512 l 25
 64 672 l 25
 64 704 l 1
 192 704 l 25
 320 512 l 25
EndSplineSet
Validated: 1
EndChar

StartChar: aring
Encoding: 229 229 100
GlifName: aring
Width: 512
VWidth: 0
Flags: W
HStem: 0 64<150.452 234.432> 256 64<151.767 234.863> 384 64<64 209.578> 512 64<192.104 255.896> 640 64<192.104 255.896>
VStem: 0 128<86.1997 233.8> 64 128<576.949 639.051> 256 128<85.0938 227.883 576.949 639.051>
LayerCount: 2
Fore
SplineSet
128 160 m 0xfd
 128 96 160 64 192 64 c 0
 224 64 256 96 256 160 c 0
 256 224 224 256 192 256 c 0xfb
 160 256 128 224 128 160 c 0xfd
288 64 m 1
 288 64 256 0 192 0 c 0xfb
 96 0 0 64 0 160 c 0xfd
 0 256 96 320 192 320 c 0
 224 320 256 320 256 320 c 1
 256 320 256 384 64 384 c 1
 64 448 64 448 64 448 c 1
 192 448 l 3
 320 448 384 384 384 160 c 0
 384 128 384 96 384 64 c 17
 448 32 l 1
 448 0 l 1
 352 0 l 1
 288 64 l 1
192 608 m 0
 192 576 192 576 224 576 c 0
 256 576 256 576 256 608 c 0
 256 640 256 640 224 640 c 0
 192 640 192 640 192 608 c 0
64 608 m 0
 64 672 160 704 224 704 c 0
 288 704 384 672 384 608 c 0
 384 544 288 512 224 512 c 0
 160 512 64 544 64 608 c 0
EndSplineSet
Validated: 1
EndChar

StartChar: ccedilla
Encoding: 231 231 101
GlifName: ccedilla
Width: 512
VWidth: 0
Flags: W
HStem: -128 64<64 195.186> 0 64<145.23 224> 384 64<142.07 310.505>
VStem: 0 128<73.294 374.706> 320 128<75.4238 128 320 372.576>
LayerCount: 2
Fore
SplineSet
320 128 m 1
 448 128 l 1
 448 64 384 0 320 0 c 1
 320 0 320 0 320 -32 c 0
 320 -64 224 -128 160 -128 c 2
 64 -128 l 1
 64 -64 l 1
 160 -64 l 1
 192 -64 224 0 224 0 c 1
 32 0 0 32 0 224 c 0
 0 416 32 448 224 448 c 0
 416 448 448 384 448 320 c 1
 320 320 l 1
 320 384 288 384 224 384 c 0
 128 384 128 384 128 224 c 0
 128 64 128 64 224 64 c 0
 288 64 320 64 320 128 c 1
EndSplineSet
Validated: 1
EndChar

StartChar: ecircumflex
Encoding: 234 234 102
GlifName: ecircumflex
Width: 512
VWidth: 0
Flags: W
HStem: 0 64<161.096 299.027> 256 64<128 320> 384 64<149.47 299.027>
VStem: 0 128<101.148 256 320 351.623>
LayerCount: 2
Fore
SplineSet
128 256 m 1
 128 224 l 0
 128 96 160 64 224 64 c 1
 288 64 320 96 320 128 c 1
 448 128 l 1
 416 32 352 0 224 0 c 0
 64 0 0 64 0 224 c 0
 0 384 64 448 224 448 c 0
 352 448 416 416 448 320 c 9
 448 256 l 25
 128 256 l 1
128 320 m 1
 320 320 l 1
 320 352 288 384 224 384 c 0
 160 384 128 352 128 320 c 1
192 704 m 1
 256 704 l 1
 384 512 l 1
 288 512 l 25
 224 576 l 25
 160 512 l 25
 64 512 l 1
 192 704 l 1
EndSplineSet
Validated: 1
EndChar

StartChar: edieresis
Encoding: 235 235 103
GlifName: edieresis
Width: 512
VWidth: 0
Flags: W
HStem: 0 64<161.096 299.027> 256 64<128 320> 384 64<149.47 299.027> 576 64<1.4375 126.562 321.438 446.562>
VStem: 0 128<101.148 256 320 351.623 579.296 636.704> 320 128<87.5654 128 320 360.435 579.296 636.704>
LayerCount: 2
Fore
SplineSet
128 256 m 1
 128 224 l 0
 128 96 160 64 224 64 c 1
 288 64 320 96 320 128 c 1
 448 128 l 1
 416 32 352 0 224 0 c 0
 64 0 0 64 0 224 c 0
 0 384 64 448 224 448 c 0
 352 448 416 416 448 320 c 9
 448 256 l 25
 128 256 l 1
128 320 m 1
 320 320 l 1
 320 352 288 384 224 384 c 0
 160 384 128 352 128 320 c 1
64 576 m 0
 32 576 0 576 0 608 c 0
 0 640 32 640 64 640 c 0
 96 640 128 640 128 608 c 0
 128 576 96 576 64 576 c 0
384 576 m 0
 352 576 320 576 320 608 c 0
 320 640 352 640 384 640 c 0
 416 640 448 640 448 608 c 0
 448 576 416 576 384 576 c 0
EndSplineSet
Validated: 1
EndChar

StartChar: egrave
Encoding: 232 232 104
GlifName: egrave
Width: 512
VWidth: 0
Flags: W
HStem: 0 64<161.096 299.027> 256 64<128 320> 384 64<149.47 299.027>
VStem: 0 128<101.148 256 320 351.623>
LayerCount: 2
Fore
SplineSet
128 256 m 1
 128 224 l 0
 128 96 160 64 224 64 c 1
 288 64 320 96 320 128 c 1
 448 128 l 1
 416 32 352 0 224 0 c 0
 64 0 0 64 0 224 c 0
 0 384 64 448 224 448 c 0
 352 448 416 416 448 320 c 9
 448 256 l 25
 128 256 l 1
128 320 m 1
 320 320 l 1
 320 352 288 384 224 384 c 0
 160 384 128 352 128 320 c 1
320 512 m 25
 224 512 l 25
 64 672 l 25
 64 704 l 1
 192 704 l 25
 320 512 l 25
EndSplineSet
Validated: 1
EndChar

StartChar: idieresis
Encoding: 239 239 105
GlifName: idieresis
Width: 512
VWidth: 0
Flags: W
HStem: 0 21G<128 384> 428 20G<128 320> 576 64<65.4375 190.562 321.438 446.562>
VStem: 64 128<579.296 636.704> 192 128<64 384> 320 128<579.296 636.704>
LayerCount: 2
Fore
SplineSet
384 576 m 0xe4
 352 576 320 576 320 608 c 0
 320 640 352 640 384 640 c 0
 416 640 448 640 448 608 c 0
 448 576 416 576 384 576 c 0xe4
128 0 m 17
 128 32 l 1
 192 64 l 9
 192 384 l 17xe8
 128 416 l 1
 128 448 l 9
 320 448 l 25xe4
 320 64 l 17xe8
 384 32 l 1
 384 0 l 9
 128 0 l 17
128 576 m 0
 96 576 64 576 64 608 c 0
 64 640 96 640 128 640 c 0
 160 640 192 640 192 608 c 0xf0
 192 576 160 576 128 576 c 0
EndSplineSet
Validated: 1
EndChar

StartChar: icircumflex
Encoding: 238 238 106
GlifName: icircumflex
Width: 512
VWidth: 0
Flags: W
HStem: 0 21G<128 384> 428 20G<128 320>
VStem: 192 128<64 384>
LayerCount: 2
Fore
SplineSet
224 704 m 1
 288 704 l 1
 448 512 l 25
 352 512 l 17
 256 608 l 1
 160 512 l 1
 64 512 l 25
 224 704 l 1
128 0 m 17
 128 32 l 1
 192 64 l 9
 192 384 l 17
 128 416 l 1
 128 448 l 9
 320 448 l 25
 320 64 l 17
 384 32 l 1
 384 0 l 9
 128 0 l 17
EndSplineSet
Validated: 1
EndChar

StartChar: igrave
Encoding: 236 236 107
GlifName: igrave
Width: 512
VWidth: 0
Flags: W
HStem: 0 21G<128 384> 428 20G<128 320>
VStem: 192 128<64 384>
LayerCount: 2
Fore
SplineSet
320 512 m 25
 224 512 l 25
 64 672 l 25
 64 704 l 1
 192 704 l 25
 320 512 l 25
128 0 m 17
 128 32 l 1
 192 64 l 9
 192 384 l 17
 128 416 l 1
 128 448 l 9
 320 448 l 25
 320 64 l 17
 384 32 l 1
 384 0 l 9
 128 0 l 17
EndSplineSet
Validated: 1
EndChar

StartChar: Adieresis
Encoding: 196 196 108
GlifName: A_dieresis
Width: 512
VWidth: 0
Flags: W
HStem: 0 21G<0 128 320 448> 192 64<128 320> 640 64<1.4375 126.562 321.438 446.562>
VStem: 0 128<0 192 256 352 643.296 700.704> 320 128<0 192 256 352 643.296 700.704>
DStem2: 0 352 128 352 0.707107 0.707107<90.5097 226.274> 224 576 224 448 0.707107 -0.707107<90.5097 226.274>
LayerCount: 2
Fore
SplineSet
320 192 m 1
 128 192 l 1
 128 0 l 1
 0 0 l 1
 0 352 l 1
 224 576 l 1
 448 352 l 1
 448 0 l 1
 320 0 l 1
 320 192 l 1
128 352 m 1
 128 256 l 1
 320 256 l 1
 320 352 l 1
 224 448 l 1
 128 352 l 1
64 640 m 0
 32 640 0 640 0 672 c 0
 0 704 32 704 64 704 c 0
 96 704 128 704 128 672 c 0
 128 640 96 640 64 640 c 0
384 640 m 0
 352 640 320 640 320 672 c 0
 320 704 352 704 384 704 c 0
 416 704 448 704 448 672 c 0
 448 640 416 640 384 640 c 0
EndSplineSet
Validated: 1
EndChar

StartChar: Aring
Encoding: 197 197 109
GlifName: A_ring
Width: 512
VWidth: 0
Flags: W
HStem: 0 21G<0 128 320 448> 192 64<128 320> 704 64<192.104 255.896>
VStem: 0 128<0 192 256 352> 64 128<640.949 703.051> 256 128<640.949 703.051> 320 128<0 192 256 352>
DStem2: 0 352 128 352 0.707107 0.707107<90.5097 226.274> 224 576 224 448 0.707107 -0.707107<90.5097 226.274>
LayerCount: 2
Fore
SplineSet
192 672 m 0xec
 192 640 192 640 224 640 c 0
 256 640 256 640 256 672 c 0
 256 704 256 704 224 704 c 0
 192 704 192 704 192 672 c 0xec
192 576 m 1
 160 576 64 608 64 672 c 0
 64 736 160 768 224 768 c 0
 288 768 384 736 384 672 c 0
 384 608 288 576 256 576 c 1
 224 608 l 1
 192 576 l 1
128 352 m 1xf2
 128 256 l 1
 320 256 l 1
 320 352 l 1
 224 448 l 1
 128 352 l 1xf2
224 576 m 1
 448 352 l 1
 448 0 l 1
 320 0 l 1
 320 192 l 1
 128 192 l 1
 128 0 l 1
 0 0 l 1
 0 352 l 1
 224 576 l 1
EndSplineSet
Validated: 1
EndChar

StartChar: Eacute
Encoding: 201 201 110
GlifName: E_acute
Width: 512
VWidth: 0
Flags: W
HStem: 0 64<192 288> 256 64<192 224> 512 64<192 288> 640 21G<192 308>
VStem: 64 128<64 256 320 512>
LayerCount: 2
Fore
SplineSet
256 768 m 1
 384 768 l 1
 384 736 l 1
 288 640 l 1
 192 640 l 1
 256 768 l 1
0 0 m 17
 0 32 l 1
 64 64 l 1
 64 512 l 17
 0 544 l 1
 0 576 l 9
 448 576 l 1
 448 384 l 1
 416 384 l 1
 288 512 l 1
 192 512 l 1
 192 320 l 1
 224 320 l 1
 288 384 l 1
 320 384 l 1
 320 192 l 1
 288 192 l 1
 224 256 l 1
 192 256 l 1
 192 64 l 1
 288 64 l 1
 416 192 l 1
 448 192 l 1
 448 0 l 1
 0 0 l 17
EndSplineSet
Validated: 1
EndChar

StartChar: ae
Encoding: 230 230 111
GlifName: ae
Width: 512
VWidth: 0
Flags: W
HStem: 0 64<131.377 188.581 346.116 420.906> 384 64<27.0938 105.312 259.648 350.352>
VStem: 0 128<66.4688 189.531> 128 128<257.438 361.219> 192 128<86.6881 190.562> 320 128<258.349 381.651>
LayerCount: 2
Fore
SplineSet
160 0 m 0xe4
 96 0 0 32 0 128 c 0xe4
 0 224 96 256 128 256 c 1xd0
 128 384 96 384 0 384 c 1
 0 448 32 448 96 448 c 1
 160 448 96 448 160 448 c 0
 192 448 192 416 224 384 c 1
 256 416 256 448 320 448 c 0
 384 448 448 384 448 320 c 0
 448 256 448 192 320 192 c 1
 320 96 320 64 448 64 c 1
 448 0 416 0 352 0 c 0
 224 0 256 32 224 64 c 1
 192 32 224 0 160 0 c 0xe4
128 128 m 0
 128 96 128 64 160 64 c 0
 192 64 192 96 192 128 c 1xe8
 192 160 192 192 160 192 c 0
 128 192 128 160 128 128 c 0
256 320 m 1xd4
 256 288 256 256 288 256 c 1
 320 256 320 288 320 320 c 1
 320 352 320 384 288 384 c 0
 256 384 256 352 256 320 c 1xd4
EndSplineSet
Validated: 1
EndChar

StartChar: ocircumflex
Encoding: 244 244 112
GlifName: ocircumflex
Width: 512
VWidth: 0
Flags: W
HStem: 0 64<161.096 286.904> 384 64<161.096 286.904>
VStem: 0 128<99.7228 348.277> 320 128<99.7228 348.277>
LayerCount: 2
Fore
SplineSet
128 224 m 0
 128 96 160 64 224 64 c 0
 288 64 320 96 320 224 c 0
 320 352 288 384 224 384 c 0
 160 384 128 352 128 224 c 0
0 224 m 0
 0 384 64 448 224 448 c 0
 384 448 448 384 448 224 c 0
 448 64 384 0 224 0 c 0
 64 0 0 64 0 224 c 0
192 704 m 1
 256 704 l 1
 384 512 l 1
 288 512 l 25
 224 576 l 25
 160 512 l 25
 64 512 l 1
 192 704 l 1
EndSplineSet
Validated: 1
EndChar

StartChar: odieresis
Encoding: 246 246 113
GlifName: odieresis
Width: 512
VWidth: 0
Flags: W
HStem: 0 64<161.096 286.904> 384 64<161.096 286.904> 576 64<1.4375 126.562 321.438 446.562>
VStem: 0 128<99.7228 348.277 579.296 636.704> 320 128<99.7228 348.277 579.296 636.704>
LayerCount: 2
Fore
SplineSet
128 224 m 0
 128 96 160 64 224 64 c 0
 288 64 320 96 320 224 c 0
 320 352 288 384 224 384 c 0
 160 384 128 352 128 224 c 0
0 224 m 0
 0 384 64 448 224 448 c 0
 384 448 448 384 448 224 c 0
 448 64 384 0 224 0 c 0
 64 0 0 64 0 224 c 0
64 576 m 0
 32 576 0 576 0 608 c 0
 0 640 32 640 64 640 c 0
 96 640 128 640 128 608 c 0
 128 576 96 576 64 576 c 0
384 576 m 0
 352 576 320 576 320 608 c 0
 320 640 352 640 384 640 c 0
 416 640 448 640 448 608 c 0
 448 576 416 576 384 576 c 0
EndSplineSet
Validated: 1
EndChar

StartChar: ograve
Encoding: 242 242 114
GlifName: ograve
Width: 512
VWidth: 0
Flags: W
HStem: 0 64<161.096 286.904> 384 64<161.096 286.904>
VStem: 0 128<99.7228 348.277> 320 128<99.7228 348.277>
LayerCount: 2
Fore
SplineSet
320 512 m 25
 224 512 l 25
 64 672 l 25
 64 704 l 1
 192 704 l 25
 320 512 l 25
128 224 m 0
 128 96 160 64 224 64 c 0
 288 64 320 96 320 224 c 0
 320 352 288 384 224 384 c 0
 160 384 128 352 128 224 c 0
0 224 m 0
 0 384 64 448 224 448 c 0
 384 448 448 384 448 224 c 0
 448 64 384 0 224 0 c 0
 64 0 0 64 0 224 c 0
EndSplineSet
Validated: 1
EndChar

StartChar: ucircumflex
Encoding: 251 251 115
GlifName: ucircumflex
Width: 512
VWidth: 0
Flags: W
HStem: 0 64<155.795 230.216> 428 20G<0 128 256 384>
VStem: 0 128<96.3773 448> 256 128<91.6855 448>
LayerCount: 2
Fore
SplineSet
0 224 m 0
 0 320 0 352 0 448 c 1
 128 448 l 1
 128 320 128 288 128 224 c 0
 128 96 160 64 192 64 c 0
 224 64 256 96 256 224 c 0
 256 288 256 320 256 448 c 1
 384 448 l 1
 384 64 l 1
 448 32 l 1
 448 0 l 1
 352 0 l 1
 288 64 l 1
 288 64 288 0 192 0 c 0
 64 0 0 64 0 224 c 0
128 704 m 1
 256 704 l 1
 384 512 l 1
 288 512 l 25
 192 608 l 1
 96 512 l 1
 0 512 l 1
 128 704 l 1
EndSplineSet
Validated: 1
EndChar

StartChar: ugrave
Encoding: 249 249 116
GlifName: ugrave
Width: 512
VWidth: 0
Flags: W
HStem: 0 64<155.795 230.216> 428 20G<0 128 256 384>
VStem: 0 128<96.3773 448> 256 128<91.6855 448>
LayerCount: 2
Fore
SplineSet
0 224 m 0
 0 320 0 352 0 448 c 1
 128 448 l 1
 128 320 128 288 128 224 c 0
 128 96 160 64 192 64 c 0
 224 64 256 96 256 224 c 0
 256 288 256 320 256 448 c 1
 384 448 l 1
 384 64 l 1
 448 32 l 1
 448 0 l 1
 352 0 l 1
 288 64 l 1
 288 64 288 0 192 0 c 0
 64 0 0 64 0 224 c 0
320 512 m 25
 224 512 l 25
 64 672 l 25
 64 704 l 1
 192 704 l 25
 320 512 l 25
EndSplineSet
Validated: 1
EndChar

StartChar: ydieresis
Encoding: 255 255 117
GlifName: ydieresis
Width: 512
VWidth: 0
Flags: W
HStem: -192 64<64 263.573> 0 64<160.623 287.914> 428 20G<0 128 320 448> 576 64<1.4375 126.562 321.438 446.562>
VStem: 0 128<111.24 448 579.296 636.704> 320 128<-75.7794 32 98.2971 448 579.296 636.704>
LayerCount: 2
Fore
SplineSet
0 224 m 0
 0 320 0 352 0 448 c 1
 128 448 l 1
 128 320 128 288 128 224 c 0
 128 96 160 64 224 64 c 0
 288 64 320 96 320 224 c 0
 320 288 320 320 320 448 c 1
 448 448 l 1
 448 32 l 2
 448 -128 352 -192 64 -192 c 0
 64 -128 l 0
 256 -128 320 -128 320 32 c 1
 320 32 288 0 224 0 c 1
 96 0 0 64 0 224 c 0
64 576 m 0
 32 576 0 576 0 608 c 0
 0 640 32 640 64 640 c 0
 96 640 128 640 128 608 c 0
 128 576 96 576 64 576 c 0
384 576 m 0
 352 576 320 576 320 608 c 0
 320 640 352 640 384 640 c 0
 416 640 448 640 448 608 c 0
 448 576 416 576 384 576 c 0
EndSplineSet
Validated: 1
EndChar

StartChar: Odieresis
Encoding: 214 214 118
GlifName: O_dieresis
Width: 512
VWidth: 0
Flags: W
HStem: 0 64<158.183 289.817> 512 64<158.183 289.817> 640 64<1.4375 126.562 321.438 446.562>
VStem: 0 128<106.672 469.328 643.296 700.704> 320 128<106.672 469.328 643.296 700.704>
LayerCount: 2
Fore
SplineSet
0 288 m 0
 0 480 32 576 224 576 c 0
 416 576 448 480 448 288 c 0
 448 96 416 0 224 0 c 0
 32 0 0 96 0 288 c 0
128 288 m 0
 128 128 128 64 224 64 c 0
 320 64 320 128 320 288 c 0
 320 448 320 512 224 512 c 0
 128 512 128 448 128 288 c 0
64 640 m 0
 32 640 0 640 0 672 c 0
 0 704 32 704 64 704 c 0
 96 704 128 704 128 672 c 0
 128 640 96 640 64 640 c 0
384 640 m 0
 352 640 320 640 320 672 c 0
 320 704 352 704 384 704 c 0
 416 704 448 704 448 672 c 0
 448 640 416 640 384 640 c 0
EndSplineSet
Validated: 1
EndChar

StartChar: Udieresis
Encoding: 220 220 119
GlifName: U_dieresis
Width: 512
VWidth: 0
Flags: W
HStem: 0 64<160.651 287.349> 640 64<1.4375 126.562 321.438 446.562>
VStem: 0 128<111.274 576 643.296 700.704> 320 128<111.274 576 643.296 700.704>
LayerCount: 2
Fore
SplineSet
128 576 m 1
 128 320 l 1
 128 128 128 64 224 64 c 3
 320 64 320 128 320 320 c 1
 320 576 l 1
 448 576 l 1
 448 320 l 1
 448 32 384 0 224 0 c 0
 64 0 0 32 0 320 c 1
 0 576 l 1
 128 576 l 1
64 640 m 0
 32 640 0 640 0 672 c 0
 0 704 32 704 64 704 c 0
 96 704 128 704 128 672 c 0
 128 640 96 640 64 640 c 0
384 640 m 0
 352 640 320 640 320 672 c 0
 320 704 352 704 384 704 c 0
 416 704 448 704 448 672 c 0
 448 640 416 640 384 640 c 0
EndSplineSet
Validated: 1
EndChar

StartChar: florin
Encoding: 256 402 120
GlifName: florin
Width: 512
VWidth: 0
Flags: W
HStem: 0 64<136.175 178.35> 320 64<64 192 320 448> 640 64<334.063 381.718>
VStem: 192 128<88.9048 320 384 615.095>
CounterMasks: 1 e0
LayerCount: 2
Fore
SplineSet
192 320 m 1
 64 320 l 25
 64 384 l 25
 192 384 l 1
 192 640 224 704 352 704 c 1
 480 704 512 576 512 576 c 1
 384 576 l 1
 384 640 384 640 352 640 c 1
 320 640 320 512 320 384 c 1
 448 384 l 1
 448 320 l 25
 320 320 l 1
 320 64 288 0 160 0 c 3
 32 0 0 128 0 128 c 0
 128 128 l 0
 128 128 128 64 160 64 c 3
 192 64 192 192 192 192 c 0
 192 320 l 1
EndSplineSet
Validated: 1
EndChar

StartChar: aacute
Encoding: 225 225 121
GlifName: aacute
Width: 512
VWidth: 0
Flags: W
HStem: 0 64<150.452 234.432> 256 64<151.767 234.863> 384 64<64 209.578>
VStem: 0 128<86.1997 233.8> 256 128<85.0938 227.883>
LayerCount: 2
Fore
SplineSet
128 160 m 0
 128 96 160 64 192 64 c 0
 224 64 256 96 256 160 c 0
 256 224 224 256 192 256 c 0
 160 256 128 224 128 160 c 0
288 64 m 1
 288 64 256 0 192 0 c 0
 96 0 0 64 0 160 c 0
 0 256 96 320 192 320 c 0
 224 320 256 320 256 320 c 1
 256 320 256 384 64 384 c 1
 64 448 64 448 64 448 c 1
 192 448 l 3
 320 448 384 384 384 160 c 0
 384 128 384 96 384 64 c 17
 448 32 l 1
 448 0 l 1
 352 0 l 1
 288 64 l 1
192 704 m 25
 320 704 l 1
 320 672 l 25
 160 512 l 25
 64 512 l 1
 192 704 l 25
EndSplineSet
Validated: 1
EndChar

StartChar: oacute
Encoding: 243 243 122
GlifName: oacute
Width: 512
VWidth: 0
Flags: W
HStem: 0 64<161.096 286.904> 384 64<161.096 286.904>
VStem: 0 128<99.7228 348.277> 320 128<99.7228 348.277>
LayerCount: 2
Fore
SplineSet
128 224 m 0
 128 96 160 64 224 64 c 0
 288 64 320 96 320 224 c 0
 320 352 288 384 224 384 c 0
 160 384 128 352 128 224 c 0
0 224 m 0
 0 384 64 448 224 448 c 0
 384 448 448 384 448 224 c 0
 448 64 384 0 224 0 c 0
 64 0 0 64 0 224 c 0
192 704 m 25
 320 704 l 1
 320 672 l 25
 160 512 l 25
 64 512 l 1
 192 704 l 25
EndSplineSet
Validated: 1
EndChar

StartChar: uacute
Encoding: 250 250 123
GlifName: uacute
Width: 512
VWidth: 0
Flags: W
HStem: 0 64<155.795 230.216> 428 20G<0 128 256 384>
VStem: 0 128<96.3773 448> 256 128<91.6855 448>
LayerCount: 2
Fore
SplineSet
0 224 m 0
 0 320 0 352 0 448 c 1
 128 448 l 1
 128 320 128 288 128 224 c 0
 128 96 160 64 192 64 c 0
 224 64 256 96 256 224 c 0
 256 288 256 320 256 448 c 1
 384 448 l 1
 384 64 l 1
 448 32 l 1
 448 0 l 1
 352 0 l 1
 288 64 l 1
 288 64 288 0 192 0 c 0
 64 0 0 64 0 224 c 0
192 704 m 25
 320 704 l 1
 320 672 l 25
 160 512 l 25
 64 512 l 25
 192 704 l 25
EndSplineSet
Validated: 1
EndChar

StartChar: ntilde
Encoding: 241 241 124
GlifName: ntilde
Width: 512
VWidth: 0
Flags: W
HStem: 0 21G<64 192 320 448> 384 64<213.696 297.548> 512 64<0 64 252.496 324.229> 576 64<123.771 195.504 384 448>
VStem: 64 128<0 362.906> 320 128<0 360.694>
LayerCount: 2
Fore
SplineSet
0 512 m 1xec
 0 576 l 1
 64 576 l 1xec
 64 576 64 640 160 640 c 1xdc
 288 640 224 576 288 576 c 1xec
 352 576 288 640 448 640 c 1
 448 576 l 1
 384 576 l 1xdc
 384 576 384 512 288 512 c 1xec
 160 512 224 576 160 576 c 1xdc
 96 576 160 512 0 512 c 1xec
64 384 m 17
 0 416 l 1
 0 448 l 9
 128 448 l 25
 128 384 l 1
 160 416 224 448 256 448 c 0
 352 448 448 384 448 288 c 0
 448 192 448 128 448 0 c 25
 320 0 l 25
 320 128 320 224 320 288 c 0
 320 352 288 384 256 384 c 0
 224 384 192 352 192 288 c 0
 192 224 192 128 192 0 c 25
 64 0 l 25
 64 384 l 17
EndSplineSet
Validated: 1
EndChar

StartChar: Ntilde
Encoding: 209 209 125
GlifName: N_tilde
Width: 512
VWidth: 0
Flags: W
HStem: 0 21G<0 128 320 448> 640 64<0 64 252.496 324.229> 704 64<123.771 195.504 384 448>
VStem: 0 128<0 352> 320 128<0 160 352 576>
LayerCount: 2
Fore
SplineSet
0 640 m 1xd8
 0 704 l 1
 64 704 l 1xd8
 64 704 64 768 160 768 c 1xb8
 288 768 224 704 288 704 c 1xd8
 352 704 288 768 448 768 c 1
 448 704 l 1
 384 704 l 1xb8
 384 704 384 640 288 640 c 1xd8
 160 640 224 704 160 704 c 1xb8
 96 704 160 640 0 640 c 1xd8
128 0 m 1
 0 0 l 1
 0 576 l 1
 96 576 l 1
 320 352 l 1
 320 576 l 1
 448 576 l 25
 448 0 l 1
 320 0 l 1
 320 160 l 1
 128 352 l 1
 128 0 l 1
EndSplineSet
Validated: 1
EndChar

StartChar: iacute
Encoding: 237 237 126
GlifName: iacute
Width: 512
VWidth: 0
Flags: W
HStem: 0 21G<128 384> 428 20G<128 320>
VStem: 192 128<64 384>
LayerCount: 2
Fore
SplineSet
256 704 m 25
 384 704 l 1
 384 672 l 25
 224 512 l 25
 128 512 l 1
 256 704 l 25
128 0 m 17
 128 32 l 1
 192 64 l 9
 192 384 l 17
 128 416 l 1
 128 448 l 9
 320 448 l 25
 320 64 l 17
 384 32 l 1
 384 0 l 9
 128 0 l 17
EndSplineSet
Validated: 1
EndChar

StartChar: AE
Encoding: 198 198 127
GlifName: A_E_
Width: 512
VWidth: 0
Flags: W
HStem: 0 21G<0 128 256 448> 320 64<128 256 384 448> 576 64<224 256>
VStem: 0 128<0 320 384 480> 256 128<64 320 384 576>
DStem2: 0 480 128 480 0.707107 0.707107<90.5097 226.274>
LayerCount: 2
Fore
SplineSet
128 384 m 25
 256 384 l 25
 256 576 l 25
 224 576 l 25
 128 480 l 25
 128 384 l 25
160 640 m 25
 448 640 l 25
 448 608 l 25
 384 576 l 25
 384 384 l 25
 448 384 l 25
 448 320 l 25
 384 320 l 25
 384 64 l 25
 448 32 l 25
 448 0 l 25
 256 0 l 25
 256 320 l 25
 128 320 l 25
 128 0 l 25
 0 0 l 25
 0 480 l 25
 160 640 l 25
EndSplineSet
Validated: 1
EndChar

StartChar: cent
Encoding: 162 162 128
GlifName: cent
Width: 512
VWidth: 0
Flags: W
HStem: 128 64<147 192> 448 64<147 192>
VStem: 0 128<213.08 426.92> 192 128<0 128 512 640> 320 128<206.812 256 384 433.188>
LayerCount: 2
Fore
SplineSet
320 128 m 1xf0
 320 0 l 1
 192 0 l 1
 192 128 l 1
 64 128 0 192 0 320 c 0
 0 448 64 512 192 512 c 1
 192 640 l 1
 320 640 l 1
 320 512 l 1xf0
 384 512 448 416 448 384 c 1
 320 384 l 1
 320 416 320 448 224 448 c 0
 128 448 128 416 128 320 c 0
 128 224 128 192 224 192 c 0
 320 192 320 224 320 256 c 1
 448 256 l 1xe8
 448 224 384 128 320 128 c 1xf0
EndSplineSet
Validated: 1
EndChar

StartChar: peseta
Encoding: 257 8359 129
GlifName: peseta
Width: 512
VWidth: 0
Flags: W
HStem: 0 64<403 448> 256 64<192 256 384 448> 428 20G<332 384> 448 64<128 241.518> 640 64<128 241.518>
VStem: 0 128<0 448 512 640> 256 128<83.824 256 320 352 526.199 625.801>
LayerCount: 2
Fore
SplineSet
192 320 m 1xee
 256 320 l 25
 256 352 l 1
 352 448 l 1
 384 448 l 1
 384 320 l 1
 448 320 l 25
 448 256 l 25
 384 256 l 1
 384 128 l 1
 384 96 416 64 448 64 c 0
 448 0 l 0
 320 0 256 64 256 128 c 1
 256 256 l 1
 192 256 l 1
 192 320 l 1xee
128 640 m 1
 128 512 l 25
 192 512 l 2xde
 256 512 256 576 256 576 c 1
 256 576 256 640 192 640 c 2
 128 640 l 1
0 0 m 1
 0 704 l 1
 224 704 l 1
 320 704 384 640 384 576 c 1
 384 512 320 448 224 448 c 2
 128 448 l 1
 128 0 l 1
 0 0 l 1
EndSplineSet
Validated: 1
EndChar

StartChar: yen
Encoding: 165 165 130
GlifName: yen
Width: 512
VWidth: 0
Flags: W
HStem: 0 21G<192 320> 128 64<64 192 320 448> 256 64<64 192 320 448>
VStem: 64 128<512 576> 192 128<0 128 192 256> 320 128<512 576>
LayerCount: 2
Fore
SplineSet
64 576 m 1xf0
 192 576 l 1
 192 512 l 1
 256 384 l 1
 320 512 l 1
 320 576 l 1
 448 576 l 1
 448 512 l 1
 320 320 l 1
 448 320 l 1
 448 256 l 1xf4
 320 256 l 1
 320 192 l 1xe8
 448 192 l 1
 448 128 l 1xe4
 320 128 l 1
 320 0 l 1
 192 0 l 1
 192 128 l 1xe8
 64 128 l 1
 64 192 l 1xf0
 192 192 l 1
 192 256 l 1xe8
 64 256 l 1
 64 320 l 1xf0
 192 320 l 1xe8
 64 512 l 1
 64 576 l 1xf0
EndSplineSet
Validated: 1
EndChar

StartChar: sterling
Encoding: 163 163 131
GlifName: sterling
Width: 512
VWidth: 0
Flags: W
HStem: 0 64<200.149 310.726> 384 64<0 64 192 256> 640 64<201.407 265.678>
VStem: 64 128<128 384 448 613.925> 320 128<70.6349 128> 320 64<512 580.625>
LayerCount: 2
Fore
SplineSet
64 0 m 1xf8
 32 0 0 32 0 64 c 1
 0 96 32 128 64 128 c 1
 64 384 l 1
 0 384 l 25
 0 448 l 25
 64 448 l 17
 64 608 96 704 224 704 c 1
 384 704 384 512 384 512 c 1
 320 512 l 1xf4
 320 576 256 640 224 640 c 1
 192 640 192 576 192 448 c 9
 256 448 l 1
 256 384 l 25
 192 384 l 1
 192 128 l 1
 192 64 224 64 256 64 c 1
 288 64 320 64 320 128 c 1
 448 128 l 1
 448 32 320 0 256 0 c 1
 192 0 128 32 128 64 c 1
 128 32 96 0 64 0 c 1xf8
EndSplineSet
Validated: 1
EndChar

StartChar: ordfeminine
Encoding: 170 170 132
GlifName: ordfeminine
Width: 512
VWidth: 0
Flags: W
HStem: 256 64<64 448> 384 64<196.583 252.442> 576 64<196.583 252.442>
VStem: 64 128<450.349 573.651> 256 128<449.438 574.562>
LayerCount: 2
Fore
SplineSet
192 512 m 3
 192 480 192 448 224 448 c 3
 256 448 256 480 256 512 c 3
 256 544 256 576 224 576 c 3
 192 576 192 544 192 512 c 3
224 384 m 3
 128 384 64 448 64 512 c 3
 64 576 128 640 224 640 c 3
 320 640 320 608 320 608 c 1
 352 640 l 1
 384 640 l 1
 384 448 l 25
 448 416 l 25
 448 384 l 1
 352 384 l 1
 320 416 l 1
 320 416 320 384 224 384 c 3
64 320 m 1
 448 320 l 1
 448 256 l 1
 64 256 l 1
 64 320 l 1
EndSplineSet
Validated: 1
EndChar

StartChar: ordmasculine
Encoding: 186 186 133
GlifName: ordmasculine
Width: 512
VWidth: 0
Flags: W
HStem: 256 64<64 384> 384 64<196.583 251.417> 576 64<196.583 251.417>
VStem: 64 128<450.349 573.651> 256 128<450.349 573.651>
LayerCount: 2
Fore
SplineSet
192 512 m 0
 192 480 192 448 224 448 c 0
 256 448 256 480 256 512 c 0
 256 544 256 576 224 576 c 0
 192 576 192 544 192 512 c 0
64 512 m 0
 64 576 128 640 224 640 c 0
 320 640 384 576 384 512 c 0
 384 448 320 384 224 384 c 0
 128 384 64 448 64 512 c 0
64 320 m 1
 384 320 l 1
 384 256 l 1
 64 256 l 1
 64 320 l 1
EndSplineSet
Validated: 1
EndChar

StartChar: questiondown
Encoding: 191 191 134
GlifName: questiondown
Width: 512
VWidth: 0
Flags: W
HStem: 0 64<148.778 298.53> 428 20G<176 208> 512 128<145.798 238.202>
VStem: 0 128<86.7266 243> 128 128<333 430.202 529.798 622.202> 320 128<86.7645 174.202>
LayerCount: 2
Fore
SplineSet
448 128 m 1xf4
 448 96 384 0 224 0 c 0
 64 0 0 64 0 192 c 0xf4
 0 256 128 320 128 384 c 0
 128 416 160 448 192 448 c 1
 224 448 256 416 256 384 c 0xec
 256 320 128 256 128 192 c 0
 128 64 160 64 224 64 c 0
 288 64 320 96 320 128 c 0
 320 160 352 192 384 192 c 1
 416 192 448 160 448 128 c 1xf4
256 576 m 0xec
 256 544 224 512 192 512 c 0
 160 512 128 544 128 576 c 0
 128 608 160 640 192 640 c 0
 224 640 256 608 256 576 c 0xec
EndSplineSet
Validated: 1
EndChar

StartChar: revlogicalnot
Encoding: 258 8976 135
GlifName: revlogicalnot
Width: 512
VWidth: 0
Flags: W
HStem: 320 64<128 448>
VStem: 0 128<64 320>
LayerCount: 2
Fore
SplineSet
128 64 m 1
 0 64 l 1
 0 384 l 1
 448 384 l 25
 448 320 l 25
 128 320 l 25
 128 64 l 1
EndSplineSet
Validated: 1
EndChar

StartChar: logicalnot
Encoding: 172 172 136
GlifName: logicalnot
Width: 512
VWidth: 0
Flags: W
HStem: 320 64<0 320>
VStem: 320 128<64 320>
LayerCount: 2
Fore
SplineSet
320 64 m 1
 320 320 l 25
 0 320 l 25
 0 384 l 25
 448 384 l 1
 448 64 l 1
 320 64 l 1
EndSplineSet
Validated: 1
EndChar

StartChar: onehalf
Encoding: 189 189 137
GlifName: onehalf
Width: 512
VWidth: 0
Flags: W
HStem: -128 64<288 448> 128 64<192 316.542>
VStem: 64 128<384 576> 320 128<60 119.043>
DStem2: 0 160 32 64 0.707107 0.707107<0 543.058> 128 -96 288 -64 0.707107 0.707107<135.765 270.435>
LayerCount: 2
Fore
SplineSet
192 192 m 1
 288 192 l 17
 352 192 448 160 448 96 c 1
 448 64 384 32 352 0 c 1
 288 -64 l 1
 448 -64 l 25
 448 -128 l 25
 128 -128 l 25
 128 -96 l 1
 224 0 l 1
 256 32 320 64 320 96 c 1
 320 128 256 128 192 128 c 1
 192 192 l 1
0 160 m 25
 416 576 l 25
 448 576 l 25
 448 480 l 25
 32 64 l 25
 0 64 l 25
 0 160 l 25
192 704 m 25
 192 384 l 25
 64 384 l 25
 64 576 l 25
 0 576 l 25
 0 608 l 25
 96 704 l 25
 192 704 l 25
EndSplineSet
Validated: 1
EndChar

StartChar: onequarter
Encoding: 188 188 138
GlifName: onequarter
Width: 512
VWidth: 0
Flags: W
HStem: 0 64<288 320 448 512>
VStem: 64 128<384 576> 320 128<-128 0> 384 64<64 160>
DStem2: 0 160 32 64 0.707107 0.707107<0 543.058> 128 32 288 64 0.707107 0.707107<135.765 271.529>
LayerCount: 2
Fore
SplineSet
384 64 m 25xd0
 384 160 l 25
 288 64 l 25
 384 64 l 25xd0
448 256 m 25
 448 64 l 25xd0
 512 64 l 25
 512 0 l 25
 448 0 l 25
 448 -128 l 25
 320 -128 l 25
 320 0 l 25xe0
 128 0 l 25
 128 32 l 25
 352 256 l 25
 448 256 l 25
0 160 m 25
 416 576 l 25
 448 576 l 25
 448 480 l 25
 32 64 l 25
 0 64 l 25
 0 160 l 25
192 704 m 25
 192 384 l 25
 64 384 l 25
 64 576 l 25
 0 576 l 25
 0 608 l 25
 96 704 l 25
 192 704 l 25
EndSplineSet
Validated: 1
EndChar

StartChar: exclamdown
Encoding: 161 161 139
GlifName: exclamdown
Width: 512
VWidth: 0
Flags: W
HStem: 0 21G<224 288> 428 20G<224 288> 512 128<209.798 302.202>
VStem: 128 256<61.9705 250.597> 192 128<529.798 622.202>
LayerCount: 2
Fore
SplineSet
128 128 m 3xf0
 128 192 192 448 256 448 c 3
 320 448 384 192 384 128 c 3
 384 64 320 0 256 0 c 3
 192 0 128 64 128 128 c 3xf0
192 576 m 3xe8
 192 608 224 640 256 640 c 3
 288 640 320 608 320 576 c 3
 320 544 288 512 256 512 c 3
 224 512 192 544 192 576 c 3xe8
EndSplineSet
Validated: 1
EndChar

StartChar: guillemotleft
Encoding: 171 171 140
GlifName: guillemotleft
Width: 512
VWidth: 0
Flags: W
HStem: 128 320
DStem2: 128 288 0 288 0.707107 -0.707107<0 135.765> 0 288 128 288 0.707107 0.707107<90.5097 226.274> 320 288 192 288 0.707107 -0.707107<0 135.765> 192 288 320 288 0.707107 0.707107<90.5097 226.274>
LayerCount: 2
Fore
SplineSet
192 288 m 1
 352 448 l 1
 448 448 l 1
 448 416 l 1
 320 288 l 1
 448 160 l 1
 448 128 l 1
 352 128 l 1
 192 288 l 1
0 288 m 1
 160 448 l 1
 256 448 l 1
 256 416 l 1
 128 288 l 1
 256 160 l 1
 256 128 l 1
 160 128 l 1
 0 288 l 1
EndSplineSet
Validated: 1
EndChar

StartChar: guillemotright
Encoding: 187 187 141
GlifName: guillemotright
Width: 512
VWidth: 0
Flags: W
HStem: 128 320
DStem2: 96 448 0 416 0.707107 -0.707107<0 135.765> 0 160 96 128 0.707107 0.707107<45.2548 181.019> 288 448 192 416 0.707107 -0.707107<0 135.765> 192 160 288 128 0.707107 0.707107<45.2548 181.019>
LayerCount: 2
Fore
SplineSet
256 288 m 1
 96 128 l 1
 0 128 l 1
 0 160 l 1
 128 288 l 1
 0 416 l 1
 0 448 l 1
 96 448 l 1
 256 288 l 1
448 288 m 1
 288 128 l 1
 192 128 l 1
 192 160 l 1
 320 288 l 1
 192 416 l 1
 192 448 l 1
 288 448 l 1
 448 288 l 1
EndSplineSet
Validated: 1
EndChar

StartChar: ltshade
Encoding: 259 9617 142
GlifName: ltshade
Width: 512
VWidth: 0
Flags: W
HStem: -256 64<64 128 320 384> -192 64<192 256 448 512> -128 64<64 128 320 384> -64 64<192 256 448 512> 0 64<64 128 320 384> 64 64<192 256 448 512> 128 64<64 128 320 384> 192 64<192 256 448 512> 256 64<64 128 320 384> 320 64<192 256 448 512> 384 64<64 128 320 384> 448 64<192 256 448 512> 512 64<64 128 320 384> 576 64<192 256 448 512> 640 64<64 128 320 384> 704 64<192 256 448 512>
VStem: 64 64<-256 -192 -128 -64 0 64 128 192 256 320 384 448 512 576 640 704> 192 64<-192 -128 -64 0 64 128 192 256 320 384 448 512 576 640 704 768> 320 64<-256 -192 -128 -64 0 64 128 192 256 320 384 448 512 576 640 704> 448 64<-192 -128 -64 0 64 128 192 256 320 384 448 512 576 640 704 768>
LayerCount: 2
Fore
SplineSet
448 0 m 1x1000f0
 512 0 l 1
 512 -64 l 1
 448 -64 l 1
 448 0 l 1x1000f0
448 -128 m 1x4000f0
 512 -128 l 1
 512 -192 l 1
 448 -192 l 1
 448 -128 l 1x4000f0
320 -64 m 1x2000f0
 384 -64 l 1
 384 -128 l 1
 320 -128 l 1
 320 -64 l 1x2000f0
320 -192 m 1x8000f0
 384 -192 l 1
 384 -256 l 1
 320 -256 l 1
 320 -192 l 1x8000f0
192 0 m 1x1000f0
 256 0 l 1
 256 -64 l 1
 192 -64 l 1
 192 0 l 1x1000f0
192 -128 m 1x4000f0
 256 -128 l 1
 256 -192 l 1
 192 -192 l 1
 192 -128 l 1x4000f0
64 -64 m 1x2000f0
 128 -64 l 1
 128 -128 l 1
 64 -128 l 1
 64 -64 l 1x2000f0
64 -192 m 1x8000f0
 128 -192 l 1
 128 -256 l 1
 64 -256 l 1
 64 -192 l 1x8000f0
448 768 m 1x0001f0
 512 768 l 1
 512 704 l 1
 448 704 l 1
 448 768 l 1x0001f0
320 704 m 1x0002f0
 384 704 l 1
 384 640 l 1
 320 640 l 1
 320 704 l 1x0002f0
192 768 m 1x0001f0
 256 768 l 1
 256 704 l 1
 192 704 l 1
 192 768 l 1x0001f0
64 704 m 1x0002f0
 128 704 l 1
 128 640 l 1
 64 640 l 1
 64 704 l 1x0002f0
448 640 m 1x0004f0
 512 640 l 1
 512 576 l 1
 448 576 l 1
 448 640 l 1x0004f0
320 576 m 1x0008f0
 384 576 l 1
 384 512 l 1
 320 512 l 1
 320 576 l 1x0008f0
192 640 m 1x0004f0
 256 640 l 1
 256 576 l 1
 192 576 l 1
 192 640 l 1x0004f0
64 576 m 1x0008f0
 128 576 l 1
 128 512 l 1
 64 512 l 1
 64 576 l 1x0008f0
448 512 m 1x0010f0
 512 512 l 1
 512 448 l 1
 448 448 l 1
 448 512 l 1x0010f0
320 448 m 1x0020f0
 384 448 l 1
 384 384 l 1
 320 384 l 1
 320 448 l 1x0020f0
192 512 m 1x0010f0
 256 512 l 1
 256 448 l 1
 192 448 l 1
 192 512 l 1x0010f0
64 448 m 1x0020f0
 128 448 l 1
 128 384 l 1
 64 384 l 1
 64 448 l 1x0020f0
448 384 m 1x0040f0
 512 384 l 1
 512 320 l 1
 448 320 l 1
 448 384 l 1x0040f0
320 320 m 1x0080f0
 384 320 l 1
 384 256 l 1
 320 256 l 1
 320 320 l 1x0080f0
192 384 m 1x0040f0
 256 384 l 1
 256 320 l 1
 192 320 l 1
 192 384 l 1x0040f0
64 320 m 1x0080f0
 128 320 l 1
 128 256 l 1
 64 256 l 1
 64 320 l 1x0080f0
448 256 m 1x0100f0
 512 256 l 1
 512 192 l 1
 448 192 l 1
 448 256 l 1x0100f0
320 192 m 1x0200f0
 384 192 l 1
 384 128 l 1
 320 128 l 1
 320 192 l 1x0200f0
192 256 m 1x0100f0
 256 256 l 1
 256 192 l 1
 192 192 l 1
 192 256 l 1x0100f0
64 192 m 1x0200f0
 128 192 l 1
 128 128 l 1
 64 128 l 1
 64 192 l 1x0200f0
448 128 m 1x0400f0
 512 128 l 1
 512 64 l 1
 448 64 l 1
 448 128 l 1x0400f0
320 64 m 1x0800f0
 384 64 l 1
 384 0 l 1
 320 0 l 1
 320 64 l 1x0800f0
192 128 m 1x0400f0
 256 128 l 1
 256 64 l 1
 192 64 l 1
 192 128 l 1x0400f0
64 64 m 1x0800f0
 128 64 l 1
 128 0 l 1
 64 0 l 1
 64 64 l 1x0800f0
EndSplineSet
Validated: 1
EndChar

StartChar: shade
Encoding: 260 9618 143
GlifName: shade
Width: 512
VWidth: 0
Flags: W
HStem: -256 64<0 64 128 192 256 320 384 448> -192 64<64 128 192 256 320 384 448 512> -128 64<0 64 128 192 256 320 384 448> -64 64<64 128 192 256 320 384 448 512> 0 64<0 64 128 192 256 320 384 448> 64 64<64 128 192 256 320 384 448 512> 128 64<0 64 128 192 256 320 384 448> 192 64<64 128 192 256 320 384 448 512> 256 64<0 64 128 192 256 320 384 448> 320 64<64 128 192 256 320 384 448 512> 384 64<0 64 128 192 256 320 384 448> 448 64<64 128 192 256 320 384 448 512> 512 64<0 64 128 192 256 320 384 448> 576 64<64 128 192 256 320 384 448 512> 640 64<0 64 128 192 256 320 384 448> 704 64<64 128 192 256 320 384 448 512>
VStem: 0 64<-256 -192 -128 -64 0 64 128 192 256 320 384 448 512 576 640 704> 64 64<-192 -128 -64 0 64 128 192 256 320 384 448 512 576 640 704 768> 128 64<-256 -192 -128 -64 0 64 128 192 256 320 384 448 512 576 640 704> 192 64<-192 -128 -64 0 64 128 192 256 320 384 448 512 576 640 704 768> 256 64<-256 -192 -128 -64 0 64 128 192 256 320 384 448 512 576 640 704> 320 64<-192 -128 -64 0 64 128 192 256 320 384 448 512 576 640 704 768> 384 64<-256 -192 -128 -64 0 64 128 192 256 320 384 448 512 576 640 704> 448 64<-192 -128 -64 0 64 128 192 256 320 384 448 512 576 640 704 768>
LayerCount: 2
Fore
SplineSet
448 0 m 1x100002
 512 0 l 1
 512 -64 l 1x100001
 448 -64 l 1x200002
 448 0 l 1x100002
448 -128 m 1x400002
 512 -128 l 1
 512 -192 l 1x400001
 448 -192 l 1x800002
 448 -128 l 1x400002
384 -192 m 1x800004
 448 -192 l 1
 448 -256 l 1
 384 -256 l 1x800002
 384 -192 l 1x800004
256 -192 m 1x800010
 320 -192 l 1
 320 -256 l 1
 256 -256 l 1x800008
 256 -192 l 1x800010
320 -128 m 1x400008
 384 -128 l 1x400004
 384 -192 l 1x800004
 320 -192 l 1x800008
 320 -128 l 1x400008
384 -64 m 1x200004
 448 -64 l 1x200002
 448 -128 l 1x400002
 384 -128 l 1x400004
 384 -64 l 1x200004
256 -64 m 1x200010
 320 -64 l 1x200008
 320 -128 l 1x400008
 256 -128 l 1x400010
 256 -64 l 1x200010
320 0 m 1x100008
 384 0 l 1x100004
 384 -64 l 1x200004
 320 -64 l 1x200008
 320 0 l 1x100008
192 0 m 1x100020
 256 0 l 1x100010
 256 -64 l 1x200010
 192 -64 l 1x200020
 192 0 l 1x100020
192 -128 m 1x400020
 256 -128 l 1x400010
 256 -192 l 1x800010
 192 -192 l 1x800020
 192 -128 l 1x400020
128 -192 m 1x800040
 192 -192 l 1
 192 -256 l 1
 128 -256 l 1x800020
 128 -192 l 1x800040
0 -192 m 1x800080
 64 -192 l 1
 64 -256 l 1
 0 -256 l 1
 0 -192 l 1x800080
64 -128 m 1x400080
 128 -128 l 1x400040
 128 -192 l 1x800040
 64 -192 l 1x800080
 64 -128 l 1x400080
128 -64 m 1x200040
 192 -64 l 1x200020
 192 -128 l 1x400020
 128 -128 l 1x400040
 128 -64 l 1x200040
0 -64 m 1x200080
 64 -64 l 1x200080
 64 -128 l 1x400080
 0 -128 l 1
 0 -64 l 1x200080
64 0 m 1x100080
 128 0 l 1x100040
 128 -64 l 1x200040
 64 -64 l 1x200080
 64 0 l 1x100080
448 256 m 1x010002
 512 256 l 1
 512 192 l 1x010001
 448 192 l 1x020002
 448 256 l 1x010002
448 128 m 1x040002
 512 128 l 1
 512 64 l 1x040001
 448 64 l 1x080002
 448 128 l 1x040002
384 64 m 1x080004
 448 64 l 1x080002
 448 0 l 1x100002
 384 0 l 1x100004
 384 64 l 1x080004
256 64 m 1x080010
 320 64 l 1x080008
 320 0 l 1x100008
 256 0 l 1x100010
 256 64 l 1x080010
320 128 m 1x040008
 384 128 l 1x040004
 384 64 l 1x080004
 320 64 l 1x080008
 320 128 l 1x040008
384 192 m 1x020004
 448 192 l 1x020002
 448 128 l 1x040002
 384 128 l 1x040004
 384 192 l 1x020004
256 192 m 1x020010
 320 192 l 1x020008
 320 128 l 1x040008
 256 128 l 1x040010
 256 192 l 1x020010
320 256 m 1x010008
 384 256 l 1x010004
 384 192 l 1x020004
 320 192 l 1x020008
 320 256 l 1x010008
192 256 m 1x010020
 256 256 l 1x010010
 256 192 l 1x020010
 192 192 l 1x020020
 192 256 l 1x010020
192 128 m 1x040020
 256 128 l 1x040010
 256 64 l 1x080010
 192 64 l 1x080020
 192 128 l 1x040020
128 64 m 1x080040
 192 64 l 1x080020
 192 0 l 1x100020
 128 0 l 1x100040
 128 64 l 1x080040
0 64 m 1x080080
 64 64 l 1x080080
 64 0 l 1x100080
 0 0 l 1
 0 64 l 1x080080
64 128 m 1x040080
 128 128 l 1x040040
 128 64 l 1x080040
 64 64 l 1x080080
 64 128 l 1x040080
128 192 m 1x020040
 192 192 l 1x020020
 192 128 l 1x040020
 128 128 l 1x040040
 128 192 l 1x020040
0 192 m 1x020080
 64 192 l 1x020080
 64 128 l 1x040080
 0 128 l 1
 0 192 l 1x020080
64 256 m 1x010080
 128 256 l 1x010040
 128 192 l 1x020040
 64 192 l 1x020080
 64 256 l 1x010080
448 512 m 1x001002
 512 512 l 1
 512 448 l 1x001001
 448 448 l 1x002002
 448 512 l 1x001002
448 384 m 1x004002
 512 384 l 1
 512 320 l 1x004001
 448 320 l 1x008002
 448 384 l 1x004002
384 320 m 1x008004
 448 320 l 1x008002
 448 256 l 1x010002
 384 256 l 1x010004
 384 320 l 1x008004
256 320 m 1x008010
 320 320 l 1x008008
 320 256 l 1x010008
 256 256 l 1x010010
 256 320 l 1x008010
320 384 m 1x004008
 384 384 l 1x004004
 384 320 l 1x008004
 320 320 l 1x008008
 320 384 l 1x004008
384 448 m 1x002004
 448 448 l 1x002002
 448 384 l 1x004002
 384 384 l 1x004004
 384 448 l 1x002004
256 448 m 1x002010
 320 448 l 1x002008
 320 384 l 1x004008
 256 384 l 1x004010
 256 448 l 1x002010
320 512 m 1x001008
 384 512 l 1x001004
 384 448 l 1x002004
 320 448 l 1x002008
 320 512 l 1x001008
192 512 m 1x001020
 256 512 l 1x001010
 256 448 l 1x002010
 192 448 l 1x002020
 192 512 l 1x001020
192 384 m 1x004020
 256 384 l 1x004010
 256 320 l 1x008010
 192 320 l 1x008020
 192 384 l 1x004020
128 320 m 1x008040
 192 320 l 1x008020
 192 256 l 1x010020
 128 256 l 1x010040
 128 320 l 1x008040
0 320 m 1x008080
 64 320 l 1x008080
 64 256 l 1x010080
 0 256 l 1
 0 320 l 1x008080
64 384 m 1x004080
 128 384 l 1x004040
 128 320 l 1x008040
 64 320 l 1x008080
 64 384 l 1x004080
128 448 m 1x002040
 192 448 l 1x002020
 192 384 l 1x004020
 128 384 l 1x004040
 128 448 l 1x002040
0 448 m 1x002080
 64 448 l 1x002080
 64 384 l 1x004080
 0 384 l 1
 0 448 l 1x002080
64 512 m 1x001080
 128 512 l 1x001040
 128 448 l 1x002040
 64 448 l 1x002080
 64 512 l 1x001080
448 768 m 1x000101
 512 768 l 1
 512 704 l 1x000101
 448 704 l 1x000202
 448 768 l 1x000101
448 640 m 1x000402
 512 640 l 1
 512 576 l 1x000401
 448 576 l 1x000802
 448 640 l 1x000402
384 576 m 1x000804
 448 576 l 1x000802
 448 512 l 1x001002
 384 512 l 1x001004
 384 576 l 1x000804
256 576 m 1x000810
 320 576 l 1x000808
 320 512 l 1x001008
 256 512 l 1x001010
 256 576 l 1x000810
320 640 m 1x000408
 384 640 l 1x000404
 384 576 l 1x000804
 320 576 l 1x000808
 320 640 l 1x000408
384 704 m 1x000204
 448 704 l 1x000202
 448 640 l 1x000402
 384 640 l 1x000404
 384 704 l 1x000204
256 704 m 1x000210
 320 704 l 1x000208
 320 640 l 1x000408
 256 640 l 1x000410
 256 704 l 1x000210
320 768 m 1x000104
 384 768 l 1x000104
 384 704 l 1x000204
 320 704 l 1x000208
 320 768 l 1x000104
192 768 m 1x000110
 256 768 l 1x000110
 256 704 l 1x000210
 192 704 l 1x000220
 192 768 l 1x000110
192 640 m 1x000420
 256 640 l 1x000410
 256 576 l 1x000810
 192 576 l 1x000820
 192 640 l 1x000420
128 576 m 1x000840
 192 576 l 1x000820
 192 512 l 1x001020
 128 512 l 1x001040
 128 576 l 1x000840
0 576 m 1x000880
 64 576 l 1x000880
 64 512 l 1x001080
 0 512 l 1
 0 576 l 1x000880
64 640 m 1x000480
 128 640 l 1x000440
 128 576 l 1x000840
 64 576 l 1x000880
 64 640 l 1x000480
128 704 m 1x000240
 192 704 l 1x000220
 192 640 l 1x000420
 128 640 l 1x000440
 128 704 l 1x000240
0 704 m 1x000280
 64 704 l 1x000280
 64 640 l 1x000480
 0 640 l 1
 0 704 l 1x000280
64 768 m 1x000140
 128 768 l 1x000140
 128 704 l 1x000240
 64 704 l 1x000280
 64 768 l 1x000140
EndSplineSet
Validated: 5
EndChar

StartChar: dkshade
Encoding: 261 9619 144
GlifName: dkshade
Width: 512
VWidth: 0
Flags: W
HStem: -256 64<128 192 384 448> -192 64<0 64 256 320> -128 64<128 192 384 448> -64 64<0 64 256 320> 0 64<128 192 384 448> 64 64<0 64 256 320> 128 64<128 192 384 448> 192 64<0 64 256 320> 256 64<128 192 384 448> 320 64<0 64 256 320> 384 64<128 192 384 448> 448 64<0 64 256 320> 512 64<128 192 384 448> 576 64<0 64 256 320> 640 64<128 192 384 448> 704 64<0 64 256 320>
VStem: 0 128<-192 -128 -64 0 64 128 192 256 320 384 448 512 576 640 704 768> 64 192<-256 -192 -128 -64 0 64 128 192 256 320 384 448 512 576 640 704> 192 192<-192 -128 -64 0 64 128 192 256 320 384 448 512 576 640 704 768> 320 192<-256 -192 -128 -64 0 64 128 192 256 320 384 448 512 576 640 704> 448 64<-192 -128 -64 0 64 128 192 256 320 384 448 512 576 640 704 768>
LayerCount: 2
Fore
SplineSet
128 128 m 1x0a00a0
 128 64 l 1
 192 64 l 1
 192 128 l 1
 128 128 l 1x0a00a0
256 64 m 1x140050
 256 0 l 1
 320 0 l 1
 320 64 l 1
 256 64 l 1x140050
384 128 m 1x0a0028
 384 64 l 1
 448 64 l 1
 448 128 l 1
 384 128 l 1x0a0028
128 256 m 1x0280a0
 128 192 l 1
 192 192 l 1
 192 256 l 1
 128 256 l 1x0280a0
256 192 m 1x050050
 256 128 l 1
 320 128 l 1
 320 192 l 1
 256 192 l 1x050050
384 256 m 1x028028
 384 192 l 1
 448 192 l 1
 448 256 l 1
 384 256 l 1x028028
128 384 m 1x00a0a0
 128 320 l 1
 192 320 l 1
 192 384 l 1
 128 384 l 1x00a0a0
256 320 m 1x014050
 256 256 l 1
 320 256 l 1
 320 320 l 1
 256 320 l 1x014050
384 384 m 1x00a028
 384 320 l 1
 448 320 l 1
 448 384 l 1
 384 384 l 1x00a028
128 512 m 1x0028a0
 128 448 l 1
 192 448 l 1
 192 512 l 1
 128 512 l 1x0028a0
256 448 m 1x005050
 256 384 l 1
 320 384 l 1
 320 448 l 1
 256 448 l 1x005050
384 512 m 1x002828
 384 448 l 1
 448 448 l 1
 448 512 l 1
 384 512 l 1x002828
128 640 m 1x000aa0
 128 576 l 1
 192 576 l 1
 192 640 l 1
 128 640 l 1x000aa0
256 576 m 1x001450
 256 512 l 1
 320 512 l 1
 320 576 l 1
 256 576 l 1x001450
384 640 m 1x000a28
 384 576 l 1
 448 576 l 1
 448 640 l 1
 384 640 l 1x000a28
256 704 m 1x000550
 256 640 l 1
 320 640 l 1
 320 704 l 1
 256 704 l 1x000550
128 -128 m 1xa000a0
 128 -192 l 1
 192 -192 l 1
 192 -128 l 1
 128 -128 l 1xa000a0
128 0 m 1x2800a0
 128 -64 l 1
 192 -64 l 1
 192 0 l 1
 128 0 l 1x2800a0
256 -64 m 1x500050
 256 -128 l 1
 320 -128 l 1
 320 -64 l 1
 256 -64 l 1x500050
384 -128 m 1xa00028
 384 -192 l 1
 448 -192 l 1
 448 -128 l 1
 384 -128 l 1xa00028
384 0 m 1x280028
 384 -64 l 1
 448 -64 l 1
 448 0 l 1
 384 0 l 1x280028
0 -64 m 1x500080
 0 0 l 25x500080
 64 0 l 25
 64 64 l 25x540040
 0 64 l 25
 0 128 l 25x540080
 64 128 l 25
 64 192 l 25x550040
 0 192 l 25
 0 256 l 25x550080
 64 256 l 25
 64 320 l 25x554040
 0 320 l 25
 0 384 l 25x554080
 64 384 l 25
 64 448 l 25x555040
 0 448 l 25
 0 512 l 25x555080
 64 512 l 25
 64 576 l 25x555440
 0 576 l 25
 0 640 l 25x555480
 64 640 l 25
 64 704 l 25x555540
 0 704 l 25
 0 768 l 17
 128 768 l 1x555580
 128 704 l 1
 192 704 l 1x0002a0
 192 768 l 1
 384 768 l 1x0001a0
 384 704 l 1
 448 704 l 1x0002a8
 448 768 l 1
 512 768 l 1x0001a8
 512 -256 l 1
 320 -256 l 1x800110
 320 -192 l 1
 256 -192 l 1x400050
 256 -256 l 1
 64 -256 l 1x800050
 64 -192 l 1x400050
 0 -192 l 1
 0 -128 l 1x400080
 64 -128 l 1
 64 -64 l 1x500040
 0 -64 l 1x500080
EndSplineSet
Validated: 1
EndChar

StartChar: SF110000
Encoding: 262 9474 145
GlifName: S_F_110000
Width: 512
VWidth: 0
Flags: W
VStem: 192 128<-256 768>
LayerCount: 2
Fore
SplineSet
192 768 m 1
 320 768 l 1
 320 -256 l 1
 192 -256 l 1
 192 768 l 1
EndSplineSet
Validated: 1
EndChar

StartChar: SF090000
Encoding: 263 9508 146
GlifName: S_F_090000
Width: 512
VWidth: 0
Flags: W
HStem: 256 64<0 192>
VStem: 192 128<-256 256 320 768>
LayerCount: 2
Fore
SplineSet
192 768 m 1
 320 768 l 1
 320 -256 l 1
 192 -256 l 1
 192 256 l 1
 0 256 l 1
 0 320 l 1
 192 320 l 1
 192 768 l 1
EndSplineSet
Validated: 1
EndChar

StartChar: SF190000
Encoding: 264 9569 147
GlifName: S_F_190000
Width: 512
VWidth: 0
Flags: W
HStem: 256 64<0 192> 384 64<0 192>
VStem: 192 128<-256 256 320 384 448 768>
LayerCount: 2
Fore
SplineSet
192 768 m 1
 320 768 l 1
 320 -256 l 1
 192 -256 l 1
 192 256 l 1
 0 256 l 1
 0 320 l 1
 192 320 l 1
 192 384 l 1
 0 384 l 1
 0 448 l 1
 192 448 l 1
 192 768 l 1
EndSplineSet
Validated: 1
EndChar

StartChar: SF200000
Encoding: 265 9570 148
GlifName: S_F_200000
Width: 512
VWidth: 0
Flags: W
HStem: 256 64<0 128>
VStem: 128 128<-256 256 320 768> 320 128<-256 768>
LayerCount: 2
Fore
SplineSet
320 768 m 1
 448 768 l 1
 448 -256 l 1
 320 -256 l 1
 320 768 l 1
128 768 m 1
 256 768 l 1
 256 -256 l 1
 128 -256 l 1
 128 256 l 1
 0 256 l 1
 0 320 l 1
 128 320 l 1
 128 768 l 1
EndSplineSet
Validated: 1
EndChar

StartChar: SF210000
Encoding: 266 9558 149
GlifName: S_F_210000
Width: 512
VWidth: 0
Flags: W
HStem: 256 64<0 128 256 320>
VStem: 128 128<-256 256> 320 128<-256 256>
LayerCount: 2
Fore
SplineSet
256 -256 m 1
 128 -256 l 1
 128 256 l 1
 0 256 l 1
 0 320 l 1
 448 320 l 1
 448 -256 l 1
 320 -256 l 9
 320 256 l 25
 256 256 l 25
 256 -256 l 1
EndSplineSet
Validated: 1
EndChar

StartChar: SF220000
Encoding: 267 9557 150
GlifName: S_F_220000
Width: 512
VWidth: 0
Flags: W
HStem: 256 64<0 192> 384 64<0 192>
VStem: 192 128<-256 256 320 384>
LayerCount: 2
Fore
SplineSet
320 448 m 1
 320 -256 l 1
 192 -256 l 1
 192 256 l 1
 0 256 l 1
 0 320 l 1
 192 320 l 1
 192 384 l 1
 0 384 l 1
 0 448 l 1
 320 448 l 1
EndSplineSet
Validated: 1
EndChar

StartChar: SF230000
Encoding: 268 9571 151
GlifName: S_F_230000
Width: 512
VWidth: 0
Flags: W
HStem: 256 64<0 128> 384 64<0 128>
VStem: 128 128<-256 256 448 768> 320 128<-256 768>
LayerCount: 2
Fore
SplineSet
320 768 m 1
 448 768 l 1
 448 -256 l 1
 320 -256 l 1
 320 768 l 1
256 384 m 1
 0 384 l 1
 0 448 l 1
 128 448 l 1
 128 768 l 1
 256 768 l 1
 256 384 l 1
256 -256 m 1
 128 -256 l 1
 128 256 l 1
 0 256 l 1
 0 320 l 1
 256 320 l 1
 256 -256 l 1
EndSplineSet
Validated: 1
EndChar

StartChar: SF240000
Encoding: 269 9553 152
GlifName: S_F_240000
Width: 512
VWidth: 0
Flags: W
VStem: 128 128<-256 768> 320 128<-256 768>
LayerCount: 2
Fore
SplineSet
128 768 m 1
 256 768 l 1
 256 -256 l 1
 128 -256 l 1
 128 768 l 1
320 768 m 1
 448 768 l 1
 448 -256 l 1
 320 -256 l 1
 320 768 l 1
EndSplineSet
Validated: 1
EndChar

StartChar: SF250000
Encoding: 270 9559 153
GlifName: S_F_250000
Width: 512
VWidth: 0
Flags: W
HStem: 256 64<0 128> 384 64<0 320>
VStem: 128 128<-256 256> 320 128<-256 384>
LayerCount: 2
Fore
SplineSet
256 -256 m 1
 128 -256 l 1
 128 256 l 1
 0 256 l 1
 0 320 l 9
 256 320 l 25
 256 -256 l 1
320 384 m 25
 0 384 l 1
 0 448 l 1
 448 448 l 1
 448 -256 l 1
 320 -256 l 9
 320 384 l 25
EndSplineSet
Validated: 1
EndChar

StartChar: SF260000
Encoding: 271 9565 154
GlifName: S_F_260000
Width: 512
VWidth: 0
Flags: W
HStem: 256 64<0 320> 384 64<0 128>
VStem: 128 128<448 768> 320 128<320 768>
LayerCount: 2
Fore
SplineSet
256 768 m 1
 256 384 l 1
 0 384 l 17
 0 448 l 1
 128 448 l 1
 128 768 l 1
 256 768 l 1
320 320 m 1
 320 768 l 17
 448 768 l 1
 448 256 l 1
 0 256 l 1
 0 320 l 1
 320 320 l 1
EndSplineSet
Validated: 1
EndChar

StartChar: SF440000
Encoding: 272 9580 155
GlifName: S_F_440000
Width: 512
VWidth: 0
Flags: W
HStem: 256 64<0 128 448 512> 384 64<0 128 448 512>
VStem: 128 128<-256 256 448 768> 320 192<256 320 384 448> 320 128<-256 256 448 768>
LayerCount: 2
Fore
SplineSet
448 448 m 1xe8
 512 448 l 25
 512 384 l 25
 320 384 l 25xf0
 320 768 l 17
 448 768 l 1
 448 448 l 1xe8
448 256 m 1xe8
 448 -256 l 1
 320 -256 l 9xe8
 320 320 l 25
 512 320 l 25
 512 256 l 25xf0
 448 256 l 1xe8
256 320 m 1
 256 -256 l 1
 128 -256 l 1
 128 256 l 1
 0 256 l 1
 0 320 l 1
 256 320 l 1
256 384 m 1
 0 384 l 1
 0 448 l 1
 128 448 l 1
 128 768 l 1
 256 768 l 1
 256 384 l 1
EndSplineSet
Validated: 1
EndChar

StartChar: SF270000
Encoding: 273 9564 156
GlifName: S_F_270000
Width: 512
VWidth: 0
Flags: W
HStem: 256 64<0 128 256 320>
VStem: 128 128<320 768> 320 128<320 768>
LayerCount: 2
Fore
SplineSet
320 768 m 1
 448 768 l 1
 448 256 l 1
 0 256 l 1
 0 320 l 1
 128 320 l 1
 128 768 l 1
 256 768 l 1
 256 320 l 1
 320 320 l 25
 320 768 l 1
EndSplineSet
Validated: 1
EndChar

StartChar: SF280000
Encoding: 274 9563 157
GlifName: S_F_280000
Width: 512
VWidth: 0
Flags: W
HStem: 256 64<0 192> 384 64<0 192>
VStem: 192 128<320 384 448 768>
LayerCount: 2
Fore
SplineSet
0 384 m 1
 0 448 l 1
 192 448 l 1
 192 768 l 1
 320 768 l 1
 320 256 l 1
 0 256 l 1
 0 320 l 1
 192 320 l 25
 192 384 l 25
 0 384 l 1
EndSplineSet
Validated: 1
EndChar

StartChar: SF030000
Encoding: 275 9488 158
GlifName: S_F_030000
Width: 512
VWidth: 0
Flags: W
HStem: 256 64<0 192>
VStem: 192 128<-256 256>
LayerCount: 2
Fore
SplineSet
320 320 m 1
 320 -256 l 1
 192 -256 l 1
 192 256 l 1
 0 256 l 1
 0 320 l 1
 320 320 l 1
EndSplineSet
Validated: 1
EndChar

StartChar: SF450000
Encoding: 276 9575 159
GlifName: S_F_450000
Width: 512
VWidth: 0
Flags: W
HStem: 256 64<0 512> 384 64<0 192 320 512>
VStem: 192 128<448 768>
LayerCount: 2
Fore
SplineSet
0 320 m 1
 512 320 l 1
 512 256 l 1
 0 256 l 1
 0 320 l 1
192 768 m 1
 320 768 l 1
 320 448 l 1
 512 448 l 1
 512 384 l 1
 0 384 l 1
 0 448 l 1
 192 448 l 1
 192 768 l 1
EndSplineSet
Validated: 1
EndChar

StartChar: SF430000
Encoding: 277 9552 160
GlifName: S_F_430000
Width: 512
VWidth: 0
Flags: W
HStem: 256 64<0 512> 384 64<0 512>
LayerCount: 2
Fore
SplineSet
512 448 m 25
 512 384 l 25
 0 384 l 1
 0 448 l 1
 512 448 l 25
512 320 m 25
 512 256 l 25
 0 256 l 1
 0 320 l 1
 512 320 l 25
EndSplineSet
Validated: 1
EndChar

StartChar: SF420000
Encoding: 278 9568 161
GlifName: S_F_420000
Width: 512
VWidth: 0
Flags: W
HStem: 256 64<448 512> 384 64<448 512>
VStem: 128 128<-256 768> 320 192<256 320 384 448> 320 128<-256 256 448 768>
LayerCount: 2
Fore
SplineSet
448 448 m 1xe8
 512 448 l 25
 512 384 l 25
 320 384 l 25xf0
 320 768 l 17
 448 768 l 1
 448 448 l 1xe8
448 256 m 1xe8
 448 -256 l 1
 320 -256 l 9xe8
 320 320 l 25
 512 320 l 25
 512 256 l 25xf0
 448 256 l 1xe8
128 768 m 1
 256 768 l 1
 256 -256 l 1
 128 -256 l 1
 128 768 l 1
EndSplineSet
Validated: 1
EndChar

StartChar: SF410000
Encoding: 279 9574 162
GlifName: S_F_410000
Width: 512
VWidth: 0
Flags: W
HStem: 256 64<0 128 448 512> 384 64<0 512>
VStem: 128 128<-256 256> 320 128<-256 256>
LayerCount: 2
Fore
SplineSet
448 256 m 1
 448 -256 l 1
 320 -256 l 9
 320 320 l 25
 512 320 l 25
 512 256 l 25
 448 256 l 1
256 320 m 1
 256 -256 l 1
 128 -256 l 1
 128 256 l 1
 0 256 l 1
 0 320 l 1
 256 320 l 1
0 384 m 1
 0 448 l 1
 512 448 l 25
 512 384 l 25
 0 384 l 1
EndSplineSet
Validated: 1
EndChar

StartChar: SF400000
Encoding: 280 9577 163
GlifName: S_F_400000
Width: 512
VWidth: 0
Flags: W
HStem: 256 64<0 512> 384 64<0 128 448 512>
VStem: 128 128<448 768> 320 128<448 768>
LayerCount: 2
Fore
SplineSet
448 448 m 1
 512 448 l 25
 512 384 l 25
 320 384 l 25
 320 768 l 17
 448 768 l 1
 448 448 l 1
512 320 m 25
 512 256 l 25
 0 256 l 1
 0 320 l 1
 512 320 l 25
256 384 m 1
 0 384 l 1
 0 448 l 1
 128 448 l 1
 128 768 l 1
 256 768 l 1
 256 384 l 1
EndSplineSet
Validated: 1
EndChar

StartChar: SF390000
Encoding: 281 9556 164
GlifName: S_F_390000
Width: 512
VWidth: 0
Flags: W
HStem: 256 64<448 512> 384 64<256 512>
VStem: 128 128<-256 384> 320 128<-256 256>
LayerCount: 2
Fore
SplineSet
448 256 m 1
 448 -256 l 1
 320 -256 l 9
 320 320 l 25
 512 320 l 25
 512 256 l 25
 448 256 l 1
256 -256 m 1
 128 -256 l 9
 128 448 l 25
 512 448 l 25
 512 384 l 25
 256 384 l 25
 256 -256 l 1
EndSplineSet
Validated: 1
EndChar

StartChar: SF380000
Encoding: 282 9562 165
GlifName: S_F_380000
Width: 512
VWidth: 0
Flags: W
HStem: 256 64<256 512> 384 64<448 512>
VStem: 128 128<320 768> 320 128<448 768>
LayerCount: 2
Fore
SplineSet
448 448 m 1
 512 448 l 25
 512 384 l 25
 320 384 l 25
 320 768 l 17
 448 768 l 1
 448 448 l 1
256 768 m 1
 256 320 l 25
 512 320 l 25
 512 256 l 25
 128 256 l 25
 128 768 l 17
 256 768 l 1
EndSplineSet
Validated: 1
EndChar

StartChar: SF370000
Encoding: 283 9567 166
GlifName: S_F_370000
Width: 512
VWidth: 0
Flags: W
HStem: 256 64<448 512>
VStem: 128 128<-256 768> 320 128<-256 256 320 768>
LayerCount: 2
Fore
SplineSet
320 -256 m 9
 320 768 l 17
 448 768 l 1
 448 320 l 25
 512 320 l 25
 512 256 l 25
 448 256 l 1
 448 -256 l 1
 320 -256 l 9
256 -256 m 1
 128 -256 l 1
 128 768 l 1
 256 768 l 1
 256 -256 l 1
EndSplineSet
Validated: 1
EndChar

StartChar: SF360000
Encoding: 284 9566 167
GlifName: S_F_360000
Width: 512
VWidth: 0
Flags: W
HStem: 256 64<320 512> 384 64<320 512>
VStem: 192 128<-256 256 320 384 448 768>
LayerCount: 2
Fore
SplineSet
192 768 m 1
 320 768 l 1
 320 448 l 1
 512 448 l 1
 512 384 l 1
 320 384 l 1
 320 320 l 1
 512 320 l 1
 512 256 l 1
 320 256 l 1
 320 -256 l 1
 192 -256 l 1
 192 768 l 1
EndSplineSet
Validated: 1
EndChar

StartChar: SF050000
Encoding: 285 9532 168
GlifName: S_F_050000
Width: 512
VWidth: 0
Flags: W
HStem: 256 64<0 192 320 512>
VStem: 192 128<-256 256 320 768>
LayerCount: 2
Fore
SplineSet
192 768 m 1
 320 768 l 1
 320 320 l 1
 512 320 l 1
 512 256 l 1
 320 256 l 1
 320 -256 l 1
 192 -256 l 1
 192 256 l 1
 0 256 l 1
 0 320 l 1
 192 320 l 1
 192 768 l 1
EndSplineSet
Validated: 1
EndChar

StartChar: SF100000
Encoding: 286 9472 169
GlifName: S_F_100000
Width: 512
VWidth: 0
Flags: W
HStem: 256 64<0 512>
LayerCount: 2
Fore
SplineSet
512 320 m 1
 512 256 l 1
 0 256 l 1
 0 320 l 1
 512 320 l 1
EndSplineSet
Validated: 1
EndChar

StartChar: SF080000
Encoding: 287 9500 170
GlifName: S_F_080000
Width: 512
VWidth: 0
Flags: W
HStem: 256 64<320 512>
VStem: 192 128<-256 256 320 768>
LayerCount: 2
Fore
SplineSet
192 768 m 1
 320 768 l 1
 320 320 l 1
 512 320 l 1
 512 256 l 1
 320 256 l 1
 320 -256 l 1
 192 -256 l 1
 192 768 l 1
EndSplineSet
Validated: 1
EndChar

StartChar: SF060000
Encoding: 288 9516 171
GlifName: S_F_060000
Width: 512
VWidth: 0
Flags: W
HStem: 256 64<0 192 320 512>
VStem: 192 128<-256 256>
LayerCount: 2
Fore
SplineSet
512 320 m 1
 512 256 l 1
 320 256 l 1
 320 -256 l 1
 192 -256 l 1
 192 256 l 1
 0 256 l 1
 0 320 l 1
 512 320 l 1
EndSplineSet
Validated: 1
EndChar

StartChar: SF070000
Encoding: 289 9524 172
GlifName: S_F_070000
Width: 512
VWidth: 0
Flags: W
HStem: 256 64<0 192 320 512>
VStem: 192 128<320 768>
LayerCount: 2
Fore
SplineSet
192 768 m 1
 320 768 l 1
 320 320 l 1
 512 320 l 1
 512 256 l 1
 0 256 l 1
 0 320 l 1
 192 320 l 1
 192 768 l 1
EndSplineSet
Validated: 1
EndChar

StartChar: SF020000
Encoding: 290 9492 173
GlifName: S_F_020000
Width: 512
VWidth: 0
Flags: W
HStem: 256 64<320 512>
VStem: 192 128<320 768>
LayerCount: 2
Fore
SplineSet
192 768 m 1
 320 768 l 1
 320 320 l 1
 512 320 l 1
 512 256 l 1
 192 256 l 1
 192 768 l 1
EndSplineSet
Validated: 1
EndChar

StartChar: SF460000
Encoding: 291 9576 174
GlifName: S_F_460000
Width: 512
VWidth: 0
Flags: W
HStem: 256 64<0 128 256 320 448 512>
VStem: 128 128<320 768> 320 128<320 768>
LayerCount: 2
Fore
SplineSet
512 320 m 25
 512 256 l 25
 0 256 l 1
 0 320 l 9
 128 320 l 25
 128 768 l 1
 256 768 l 9
 256 320 l 25
 320 320 l 25
 320 768 l 17
 448 768 l 9
 448 320 l 25
 512 320 l 25
EndSplineSet
Validated: 1
EndChar

StartChar: SF470000
Encoding: 292 9572 175
GlifName: S_F_470000
Width: 512
VWidth: 0
Flags: W
HStem: 256 64<0 192 320 512> 384 64<0 512>
VStem: 192 128<-256 256>
LayerCount: 2
Fore
SplineSet
0 384 m 1
 0 448 l 1
 512 448 l 1
 512 384 l 1
 0 384 l 1
192 -256 m 1
 192 256 l 1
 0 256 l 1
 0 320 l 1
 512 320 l 1
 512 256 l 1
 320 256 l 1
 320 -256 l 1
 192 -256 l 1
EndSplineSet
Validated: 1
EndChar

StartChar: SF480000
Encoding: 293 9573 176
GlifName: S_F_480000
Width: 512
VWidth: 0
Flags: W
HStem: 256 64<0 128 256 320 448 512>
VStem: 128 128<-256 256> 320 128<-256 256>
LayerCount: 2
Fore
SplineSet
512 256 m 25
 448 256 l 1
 448 -256 l 17
 320 -256 l 9
 320 256 l 1
 256 256 l 1
 256 -256 l 17
 128 -256 l 1
 128 256 l 1
 0 256 l 17
 0 320 l 1
 512 320 l 25
 512 256 l 25
EndSplineSet
Validated: 1
EndChar

StartChar: SF490000
Encoding: 294 9561 177
GlifName: S_F_490000
Width: 512
VWidth: 0
Flags: W
HStem: 256 64<256 320 448 512>
VStem: 128 128<320 768> 320 128<320 768>
LayerCount: 2
Fore
SplineSet
256 768 m 1
 256 320 l 25
 320 320 l 1
 320 768 l 1
 448 768 l 1
 448 320 l 1
 512 320 l 1
 512 256 l 1
 128 256 l 1
 128 768 l 1
 256 768 l 1
EndSplineSet
Validated: 1
EndChar

StartChar: SF500000
Encoding: 295 9560 178
GlifName: S_F_500000
Width: 512
VWidth: 0
Flags: W
HStem: 256 64<320 512> 384 64<320 512>
VStem: 192 128<320 384 448 768>
LayerCount: 2
Fore
SplineSet
192 768 m 1
 320 768 l 1
 320 448 l 1
 512 448 l 1
 512 384 l 1
 320 384 l 1
 320 320 l 1
 512 320 l 1
 512 256 l 1
 192 256 l 1
 192 768 l 1
EndSplineSet
Validated: 1
EndChar

StartChar: SF510000
Encoding: 296 9554 179
GlifName: S_F_510000
Width: 512
VWidth: 0
Flags: W
HStem: 256 64<320 512> 384 64<320 512>
VStem: 192 128<-256 256 320 384>
LayerCount: 2
Fore
SplineSet
192 448 m 1
 512 448 l 1
 512 384 l 1
 320 384 l 1
 320 320 l 1
 512 320 l 1
 512 256 l 1
 320 256 l 1
 320 -256 l 1
 192 -256 l 1
 192 448 l 1
EndSplineSet
Validated: 1
EndChar

StartChar: SF520000
Encoding: 297 9555 180
GlifName: S_F_520000
Width: 512
VWidth: 0
Flags: W
HStem: 256 64<256 320 448 512>
VStem: 128 128<-256 256> 320 128<-256 256>
LayerCount: 2
Fore
SplineSet
256 -256 m 1
 128 -256 l 1
 128 320 l 1
 512 320 l 25
 512 256 l 25
 448 256 l 1
 448 -256 l 1
 320 -256 l 1
 320 256 l 25
 256 256 l 1
 256 -256 l 1
EndSplineSet
Validated: 1
EndChar

StartChar: SF530000
Encoding: 298 9579 181
GlifName: S_F_530000
Width: 512
VWidth: 0
Flags: W
HStem: 256 64<0 128 256 320 448 512>
VStem: 128 128<-256 256 320 768> 320 128<-256 256 320 768>
LayerCount: 2
Fore
SplineSet
320 -256 m 1
 320 256 l 25
 256 256 l 25
 256 -256 l 17
 128 -256 l 1
 128 256 l 1
 0 256 l 1
 0 320 l 1
 128 320 l 1
 128 768 l 1
 256 768 l 9
 256 320 l 25
 320 320 l 25
 320 768 l 1
 448 768 l 1
 448 320 l 1
 512 320 l 25
 512 256 l 25
 448 256 l 1
 448 -256 l 1
 320 -256 l 1
EndSplineSet
Validated: 1
EndChar

StartChar: SF540000
Encoding: 299 9578 182
GlifName: S_F_540000
Width: 512
VWidth: 0
Flags: W
HStem: 256 64<0 192 320 512> 384 64<0 192 320 512>
VStem: 192 128<-256 256 320 384 448 768>
LayerCount: 2
Fore
SplineSet
192 768 m 1
 320 768 l 1
 320 448 l 1
 512 448 l 1
 512 384 l 1
 320 384 l 1
 320 320 l 1
 512 320 l 1
 512 256 l 1
 320 256 l 1
 320 -256 l 1
 192 -256 l 1
 192 256 l 1
 0 256 l 1
 0 320 l 1
 192 320 l 1
 192 384 l 1
 0 384 l 1
 0 448 l 1
 192 448 l 1
 192 768 l 1
EndSplineSet
Validated: 1
EndChar

StartChar: SF040000
Encoding: 300 9496 183
GlifName: S_F_040000
Width: 512
VWidth: 0
Flags: W
HStem: 256 64<0 192>
VStem: 192 128<320 768>
LayerCount: 2
Fore
SplineSet
192 768 m 1
 320 768 l 1
 320 256 l 1
 0 256 l 1
 0 320 l 1
 192 320 l 1
 192 768 l 1
EndSplineSet
Validated: 1
EndChar

StartChar: SF010000
Encoding: 301 9484 184
GlifName: S_F_010000
Width: 512
VWidth: 0
Flags: W
HStem: 256 64<320 512>
VStem: 192 128<-256 256>
LayerCount: 2
Fore
SplineSet
512 320 m 1
 512 256 l 1
 320 256 l 1
 320 -256 l 1
 192 -256 l 1
 192 320 l 1
 512 320 l 1
EndSplineSet
Validated: 1
EndChar

StartChar: block
Encoding: 302 9608 185
GlifName: block
Width: 512
VWidth: 0
Flags: W
VStem: 0 512<-256 768>
LayerCount: 2
Fore
SplineSet
0 768 m 1
 512 768 l 1
 512 -256 l 1
 0 -256 l 1
 0 768 l 1
EndSplineSet
Validated: 1
EndChar

StartChar: dnblock
Encoding: 303 9604 186
GlifName: dnblock
Width: 512
VWidth: 0
Flags: W
HStem: -256 576<0 512>
VStem: 0 512<-256 320>
LayerCount: 2
Fore
SplineSet
0 320 m 1
 512 320 l 1
 512 -256 l 1
 0 -256 l 1
 0 320 l 1
EndSplineSet
Validated: 1
EndChar

StartChar: lfblock
Encoding: 304 9612 187
GlifName: lfblock
Width: 512
VWidth: 0
Flags: W
VStem: 0 256<-256 768>
LayerCount: 2
Fore
SplineSet
0 768 m 1
 256 768 l 1
 256 -256 l 1
 0 -256 l 1
 0 768 l 1
EndSplineSet
Validated: 1
EndChar

StartChar: rtblock
Encoding: 305 9616 188
GlifName: rtblock
Width: 512
VWidth: 0
Flags: W
VStem: 256 256<-256 768>
LayerCount: 2
Fore
SplineSet
256 768 m 1
 512 768 l 1
 512 -256 l 1
 256 -256 l 1
 256 768 l 1
EndSplineSet
Validated: 1
EndChar

StartChar: upblock
Encoding: 306 9600 189
GlifName: upblock
Width: 512
VWidth: 0
Flags: W
HStem: 320 448<0 512>
VStem: 0 512<320 768>
LayerCount: 2
Fore
SplineSet
0 320 m 1
 0 768 l 1
 512 768 l 1
 512 320 l 1
 0 320 l 1
EndSplineSet
Validated: 1
EndChar

StartChar: alpha
Encoding: 307 945 190
GlifName: alpha
Width: 512
VWidth: 0
Flags: W
HStem: 0 64<137.573 182.94> 384 64<137.573 182.94>
VStem: 0 128<105.677 342.323> 192 128<192 256>
LayerCount: 2
Fore
SplineSet
0 224 m 0
 0 352 64 448 160 448 c 0
 192 448 256 416 288 384 c 1
 320 448 l 1
 448 448 l 1
 320 256 l 1
 320 192 l 1
 448 0 l 1
 320 0 l 1
 288 64 l 1
 256 32 192 0 160 0 c 0
 64 0 0 96 0 224 c 0
128 224 m 0
 128 128 128 64 160 64 c 0
 192 64 192 128 192 224 c 0
 192 320 192 384 160 384 c 0
 128 384 128 320 128 224 c 0
EndSplineSet
Validated: 1
EndChar

StartChar: germandbls
Encoding: 223 223 191
GlifName: germandbls
Width: 512
VWidth: 0
Flags: W
HStem: 0 21G<0 128 256 392> 576 64<139.285 244.715>
VStem: 0 128<0 563.034> 256 128<389.712 563.034> 320 128<77.981 229.699>
LayerCount: 2
Fore
SplineSet
192 640 m 1xf0
 320 640 384 576 384 480 c 1xf0
 384 480 384 352 320 352 c 1
 320 352 448 256 448 160 c 1xe8
 448 96 384 0 384 0 c 1
 256 0 l 1xf0
 256 0 320 96 320 160 c 1xe8
 320 224 224 352 192 352 c 1
 224 352 256 416 256 480 c 1
 256 544 256 576 192 576 c 1
 128 576 128 544 128 480 c 1
 128 0 l 1
 0 0 l 1
 0 480 l 1
 0 576 64 640 192 640 c 1xf0
EndSplineSet
Validated: 1
EndChar

StartChar: Gamma
Encoding: 308 915 192
GlifName: G_amma
Width: 512
VWidth: 0
Flags: W
HStem: 0 21G<0 128> 448 192<320 448> 576 64<128 320>
VStem: 0 128<0 576> 320 128<448 576>
LayerCount: 2
Fore
SplineSet
0 640 m 25xb8
 448 640 l 25
 448 448 l 25
 320 448 l 25xd8
 320 576 l 25
 128 576 l 25
 128 0 l 25
 0 0 l 25
 0 640 l 25xb8
EndSplineSet
Validated: 1
EndChar

StartChar: pi
Encoding: 309 960 193
GlifName: pi
Width: 512
VWidth: 0
Flags: W
HStem: 0 21G<64 192 256 384> 384 64<0 64 192 256 384 448>
VStem: 64 128<0 384> 256 128<0 384>
LayerCount: 2
Fore
SplineSet
448 448 m 25
 448 384 l 25
 384 384 l 25
 384 0 l 1
 256 0 l 1
 256 384 l 25
 192 384 l 25
 192 0 l 1
 64 0 l 1
 64 384 l 25
 0 384 l 25
 0 448 l 25
 448 448 l 25
EndSplineSet
Validated: 1
EndChar

StartChar: Sigma
Encoding: 310 931 194
GlifName: S_igma
Width: 512
VWidth: 0
Flags: W
HStem: 0 128<352 448> 0 64<96 288> 512 128<352 448> 576 64<96 288>
DStem2: 96 576 0 544 0.707107 -0.707107<0 271.529> 0 96 96 64 0.707107 0.707107<45.2548 316.784>
LayerCount: 2
Fore
SplineSet
448 512 m 1x20
 352 512 l 1x20
 288 576 l 1
 96 576 l 1
 320 352 l 1
 320 288 l 1
 96 64 l 1
 288 64 l 1x50
 352 128 l 1
 448 128 l 1
 448 0 l 25x80
 0 0 l 1
 0 96 l 1
 224 320 l 1
 0 544 l 1
 0 640 l 1x50
 448 640 l 25
 448 512 l 1x20
EndSplineSet
Validated: 1
EndChar

StartChar: sigma
Encoding: 311 963 195
GlifName: sigma
Width: 512
VWidth: 0
Flags: W
HStem: 0 64<137.573 182.427> 384 64<138.101 182.956 288 448>
VStem: 0 128<105.677 342.323> 192 128<105.677 370.808>
LayerCount: 2
Fore
SplineSet
0 224 m 0
 0 352 64 448 160 448 c 0
 192 448 l 1
 448 448 l 1
 448 384 l 1
 288 384 l 1
 320 352 320 288 320 224 c 0
 320 96 256 0 160 0 c 0
 64 0 0 96 0 224 c 0
128 224 m 0
 128 128 128 64 160 64 c 0
 192 64 192 128 192 224 c 0
 192 320 192 384 160 384 c 0
 128 384 128 320 128 224 c 0
EndSplineSet
Validated: 1
EndChar

StartChar: mu
Encoding: 181 181 196
GlifName: mu
Width: 512
VWidth: 0
Flags: W
HStem: -192 64<0 39.3203> 0 64<216.68 295.32> 428 20G<64 192 320 448>
VStem: 64 128<-101.25 0 88.3896 448> 320 128<90.75 448>
LayerCount: 2
Fore
SplineSet
64 448 m 1
 192 448 l 1
 192 192 l 1
 192 96 224 64 256 64 c 1
 288 64 320 96 320 192 c 1
 320 448 l 1
 448 448 l 1
 448 192 l 1
 448 64 384 0 256 0 c 1
 192 0 l 1
 192 -128 128 -192 0 -192 c 9
 0 -128 l 1
 32 -128 64 -96 64 0 c 1
 64 448 l 1
EndSplineSet
Validated: 1
EndChar

StartChar: tau
Encoding: 312 964 197
GlifName: tau
Width: 512
VWidth: 0
Flags: W
HStem: 0 21G<192 320> 448 64<131.727 189.756 390.183 448>
VStem: 192 128<0 380.284>
LayerCount: 2
Fore
SplineSet
0 384 m 1
 0 384 32 512 160 512 c 1
 224 512 288 448 288 448 c 1
 288 448 320 512 448 512 c 1
 448 448 l 1
 384 448 320 352 320 352 c 1
 320 0 l 1
 192 0 l 25
 192 448 l 1
 128 448 96 384 96 384 c 1
 0 384 l 1
EndSplineSet
Validated: 1
EndChar

StartChar: Phi
Encoding: 313 934 198
GlifName: P_hi
Width: 512
VWidth: 0
Flags: W
HStem: 0 64<64 192 320 448> 576 64<64 192 320 448>
VStem: 64 128<228.247 411.753> 192 128<64 139.648 500.352 576> 320 128<228.247 411.753>
LayerCount: 2
Fore
SplineSet
192 320 m 0xe8
 192 256 224 192 256 192 c 0
 288 192 320 256 320 320 c 0
 320 384 288 448 256 448 c 0
 224 448 192 384 192 320 c 0xe8
64 640 m 1
 448 640 l 1
 448 576 l 1xe8
 320 576 l 1
 320 512 l 1xd0
 384 480 448 416 448 320 c 0xc8
 448 224 384 160 320 128 c 1
 320 64 l 1xd0
 448 64 l 1
 448 0 l 1
 64 0 l 1
 64 64 l 1xe8
 192 64 l 1
 192 128 l 1xd0
 128 160 64 224 64 320 c 0xe0
 64 416 128 480 192 512 c 1
 192 576 l 1xd0
 64 576 l 1
 64 640 l 1
EndSplineSet
Validated: 1
EndChar

StartChar: Theta
Encoding: 314 920 199
GlifName: T_heta
Width: 512
VWidth: 0
Flags: W
HStem: 0 64<182.616 265.384> 320 64<128 320> 576 64<182.616 265.384>
VStem: 0 128<174.611 320 384 465.389> 320 128<174.611 320 384 465.389>
LayerCount: 2
Fore
SplineSet
0 320 m 0
 0 512 96 640 224 640 c 0
 352 640 448 512 448 320 c 0
 448 128 352 0 224 0 c 0
 96 0 0 128 0 320 c 0
128 320 m 1
 128 192 160 64 224 64 c 0
 288 64 320 192 320 320 c 1
 128 320 l 1
320 384 m 1
 320 448 288 576 224 576 c 0
 160 576 128 448 128 384 c 1
 320 384 l 1
EndSplineSet
Validated: 1
EndChar

StartChar: uni03A9
Encoding: 315 937 200
GlifName: uni03A_9
Width: 512
VWidth: 0
Flags: W
HStem: 0 64<0 64 384 448> 576 64<170.71 277.29>
VStem: 0 128<318.798 514.997> 64 128<64 283.361> 256 128<64 283.361> 320 128<318.798 514.997>
LayerCount: 2
Fore
SplineSet
384 256 m 1xc8
 384 64 l 25xc8
 448 64 l 25
 448 0 l 25xc4
 256 0 l 25
 256 256 l 1xc8
 288 288 320 352 320 416 c 0
 320 512 288 576 224 576 c 0
 160 576 128 512 128 416 c 0xe4
 128 352 160 288 192 256 c 1
 192 0 l 25xd0
 0 0 l 25
 0 64 l 25xe0
 64 64 l 25
 64 256 l 1xd0
 32 288 0 352 0 416 c 0
 0 544 96 640 224 640 c 0
 352 640 448 544 448 416 c 0xe4
 448 352 416 288 384 256 c 1xc8
EndSplineSet
Validated: 1
EndChar

StartChar: delta
Encoding: 316 948 201
GlifName: delta
Width: 512
VWidth: 0
Flags: W
HStem: 0 64<209.913 302.087> 320 64<211 287.615> 576 64<259.458 448>
VStem: 64 128<85.3799 298.62> 320 128<85.3799 304.064>
LayerCount: 2
Fore
SplineSet
64 192 m 0
 64 320 128 384 256 384 c 0
 288 384 l 1
 256 416 128 512 128 544 c 1
 128 576 224 640 288 640 c 2
 448 640 l 1
 448 576 l 1
 288 576 256 576 256 544 c 1
 448 384 448 288 448 192 c 1
 448 64 384 0 256 0 c 0
 128 0 64 64 64 192 c 0
192 192 m 0
 192 128 192 64 256 64 c 0
 320 64 320 128 320 192 c 0
 320 256 320 320 256 320 c 0
 192 320 192 256 192 192 c 0
EndSplineSet
Validated: 1
EndChar

StartChar: infinity
Encoding: 317 8734 202
GlifName: infinity
Width: 512
VWidth: 0
Flags: W
HStem: 128 64<133.128 187.307 324.693 378.872> 384 64<133.128 187.307 324.693 378.872>
VStem: 0 128<201.052 374.948> 192 128<193.5 382.5> 384 128<201.052 374.948>
CounterMasks: 1 38
LayerCount: 2
Fore
SplineSet
0 288 m 0
 0 384 64 448 160 448 c 0
 192 448 224 448 256 416 c 1
 288 448 320 448 352 448 c 0
 448 448 512 384 512 288 c 0
 512 192 448 128 352 128 c 0
 320 128 288 128 256 160 c 1
 224 128 192 128 160 128 c 0
 64 128 0 192 0 288 c 0
128 288 m 0
 128 224 128 192 160 192 c 0
 192 192 192 224 192 288 c 0
 192 352 192 384 160 384 c 0
 128 384 128 352 128 288 c 0
320 288 m 0
 320 224 320 192 352 192 c 0
 384 192 384 224 384 288 c 0
 384 352 384 384 352 384 c 0
 320 384 320 352 320 288 c 0
EndSplineSet
Validated: 1
EndChar

StartChar: phi
Encoding: 318 966 203
GlifName: phi
Width: 512
VWidth: 0
Flags: W
HStem: 0 21G<0 111> 128 64<256 350.922> 384 64<154.307 224>
VStem: 0 128<236.105 356.565> 384 128<221.861 361.795>
DStem2: 0 32 96 0 0.60745 0.794358<32.8958 159.993 557.733 684.83>
LayerCount: 2
Fore
SplineSet
0 288 m 0
 0 416 64 448 256 448 c 0
 288 448 288 448 320 448 c 1
 416 576 l 1
 512 576 l 1
 512 544 l 1
 416 416 l 1
 480 384 512 352 512 288 c 0
 512 160 448 128 256 128 c 0
 224 128 224 128 192 128 c 1
 96 0 l 1
 0 0 l 1
 0 32 l 1
 96 160 l 1
 32 192 0 224 0 288 c 0
256 192 m 1
 352 192 384 224 384 288 c 0
 384 352 352 384 320 384 c 1
 256 192 l 1
160 224 m 1
 224 384 l 1
 160 384 128 352 128 288 c 0
 128 256 160 224 160 224 c 1
EndSplineSet
Validated: 1
EndChar

StartChar: epsilon
Encoding: 319 949 204
GlifName: epsilon
Width: 512
VWidth: 0
Flags: W
HStem: 0 64<252.243 335.422> 320 64<192 384> 576 64<252.243 335.422>
VStem: 64 128<153.933 320 384 485.25>
LayerCount: 2
Fore
SplineSet
384 64 m 1
 384 64 384 0 288 0 c 0
 128 0 64 128 64 320 c 0
 64 512 128 640 288 640 c 0
 384 640 384 576 384 576 c 1
 384 576 320 576 288 576 c 0
 256 576 192 512 192 384 c 1
 384 384 l 1
 384 320 l 1
 192 320 l 0
 192 192 224 64 288 64 c 0
 320 64 384 64 384 64 c 1
EndSplineSet
Validated: 1
EndChar

StartChar: intersection
Encoding: 320 8745 205
GlifName: intersection
Width: 512
VWidth: 0
Flags: W
HStem: 0 21G<0 128 320 448> 512 64<154.66 293.34>
VStem: 0 128<0 482.654> 320 128<0 482.654>
LayerCount: 2
Fore
SplineSet
224 576 m 1
 352 576 448 544 448 416 c 1
 448 0 l 9
 320 0 l 17
 320 416 l 1
 320 480 288 512 224 512 c 1
 160 512 128 480 128 416 c 1
 128 0 l 9
 0 0 l 17
 0 416 l 1
 0 544 96 576 224 576 c 1
EndSplineSet
Validated: 1
EndChar

StartChar: equivalence
Encoding: 321 8801 206
GlifName: equivalence
Width: 512
VWidth: 0
Flags: W
HStem: 64 64<0 448> 256 64<0 448> 448 64<0 448>
CounterMasks: 1 e0
LayerCount: 2
Fore
SplineSet
0 128 m 1
 448 128 l 1
 448 64 l 1
 0 64 l 1
 0 128 l 1
0 512 m 1
 448 512 l 1
 448 448 l 1
 0 448 l 1
 0 512 l 1
0 320 m 1
 448 320 l 1
 448 256 l 1
 0 256 l 1
 0 320 l 1
EndSplineSet
Validated: 1
EndChar

StartChar: plusminus
Encoding: 177 177 207
GlifName: plusminus
Width: 512
VWidth: 0
Flags: W
HStem: 0 64<64 448> 320 64<64 192 320 448>
VStem: 192 128<192 320 384 512>
LayerCount: 2
Fore
SplineSet
64 64 m 1
 448 64 l 1
 448 0 l 1
 64 0 l 1
 64 64 l 1
64 384 m 25
 192 384 l 25
 192 512 l 25
 320 512 l 25
 320 384 l 25
 448 384 l 25
 448 320 l 25
 320 320 l 25
 320 192 l 25
 192 192 l 25
 192 320 l 25
 64 320 l 25
 64 384 l 25
EndSplineSet
Validated: 1
EndChar

StartChar: greaterequal
Encoding: 322 8805 208
GlifName: greaterequal
Width: 512
VWidth: 0
Flags: W
HStem: 0 64<64 448>
DStem2: 224 576 128 544 0.707107 -0.707107<0 226.274> 128 160 224 128 0.707107 0.707107<45.2548 271.529>
LayerCount: 2
Fore
SplineSet
64 64 m 1
 448 64 l 1
 448 0 l 1
 64 0 l 1
 64 64 l 1
448 352 m 1
 224 128 l 1
 128 128 l 1
 128 160 l 1
 320 352 l 1
 128 544 l 1
 128 576 l 1
 224 576 l 1
 448 352 l 1
EndSplineSet
Validated: 1
EndChar

StartChar: lessequal
Encoding: 323 8804 209
GlifName: lessequal
Width: 512
VWidth: 0
Flags: W
HStem: 0 64<64 448>
DStem2: 192 352 64 352 0.707107 -0.707107<0 226.274> 64 352 192 352 0.707107 0.707107<90.5097 316.784>
LayerCount: 2
Fore
SplineSet
64 64 m 1
 448 64 l 1
 448 0 l 1
 64 0 l 1
 64 64 l 1
64 352 m 1
 288 576 l 1
 384 576 l 1
 384 544 l 1
 192 352 l 1
 384 160 l 1
 384 128 l 1
 288 128 l 1
 64 352 l 1
EndSplineSet
Validated: 1
EndChar

StartChar: integraltp
Encoding: 324 8992 210
GlifName: integraltp
Width: 512
VWidth: 0
Flags: W
HStem: 448 21G<384 512> 576 64<332.875 371.125>
VStem: 192 128<-256 562.24> 384 128<448 562.24>
LayerCount: 2
Fore
SplineSet
384 448 m 17
 384 480 384 576 352 576 c 1
 320 576 320 480 320 448 c 1
 320 -256 l 1
 192 -256 l 1
 192 448 l 1
 192 544 224 640 352 640 c 1
 480 640 512 544 512 448 c 9
 384 448 l 17
EndSplineSet
Validated: 1
EndChar

StartChar: integralbt
Encoding: 325 8993 211
GlifName: integralbt
Width: 512
VWidth: 0
Flags: W
HStem: -64 64<140.875 179.125>
VStem: 0 128<13.7604 192> 192 128<13.7604 768>
LayerCount: 2
Fore
SplineSet
128 128 m 1
 128 96 128 0 160 0 c 1
 192 0 192 96 192 128 c 1
 192 768 l 1
 320 768 l 1
 320 128 l 1
 320 32 288 -64 160 -64 c 1
 32 -64 0 32 0 128 c 1
 0 192 l 1
 128 192 l 1
 128 128 l 1
EndSplineSet
Validated: 1
EndChar

StartChar: divide
Encoding: 247 247 212
GlifName: divide
Width: 512
VWidth: 0
Flags: W
HStem: 128 64<193.438 318.562> 256 64<64 448> 384 64<193.438 318.562>
VStem: 192 128<131.296 188.704 387.296 444.704>
CounterMasks: 1 e0
LayerCount: 2
Fore
SplineSet
192 160 m 0
 192 192 224 192 256 192 c 0
 288 192 320 192 320 160 c 0
 320 128 288 128 256 128 c 0
 224 128 192 128 192 160 c 0
192 416 m 0
 192 448 224 448 256 448 c 0
 288 448 320 448 320 416 c 0
 320 384 288 384 256 384 c 0
 224 384 192 384 192 416 c 0
64 320 m 1
 448 320 l 1
 448 256 l 1
 64 256 l 1
 64 320 l 1
EndSplineSet
Validated: 1
EndChar

StartChar: approxequal
Encoding: 326 8776 213
GlifName: approxequal
Width: 512
VWidth: 0
Flags: W
HStem: 128 64<0 64 252.496 324.229> 192 64<123.771 195.504 384 448> 320 64<0 64 252.496 324.229> 384 64<123.771 195.504 384 448>
LayerCount: 2
Fore
SplineSet
0 128 m 1x80
 0 192 l 1
 64 192 l 1x80
 64 192 64 256 160 256 c 1x40
 288 256 224 192 288 192 c 1x80
 352 192 288 256 448 256 c 1
 448 192 l 1
 384 192 l 1x40
 384 192 384 128 288 128 c 1x80
 160 128 224 192 160 192 c 1x40
 96 192 160 128 0 128 c 1x80
0 320 m 1x20
 0 384 l 1
 64 384 l 1x20
 64 384 64 448 160 448 c 1x10
 288 448 224 384 288 384 c 1x20
 352 384 288 448 448 448 c 1
 448 384 l 1
 384 384 l 1x10
 384 384 384 320 288 320 c 1x20
 160 320 224 384 160 384 c 1x10
 96 384 160 320 0 320 c 1x20
EndSplineSet
Validated: 1
EndChar

StartChar: degree
Encoding: 176 176 214
GlifName: degree
Width: 512
VWidth: 0
Flags: W
HStem: 448 64<196.583 251.417> 640 64<196.583 251.417>
VStem: 64 128<514.349 637.651> 256 128<514.349 637.651>
LayerCount: 2
Fore
SplineSet
192 576 m 0
 192 544 192 512 224 512 c 0
 256 512 256 544 256 576 c 0
 256 608 256 640 224 640 c 0
 192 640 192 608 192 576 c 0
64 576 m 0
 64 640 128 704 224 704 c 0
 320 704 384 640 384 576 c 0
 384 512 320 448 224 448 c 0
 128 448 64 512 64 576 c 0
EndSplineSet
Validated: 1
EndChar

StartChar: uni2219
Encoding: 327 8729 215
GlifName: uni2219
Width: 512
VWidth: 0
Flags: W
HStem: 192 128<209.798 302.202>
VStem: 192 128<209.798 302.202>
LayerCount: 2
Fore
SplineSet
192 256 m 0
 192 288 224 320 256 320 c 0
 288 320 320 288 320 256 c 0
 320 224 288 192 256 192 c 0
 224 192 192 224 192 256 c 0
EndSplineSet
Validated: 1
EndChar

StartChar: periodcentered
Encoding: 183 183 216
GlifName: periodcentered
Width: 512
VWidth: 0
Flags: W
HStem: 256 64<193.438 318.562>
VStem: 192 128<259.296 316.704>
LayerCount: 2
Fore
SplineSet
192 288 m 0
 192 320 224 320 256 320 c 0
 288 320 320 320 320 288 c 0
 320 256 288 256 256 256 c 0
 224 256 192 256 192 288 c 0
EndSplineSet
Validated: 1
EndChar

StartChar: radical
Encoding: 328 8730 217
GlifName: radical
Width: 512
VWidth: 0
Flags: W
HStem: 0 21G<207.333 384> 640 64<384 512>
VStem: 256 128<128 640>
LayerCount: 2
Fore
SplineSet
512 704 m 1
 512 640 l 25
 384 640 l 25
 384 0 l 1
 224 0 l 1
 64 192 l 1
 0 320 l 1
 160 320 l 1
 224 128 l 1
 256 128 l 1
 256 704 l 1
 512 704 l 1
EndSplineSet
Validated: 1
EndChar

StartChar: uni207F
Encoding: 329 8319 218
GlifName: uni207F_
Width: 512
VWidth: 0
Flags: W
HStem: 640 64<260.693 314.872>
VStem: 128 128<320 638.5> 320 128<320 630.356>
LayerCount: 2
Fore
SplineSet
128 640 m 1
 64 672 l 1
 64 704 l 1
 160 704 l 25
 192 640 l 1
 224 672 256 704 288 704 c 0
 384 704 448 640 448 544 c 0
 448 448 448 448 448 320 c 25
 320 320 l 25
 320 448 320 480 320 544 c 0
 320 608 320 640 288 640 c 0
 256 640 256 608 256 544 c 0
 256 480 256 448 256 320 c 25
 128 320 l 25
 128 640 l 1
EndSplineSet
Validated: 1
EndChar

StartChar: uni00B2
Encoding: 178 178 219
GlifName: uni00B_2
Width: 512
VWidth: 0
Flags: W
HStem: 320 64<224 352> 428 20G<396 448> 640 64<210.399 317.445>
VStem: 320 128<572.714 636.602>
DStem2: 192 480 224 384 0.707107 0.707107<-45.2548 179.893>
LayerCount: 2
Fore
SplineSet
64 576 m 1
 64 608 128 704 256 704 c 0
 384 704 448 640 448 608 c 1
 448 576 352 512 320 480 c 1
 224 384 l 1
 352 384 l 1
 416 448 l 1
 448 448 l 1
 448 320 l 1
 64 320 l 1
 64 352 l 1
 192 480 l 1
 224 512 320 576 320 608 c 1
 320 640 288 640 256 640 c 0
 224 640 192 608 192 576 c 1
 64 576 l 1
EndSplineSet
Validated: 1
EndChar

StartChar: filledbox
Encoding: 330 9632 220
GlifName: filledbox
Width: 512
VWidth: 0
Flags: W
HStem: 64 448<64 448>
VStem: 64 384<64 512>
LayerCount: 2
Fore
SplineSet
64 64 m 1
 64 512 l 1
 448 512 l 1
 448 64 l 1
 64 64 l 1
EndSplineSet
Validated: 1
EndChar

StartChar: house
Encoding: 331 8962 221
GlifName: house
Width: 512
VWidth: 0
Flags: W
HStem: 64 64<128 320>
VStem: 0 128<128 288> 320 128<128 288>
DStem2: 0 288 128 288 0.707107 0.707107<90.5097 226.274> 224 512 224 384 0.707107 -0.707107<90.5097 226.274>
LayerCount: 2
Fore
SplineSet
128 128 m 25
 320 128 l 25
 320 288 l 25
 224 384 l 25
 128 288 l 25
 128 128 l 25
0 64 m 25
 0 288 l 25
 224 512 l 25
 448 288 l 25
 448 64 l 25
 0 64 l 25
EndSplineSet
Validated: 1
EndChar

StartChar: smileface
Encoding: 332 9786 222
GlifName: smileface
Width: 512
VWidth: 0
Flags: W
HStem: 0 64<97.7695 414.23> 192 128<226.244 285.756> 448 64<128.062 191.938 320.062 383.938> 576 64<97.7695 414.23>
VStem: 0 64<98.6928 541.307> 128 64<448.062 511.938> 320 64<448.062 511.938> 448 64<98.6928 541.307>
LayerCount: 2
Fore
SplineSet
128 320 m 0
 384 320 l 0
 384 288 320 192 256 192 c 0
 192 192 128 288 128 320 c 0
320 480 m 0
 320 512 320 512 352 512 c 0
 384 512 384 512 384 480 c 0
 384 448 384 448 352 448 c 0
 320 448 320 448 320 480 c 0
128 480 m 0
 128 512 128 512 160 512 c 0
 192 512 192 512 192 480 c 0
 192 448 192 448 160 448 c 0
 128 448 128 448 128 480 c 0
64 320 m 0
 64 64 64 64 256 64 c 0
 448 64 448 64 448 320 c 0
 448 576 448 576 256 576 c 0
 64 576 64 576 64 320 c 0
0 320 m 0
 0 608 32 640 256 640 c 0
 480 640 512 608 512 320 c 0
 512 32 480 0 256 0 c 0
 32 0 0 32 0 320 c 0
EndSplineSet
Validated: 1
EndChar

StartChar: invsmileface
Encoding: 333 9787 223
GlifName: invsmileface
Width: 512
VWidth: 0
Flags: W
HStem: 0 192<203.807 308.193> 320 128<128.062 191.938 320.062 383.938> 512 128<128.072 383.928>
VStem: 0 128<268.945 320 358.504 509.585> 192 128<448.062 511.938> 384 128<268.945 320 358.504 509.585>
CounterMasks: 1 1c
LayerCount: 2
Fore
SplineSet
128 320 m 0
 128 288 192 192 256 192 c 0
 320 192 384 288 384 320 c 0
 128 320 l 0
320 480 m 0
 320 448 320 448 352 448 c 0
 384 448 384 448 384 480 c 0
 384 512 384 512 352 512 c 0
 320 512 320 512 320 480 c 0
128 480 m 0
 128 448 128 448 160 448 c 0
 192 448 192 448 192 480 c 0
 192 512 192 512 160 512 c 0
 128 512 128 512 128 480 c 0
0 320 m 0
 0 608 32 640 256 640 c 0
 480 640 512 608 512 320 c 0
 512 32 480 0 256 0 c 0
 32 0 0 32 0 320 c 0
EndSplineSet
Validated: 1
EndChar

StartChar: heart
Encoding: 334 9829 224
GlifName: heart
Width: 512
VWidth: 0
Flags: W
HStem: 0 21G<208 240>
LayerCount: 2
Fore
SplineSet
0 352 m 1
 0 384 32 512 128 512 c 1
 224 512 224 416 224 416 c 1
 224 416 224 512 320 512 c 1
 416 512 448 384 448 352 c 1
 448 128 256 64 224 0 c 1
 192 64 0 128 0 352 c 1
EndSplineSet
Validated: 1
EndChar

StartChar: diamond
Encoding: 335 9830 225
GlifName: diamond
Width: 512
VWidth: 0
Flags: W
LayerCount: 2
Fore
SplineSet
224 512 m 1
 448 288 l 25
 224 64 l 1
 0 288 l 25
 224 512 l 1
EndSplineSet
Validated: 1
EndChar

StartChar: club
Encoding: 336 9827 226
GlifName: club
Width: 512
VWidth: 0
Flags: W
HStem: 0 192<192 320> 0 64<160 192 320 352> 192 192<25.5234 166.477 345.523 486.477> 384 192<189.97 322.03>
VStem: 0 192<217.523 358.477> 192 128<64 192> 320 192<217.523 358.477>
LayerCount: 2
Fore
SplineSet
128 448 m 0x10
 128 512 192 576 256 576 c 0
 320 576 384 512 384 448 c 0
 384 416 320 384 256 384 c 0
 192 384 128 416 128 448 c 0x10
320 288 m 0x22
 320 352 352 384 416 384 c 0
 480 384 512 352 512 288 c 0
 512 224 480 192 416 192 c 0
 352 192 320 224 320 288 c 0x22
0 288 m 0x28
 0 352 32 384 96 384 c 0
 160 384 192 352 192 288 c 0
 192 224 160 192 96 192 c 0
 32 192 0 224 0 288 c 0x28
128 32 m 25
 160 64 l 25
 192 64 l 25x44
 192 192 l 25
 320 192 l 25x84
 320 64 l 25
 352 64 l 25
 384 32 l 25
 384 0 l 25
 128 0 l 25x44
 128 32 l 25
EndSplineSet
Validated: 1
EndChar

StartChar: spade
Encoding: 337 9824 227
GlifName: spade
Width: 512
VWidth: 0
Flags: W
HStem: 0 64<160 192 320 352>
VStem: 0 512<239.461 344.546> 192 128<64 224>
LayerCount: 2
Fore
SplineSet
512 288 m 0xc0
 512 224 416 192 384 192 c 1
 352 192 320 224 320 224 c 1
 320 64 l 1
 352 64 l 25
 384 32 l 25
 384 0 l 25
 128 0 l 25
 128 32 l 25
 160 64 l 25
 192 64 l 1
 192 224 l 0xa0
 192 224 160 192 128 192 c 0
 96 192 0 224 0 288 c 0
 0 384 256 576 256 576 c 1
 256 576 512 384 512 288 c 0xc0
EndSplineSet
Validated: 1
EndChar

StartChar: bullet
Encoding: 338 8226 228
GlifName: bullet
Width: 512
VWidth: 0
Flags: W
HStem: 128 256<189.97 322.03>
VStem: 128 256<189.97 322.03>
LayerCount: 2
Fore
SplineSet
128 256 m 0
 128 320 192 384 256 384 c 0
 320 384 384 320 384 256 c 0
 384 192 320 128 256 128 c 0
 192 128 128 192 128 256 c 0
EndSplineSet
Validated: 1
EndChar

StartChar: invbullet
Encoding: 339 9688 229
GlifName: invbullet
Width: 512
VWidth: 0
Flags: W
HStem: -256 384<189.97 322.03> 384 384<189.97 322.03>
VStem: 0 128<189.97 322.03> 384 128<189.97 322.03>
LayerCount: 2
Fore
SplineSet
0 768 m 1
 512 768 l 1
 512 -256 l 1
 0 -256 l 1
 0 768 l 1
128 256 m 0
 128 192 192 128 256 128 c 0
 320 128 384 192 384 256 c 0
 384 320 320 384 256 384 c 0
 192 384 128 320 128 256 c 0
EndSplineSet
Validated: 1
EndChar

StartChar: circle
Encoding: 340 9675 230
GlifName: circle
Width: 512
VWidth: 0
Flags: W
HStem: 64 64<190.36 321.64> 384 64<190.36 321.64>
VStem: 64 64<190.36 321.64> 384 64<190.36 321.64>
LayerCount: 2
Fore
SplineSet
64 256 m 0
 64 384 128 448 256 448 c 0
 384 448 448 384 448 256 c 0
 448 128 384 64 256 64 c 0
 128 64 64 128 64 256 c 0
128 256 m 0
 128 192 192 128 256 128 c 0
 320 128 384 192 384 256 c 0
 384 320 320 384 256 384 c 0
 192 384 128 320 128 256 c 0
EndSplineSet
Validated: 1
EndChar

StartChar: invcircle
Encoding: 341 9689 231
GlifName: invcircle
Width: 512
VWidth: 0
Flags: W
HStem: -256 320<150.672 361.328> 128 256<189.97 322.03> 448 320<150.672 361.328>
VStem: 0 64<150.672 361.328> 448 64<150.672 361.328>
CounterMasks: 1 e0
LayerCount: 2
Fore
SplineSet
0 768 m 1
 512 768 l 1
 512 -256 l 1
 0 -256 l 1
 0 768 l 1
64 256 m 0
 64 128 128 64 256 64 c 0
 384 64 448 128 448 256 c 0
 448 384 384 448 256 448 c 0
 128 448 64 384 64 256 c 0
128 256 m 0
 128 320 192 384 256 384 c 0
 320 384 384 320 384 256 c 0
 384 192 320 128 256 128 c 0
 192 128 128 192 128 256 c 0
EndSplineSet
Validated: 1
EndChar

StartChar: male
Encoding: 342 9794 232
GlifName: male
Width: 512
VWidth: 0
Flags: W
HStem: 0 64<136.043 247.957> 320 64<224 245.899> 576 64<192 288>
VStem: 0 96<107.137 276.863> 288 96<107.137 276.863> 384 64<384 544>
DStem2: 96 384 224 384 0.707107 0.707107<90.5097 271.529>
LayerCount: 2
Fore
SplineSet
96 192 m 0xf8
 96 128 128 64 192 64 c 0
 256 64 288 128 288 192 c 0
 288 256 256 320 192 320 c 0
 128 320 96 256 96 192 c 0xf8
448 640 m 1xf4
 448 384 l 1
 384 384 l 1
 384 544 l 1xf4
 224 384 l 1
 320 384 384 320 384 192 c 0
 384 64 320 0 192 0 c 0
 64 0 0 64 0 192 c 0
 0 320 96 384 96 384 c 1
 288 576 l 1xf8
 192 576 l 1
 192 640 l 1
 448 640 l 1xf4
EndSplineSet
Validated: 1
EndChar

StartChar: female
Encoding: 343 9792 233
GlifName: female
Width: 512
VWidth: 0
Flags: W
HStem: 0 21G<192 320> 128 64<64 192 320 448> 576 64<200.043 311.957>
VStem: 64 96<363.397 532.863> 192 128<0 128 192 266.626> 352 96<363.397 532.863>
CounterMasks: 1 1c
LayerCount: 2
Fore
SplineSet
64 448 m 0
 64 576 128 640 256 640 c 0
 384 640 448 576 448 448 c 0
 448 320 384 288 320 256 c 1
 320 192 l 1
 448 192 l 1
 448 128 l 1
 320 128 l 1
 320 0 l 1
 192 0 l 1
 192 128 l 1
 64 128 l 1
 64 192 l 1
 192 192 l 1
 192 256 l 1
 128 288 64 320 64 448 c 0
160 448 m 0
 160 384 192 320 256 320 c 0
 320 320 352 384 352 448 c 0
 352 512 320 576 256 576 c 0
 192 576 160 512 160 448 c 0
EndSplineSet
Validated: 1
EndChar

StartChar: musicalnote
Encoding: 344 9834 234
GlifName: musicalnote
Width: 512
VWidth: 0
Flags: W
HStem: 0 192<61.9705 128> 448 64<256 384> 576 64<256 384>
VStem: 128 128<192 448 512 576> 384 128<512 576>
LayerCount: 2
Fore
SplineSet
256 576 m 1
 256 512 l 1
 384 512 l 1
 384 576 l 1
 256 576 l 1
128 640 m 1
 512 640 l 1
 512 448 l 1
 256 448 l 1
 256 128 l 1
 256 64 192 0 128 0 c 1
 0 0 0 32 0 64 c 1
 0 128 64 192 128 192 c 1
 128 448 l 1
 128 640 l 1
EndSplineSet
Validated: 1
EndChar

StartChar: musicalnotedbl
Encoding: 345 9835 235
GlifName: musicalnotedbl
Width: 512
VWidth: 0
Flags: W
HStem: 0 21G<368 448> 448 64<192 384> 576 64<192 384>
VStem: 64 128<134.518 448 512 576> 384 128<198.518 448 512 576>
LayerCount: 2
Fore
SplineSet
192 576 m 1
 192 512 l 1
 384 512 l 1
 384 576 l 1
 192 576 l 1
64 640 m 1
 512 640 l 1
 512 448 l 1
 512 160 l 1
 512 160 480 0 416 0 c 1
 320 0 320 32 320 96 c 1
 320 160 384 224 384 224 c 1
 384 448 l 1
 192 448 l 1
 192 96 l 1
 192 96 160 -64 96 -64 c 1
 0 -64 0 -32 0 32 c 1
 0 96 64 160 64 160 c 1
 64 448 l 1
 64 640 l 1
EndSplineSet
Validated: 1
EndChar

StartChar: sun
Encoding: 346 9788 236
GlifName: sun
Width: 512
VWidth: 0
Flags: W
HStem: 0 21G<192 320> 256 64<0 128 384 512> 428 20G<0 126 386 512>
VStem: 192 128<0 192 384 576>
LayerCount: 2
Fore
SplineSet
320 384 m 1
 416 448 l 25
 512 448 l 1
 512 416 l 25
 352 352 l 25
 384 320 l 1
 512 320 l 1
 512 256 l 1
 384 256 l 1
 352 224 l 1
 512 160 l 1
 512 128 l 1
 416 128 l 1
 320 192 l 1
 320 0 l 1
 192 0 l 1
 192 192 l 1
 96 128 l 25
 0 128 l 1
 0 160 l 25
 160 224 l 25
 128 256 l 1
 0 256 l 1
 0 320 l 1
 128 320 l 1
 160 352 l 25
 0 416 l 25
 0 448 l 1
 96 448 l 25
 192 384 l 1
 192 576 l 1
 320 576 l 1
 320 384 l 1
192 288 m 0
 192 256 224 256 256 256 c 0
 288 256 320 256 320 288 c 0
 320 320 288 320 256 320 c 0
 224 320 192 320 192 288 c 0
EndSplineSet
Validated: 1
EndChar

StartChar: triagrt
Encoding: 347 9658 237
GlifName: triagrt
Width: 512
VWidth: 0
Flags: W
HStem: 0 21G<0 52> 320 64<352 448>
LayerCount: 2
Fore
SplineSet
0 704 m 1
 32 704 l 1
 352 384 l 1
 448 384 l 1
 448 320 l 1
 352 320 l 1
 32 0 l 1
 0 0 l 1
 0 704 l 1
EndSplineSet
Validated: 1
EndChar

StartChar: triaglf
Encoding: 348 9668 238
GlifName: triaglf
Width: 512
VWidth: 0
Flags: W
HStem: 0 21G<396 448> 320 64<0 96>
LayerCount: 2
Fore
SplineSet
448 704 m 1
 448 0 l 1
 416 0 l 1
 96 320 l 1
 0 320 l 1
 0 384 l 1
 96 384 l 1
 416 704 l 1
 448 704 l 1
EndSplineSet
Validated: 1
EndChar

StartChar: arrowupdn
Encoding: 349 8597 239
GlifName: arrowupdn
Width: 512
VWidth: 0
Flags: W
HStem: 620 20G<204 308>
VStem: 192 128<256 448>
LayerCount: 2
Fore
SplineSet
224 640 m 25
 288 640 l 25
 448 480 l 25
 448 448 l 25
 320 448 l 25
 320 256 l 25
 448 256 l 25
 448 224 l 25
 288 64 l 25
 224 64 l 25
 64 224 l 25
 64 256 l 25
 192 256 l 25
 192 448 l 25
 64 448 l 25
 64 480 l 25
 224 640 l 25
EndSplineSet
Validated: 1
EndChar

StartChar: exclamdbl
Encoding: 350 8252 240
GlifName: exclamdbl
Width: 512
VWidth: 0
Flags: W
HStem: 0 128<81.7979 174.202 337.798 430.202> 620 20G<112 144 368 400>
VStem: 64 128<17.7979 110.202 237.483 594.517> 320 128<17.7979 110.202 237.483 594.517>
LayerCount: 2
Fore
SplineSet
320 416 m 0
 320 576 352 640 384 640 c 0
 416 640 448 576 448 416 c 0
 448 256 416 192 384 192 c 0
 352 192 320 256 320 416 c 0
320 64 m 0
 320 96 352 128 384 128 c 0
 416 128 448 96 448 64 c 0
 448 32 416 0 384 0 c 0
 352 0 320 32 320 64 c 0
64 416 m 0
 64 576 96 640 128 640 c 0
 160 640 192 576 192 416 c 0
 192 256 160 192 128 192 c 0
 96 192 64 256 64 416 c 0
64 64 m 0
 64 96 96 128 128 128 c 0
 160 128 192 96 192 64 c 0
 192 32 160 0 128 0 c 0
 96 0 64 32 64 64 c 0
EndSplineSet
Validated: 1
EndChar

StartChar: paragraph
Encoding: 182 182 241
GlifName: paragraph
Width: 512
VWidth: 0
Flags: W
HStem: 0 21G<192 320 384 512> 320 64<138.398 192> 576 64<138.398 192 320 384>
VStem: 0 128<388.783 571.217> 192 128<0 320 384 576> 384 128<0 576>
CounterMasks: 1 1c
LayerCount: 2
Fore
SplineSet
192 576 m 1
 160 576 l 2
 128 576 128 480 128 480 c 1
 128 480 128 384 160 384 c 2
 192 384 l 1
 192 576 l 1
512 0 m 1
 384 0 l 1
 384 576 l 1
 320 576 l 1
 320 0 l 1
 192 0 l 1
 192 320 l 1
 96 320 l 2
 0 320 0 480 0 480 c 1
 0 480 0 640 96 640 c 2
 512 640 l 1
 512 0 l 1
EndSplineSet
Validated: 1
EndChar

StartChar: section
Encoding: 167 167 242
GlifName: section
Width: 512
VWidth: 0
Flags: W
HStem: -64 64<138.209 317.891> 128 64<182.047 266.443> 448 64<181.557 265.953> 640 64<130.109 309.791>
VStem: 0 128<14.8115 64 252.555 388.876 572.751 637.296> 320 128<2.70367 67.2487 251.124 387.445 576 625.188>
LayerCount: 2
Fore
SplineSet
448 32 m 0
 448 0 416 -64 224 -64 c 0
 32 -64 0 32 0 64 c 1
 128 64 l 1
 128 32 128 0 224 0 c 3
 320 0 320 0 320 32 c 0
 320 64 256 128 224 128 c 1
 128 128 0 224 0 320 c 1
 0 416 128 480 128 480 c 1
 128 480 0 576 0 608 c 0
 0 640 32 704 224 704 c 0
 416 704 448 608 448 576 c 1
 320 576 l 1
 320 608 320 640 224 640 c 3
 128 640 128 640 128 608 c 0
 128 576 192 512 224 512 c 3
 320 512 448 416 448 320 c 3
 448 224 320 160 320 160 c 1
 320 160 448 64 448 32 c 0
224 448 m 3
 192 448 128 384 128 320 c 1
 128 256 192 192 224 192 c 3
 256 192 320 256 320 320 c 0
 320 384 256 448 224 448 c 3
EndSplineSet
Validated: 1
EndChar

StartChar: filledrect
Encoding: 351 9644 243
GlifName: filledrect
Width: 512
VWidth: 0
Flags: W
HStem: 0 256<0 448>
LayerCount: 2
Fore
SplineSet
0 0 m 1
 0 256 l 1
 448 256 l 1
 448 0 l 1
 0 0 l 1
EndSplineSet
Validated: 1
EndChar

StartChar: arrowupdnbse
Encoding: 352 8616 244
GlifName: arrowupdnbse
Width: 512
VWidth: 0
Flags: W
HStem: 0 64<64 224 288 448> 620 20G<204 308>
VStem: 192 128<256 448>
LayerCount: 2
Fore
SplineSet
224 640 m 25
 288 640 l 25
 448 480 l 25
 448 448 l 25
 320 448 l 25
 320 256 l 25
 448 256 l 25
 448 224 l 25
 288 64 l 17
 448 64 l 1
 448 0 l 1
 64 0 l 1
 64 64 l 1
 224 64 l 9
 64 224 l 25
 64 256 l 25
 192 256 l 25
 192 448 l 25
 64 448 l 25
 64 480 l 25
 224 640 l 25
EndSplineSet
Validated: 1
EndChar

StartChar: arrowup
Encoding: 353 8593 245
GlifName: arrowup
Width: 512
VWidth: 0
Flags: W
HStem: 0 21G<192 320> 620 20G<204 308>
VStem: 192 128<0 448>
LayerCount: 2
Fore
SplineSet
224 640 m 25
 288 640 l 25
 448 480 l 25
 448 448 l 25
 320 448 l 17
 320 0 l 1
 192 0 l 1
 192 448 l 9
 64 448 l 25
 64 480 l 25
 224 640 l 25
EndSplineSet
Validated: 1
EndChar

StartChar: arrowdown
Encoding: 354 8595 246
GlifName: arrowdown
Width: 512
VWidth: 0
Flags: W
HStem: 0 21G<204 308> 620 20G<192 320>
VStem: 192 128<192 640>
LayerCount: 2
Fore
SplineSet
224 0 m 25
 64 160 l 25
 64 192 l 25
 192 192 l 17
 192 640 l 1
 320 640 l 1
 320 192 l 9
 448 192 l 25
 448 160 l 25
 288 0 l 25
 224 0 l 25
EndSplineSet
Validated: 1
EndChar

StartChar: arrowright
Encoding: 355 8594 247
GlifName: arrowright
Width: 512
VWidth: 0
Flags: W
HStem: 256 64<0 288> 428 20G<192 308>
LayerCount: 2
Fore
SplineSet
192 448 m 1
 288 448 l 1
 448 288 l 1
 288 128 l 1
 192 128 l 1
 192 160 l 1
 288 256 l 1
 0 256 l 1
 0 320 l 1
 288 320 l 1
 192 416 l 1
 192 448 l 1
EndSplineSet
Validated: 1
EndChar

StartChar: arrowleft
Encoding: 356 8592 248
GlifName: arrowleft
Width: 512
VWidth: 0
Flags: W
HStem: 256 64<160 448> 428 20G<140 256>
LayerCount: 2
Fore
SplineSet
256 448 m 1
 256 416 l 1
 160 320 l 1
 448 320 l 1
 448 256 l 1
 160 256 l 1
 256 160 l 1
 256 128 l 1
 160 128 l 1
 0 288 l 1
 160 448 l 1
 256 448 l 1
EndSplineSet
Validated: 1
EndChar

StartChar: orthogonal
Encoding: 357 8735 249
GlifName: orthogonal
Width: 512
VWidth: 0
Flags: W
HStem: 128 64<128 448>
VStem: 0 128<192 384>
LayerCount: 2
Fore
SplineSet
0 384 m 25
 128 384 l 25
 128 192 l 25
 448 192 l 25
 448 128 l 25
 0 128 l 25
 0 384 l 25
EndSplineSet
Validated: 1
EndChar

StartChar: arrowboth
Encoding: 358 8596 250
GlifName: arrowboth
Width: 512
VWidth: 0
Flags: W
HStem: 256 64<192 256> 428 20G<140 192 256 308>
LayerCount: 2
Fore
SplineSet
0 288 m 25
 160 448 l 25
 192 448 l 25
 192 320 l 1
 256 320 l 25
 256 448 l 1
 288 448 l 25
 448 288 l 1
 288 128 l 25
 256 128 l 25
 256 256 l 25
 192 256 l 1
 192 128 l 25
 160 128 l 25
 0 288 l 25
EndSplineSet
Validated: 1
EndChar

StartChar: triagup
Encoding: 359 9650 251
GlifName: triagup
Width: 512
VWidth: 0
Flags: W
LayerCount: 2
Fore
SplineSet
192 512 m 1
 256 512 l 1
 448 96 l 1
 448 64 l 1
 0 64 l 1
 0 96 l 1
 192 512 l 1
EndSplineSet
Validated: 1
EndChar

StartChar: triagdn
Encoding: 360 9660 252
GlifName: triagdn
Width: 512
VWidth: 0
Flags: W
LayerCount: 2
Fore
SplineSet
192 64 m 1
 0 480 l 1
 0 512 l 1
 448 512 l 1
 448 480 l 1
 256 64 l 1
 192 64 l 1
EndSplineSet
Validated: 1
EndChar

StartChar: threequarters
Encoding: 190 190 254
GlifName: threequarters
Width: 512
VWidth: 0
Flags: W
HStem: 0 64<288 320 448 512> 384 64<0 154.438> 512 64<64 155.875> 640 64<0 154.438>
VStem: 160 96<461.326 501.133 586.867 626.674> 320 128<-128 0> 384 64<64 160>
DStem2: 0 160 32 64 0.707107 0.707107<0 543.058> 128 32 288 64 0.707107 0.707107<135.765 271.529>
LayerCount: 2
Fore
SplineSet
0 704 m 1xf8
 128 704 l 17
 192 704 256 640 256 608 c 1
 256 576 192 544 192 544 c 1
 192 544 256 512 256 480 c 1
 256 448 192 384 128 384 c 9
 0 384 l 1
 0 448 l 1
 32 448 160 448 160 480 c 1
 160 512 64 512 64 512 c 1
 64 576 l 1
 64 576 160 576 160 608 c 1
 160 640 32 640 0 640 c 1
 0 704 l 1xf8
384 64 m 25xfa
 384 160 l 25
 288 64 l 25
 384 64 l 25xfa
448 256 m 25
 448 64 l 25xfa
 512 64 l 25
 512 0 l 25
 448 0 l 25
 448 -128 l 25
 320 -128 l 25
 320 0 l 25xfc
 128 0 l 25
 128 32 l 25
 352 256 l 25
 448 256 l 25
0 160 m 25
 416 576 l 25
 448 576 l 25
 448 480 l 25
 32 64 l 25
 0 64 l 25
 0 160 l 25
EndSplineSet
Validated: 1
EndChar

StartChar: Aacute
Encoding: 193 193 255
GlifName: A_acute
Width: 512
VWidth: 0
Flags: W
HStem: 0 21G<0 128 320 448> 256 64<128 320> 620 20G<204 244> 640 21G<0 116>
VStem: 0 128<0 256 320 416> 320 128<0 256 320 416>
DStem2: 0 416 128 416 0.707107 0.707107<90.5097 226.274> 224 640 224 512 0.707107 -0.707107<90.5097 226.274>
LayerCount: 2
Fore
SplineSet
192 768 m 1xdc
 192 736 l 25
 96 640 l 25
 0 640 l 1
 64 768 l 25
 192 768 l 1xdc
320 256 m 1
 128 256 l 1
 128 0 l 1
 0 0 l 1
 0 416 l 1
 224 640 l 1xec
 448 416 l 1
 448 0 l 1
 320 0 l 1
 320 256 l 1
128 416 m 1
 128 320 l 1
 320 320 l 1
 320 416 l 1
 224 512 l 1
 128 416 l 1
EndSplineSet
Validated: 1
EndChar

StartChar: Acircumflex
Encoding: 194 194 256
GlifName: A_circumflex
Width: 512
VWidth: 0
Flags: W
HStem: 0 21G<0 128 320 448> 256 64<128 320> 620 20G<204 244> 640 21G<0 116 332 448> 704 64<160 288>
VStem: 0 128<0 256 320 416> 320 128<0 256 320 416>
DStem2: 0 416 128 416 0.707107 0.707107<90.5097 226.274> 224 640 224 512 0.707107 -0.707107<90.5097 226.274>
LayerCount: 2
Fore
SplineSet
0 640 m 25xde
 96 768 l 25
 352 768 l 25
 448 640 l 25
 352 640 l 25
 288 704 l 25
 160 704 l 25
 96 640 l 25
 0 640 l 25xde
320 256 m 1
 128 256 l 1
 128 0 l 1
 0 0 l 1
 0 416 l 1
 224 640 l 1xee
 448 416 l 1
 448 0 l 1
 320 0 l 1
 320 256 l 1
128 416 m 1
 128 320 l 1
 320 320 l 1
 320 416 l 1
 224 512 l 1
 128 416 l 1
EndSplineSet
Validated: 1
EndChar

StartChar: Agrave
Encoding: 192 192 257
GlifName: A_grave
Width: 512
VWidth: 0
Flags: W
HStem: 0 21G<0 128 320 448> 256 64<128 320> 620 20G<204 244> 640 21G<332 448>
VStem: 0 128<0 256 320 416> 320 128<0 256 320 416>
DStem2: 0 416 128 416 0.707107 0.707107<90.5097 226.274> 224 640 224 512 0.707107 -0.707107<90.5097 226.274>
LayerCount: 2
Fore
SplineSet
448 640 m 1xdc
 352 640 l 25
 256 736 l 25
 256 768 l 1
 384 768 l 25
 448 640 l 1xdc
320 256 m 1
 128 256 l 1
 128 0 l 1
 0 0 l 1
 0 416 l 1
 224 640 l 1xec
 448 416 l 1
 448 0 l 1
 320 0 l 1
 320 256 l 1
128 416 m 1
 128 320 l 1
 320 320 l 1
 320 416 l 1
 224 512 l 1
 128 416 l 1
EndSplineSet
Validated: 1
EndChar

StartChar: Atilde
Encoding: 195 195 258
GlifName: A_tilde
Width: 512
VWidth: 0
Flags: W
HStem: 0 21G<0 128 320 448> 256 64<128 320> 640 64<0 64 252.496 324.229> 704 64<123.771 195.504 384 448>
VStem: 0 128<0 256 320 416> 320 128<0 256 320 416>
DStem2: 0 416 128 416 0.707107 0.707107<90.5097 226.274> 288 576 224 512 0.707107 -0.707107<0 135.765>
LayerCount: 2
Fore
SplineSet
0 640 m 1xec
 0 704 l 1
 64 704 l 1xec
 64 704 64 768 160 768 c 1xdc
 288 768 224 704 288 704 c 1xec
 352 704 288 768 448 768 c 1
 448 704 l 1
 384 704 l 1xdc
 384 704 384 640 288 640 c 1xec
 160 640 224 704 160 704 c 1xdc
 96 704 160 640 0 640 c 1xec
320 256 m 1
 128 256 l 1
 128 0 l 1
 0 0 l 1
 0 416 l 1
 160 576 l 1
 288 576 l 1
 448 416 l 1
 448 0 l 1
 320 0 l 1
 320 256 l 1
128 416 m 1
 128 320 l 1
 320 320 l 1
 320 416 l 1
 224 512 l 1
 128 416 l 1
EndSplineSet
Validated: 1
EndChar

StartChar: atilde
Encoding: 227 227 259
GlifName: atilde
Width: 512
VWidth: 0
Flags: W
HStem: 0 64<150.452 234.432> 256 64<151.767 234.863> 384 64<64 209.578> 512 64<0 64 252.496 324.229> 576 64<123.771 195.504 384 448>
VStem: 0 128<86.1997 233.8> 256 128<85.0938 227.883>
LayerCount: 2
Fore
SplineSet
128 160 m 0xe6
 128 96 160 64 192 64 c 0
 224 64 256 96 256 160 c 0
 256 224 224 256 192 256 c 0
 160 256 128 224 128 160 c 0xe6
288 64 m 1
 288 64 256 0 192 0 c 0
 96 0 0 64 0 160 c 0
 0 256 96 320 192 320 c 0
 224 320 256 320 256 320 c 1
 256 320 256 384 64 384 c 1
 64 448 64 448 64 448 c 1
 192 448 l 3
 320 448 384 384 384 160 c 0
 384 128 384 96 384 64 c 17
 448 32 l 1
 448 0 l 1
 352 0 l 1
 288 64 l 1
0 512 m 1xf6
 0 576 l 1
 64 576 l 1xf6
 64 576 64 640 160 640 c 1xee
 288 640 224 576 288 576 c 1xf6
 352 576 288 640 448 640 c 1
 448 576 l 1
 384 576 l 1xee
 384 576 384 512 288 512 c 1xf6
 160 512 224 576 160 576 c 1xee
 96 576 160 512 0 512 c 1xf6
EndSplineSet
Validated: 1
EndChar

StartChar: eth
Encoding: 240 240 260
GlifName: eth
Width: 512
VWidth: 0
Flags: W
HStem: 0 64<216.488 302.133> 320 64<216.68 314.046> 448 21G<128 180> 620 20G<128 176 332 384>
VStem: 64 128<89.5698 294.43> 320 128<84.9316 371.763 384 426.874>
DStem2: 128 480 160 448 0.707107 0.707107<0 90.5097> 288 576 320 544 0.707107 0.707107<0 90.5097>
LayerCount: 2
Fore
SplineSet
192 192 m 0
 192 96 224 64 256 64 c 0
 288 64 320 64 320 192 c 0
 320 320 320 320 256 320 c 0
 224 320 192 288 192 192 c 0
448 192 m 0
 448 64 384 0 256 0 c 0
 128 0 64 64 64 192 c 0
 64 320 128 384 256 384 c 0
 288 384 320 384 320 384 c 1
 320 416 256 480 224 512 c 1
 160 448 l 1
 128 448 l 1
 128 480 l 1
 192 544 l 1
 128 608 l 1
 128 640 l 1
 224 640 256 608 288 576 c 1
 352 640 l 1
 384 640 l 1
 384 608 l 1
 320 544 l 1
 448 416 448 448 448 192 c 0
EndSplineSet
Validated: 1
EndChar

StartChar: Eth
Encoding: 208 208 261
GlifName: E_th
Width: 512
VWidth: 0
Flags: W
HStem: 0 64<192 274.625> 320 64<0 64 192 256> 576 64<192 274.625>
VStem: 64 128<64 320 384 576> 320 128<181.428 458.572>
LayerCount: 2
Fore
SplineSet
192 576 m 1
 192 384 l 1
 256 384 l 1
 256 320 l 1
 192 320 l 1
 192 64 l 1
 224 64 l 2
 288 64 320 128 320 320 c 3
 320 512 288 576 224 576 c 2
 192 576 l 1
288 0 m 2
 0 0 l 1
 0 32 l 1
 64 64 l 1
 64 320 l 1
 0 320 l 1
 0 384 l 1
 64 384 l 1
 64 576 l 1
 0 608 l 1
 0 640 l 1
 288 640 l 2
 352 640 448 480 448 320 c 3
 448 160 352 0 288 0 c 2
EndSplineSet
Validated: 1
EndChar

StartChar: Ecircumflex
Encoding: 202 202 262
GlifName: E_circumflex
Width: 512
VWidth: 0
Flags: W
HStem: 0 64<192 288> 256 64<192 224> 512 64<192 288> 640 21G<64 180 268 384>
VStem: 64 128<64 256 320 512>
LayerCount: 2
Fore
SplineSet
0 0 m 17
 0 32 l 1
 64 64 l 1
 64 512 l 17
 0 544 l 1
 0 576 l 9
 448 576 l 1
 448 384 l 1
 416 384 l 1
 288 512 l 1
 192 512 l 1
 192 320 l 1
 224 320 l 1
 288 384 l 1
 320 384 l 1
 320 192 l 1
 288 192 l 1
 224 256 l 1
 192 256 l 1
 192 64 l 1
 288 64 l 1
 416 192 l 1
 448 192 l 1
 448 0 l 1
 0 0 l 17
160 768 m 1
 288 768 l 1
 384 640 l 1
 288 640 l 1
 224 704 l 1
 160 640 l 1
 64 640 l 25
 160 768 l 1
EndSplineSet
Validated: 1
EndChar

StartChar: Edieresis
Encoding: 203 203 263
GlifName: E_dieresis
Width: 512
VWidth: 0
Flags: W
HStem: 0 64<192 288> 256 64<192 224> 512 64<192 288> 640 64<1.4375 126.562 321.438 446.562>
VStem: 0 128<643.296 700.704> 64 128<64 256 320 512> 320 128<643.296 700.704>
LayerCount: 2
Fore
SplineSet
0 0 m 17xfa
 0 32 l 1xfa
 64 64 l 1
 64 512 l 17xf6
 0 544 l 1
 0 576 l 9xfa
 448 576 l 1
 448 384 l 1
 416 384 l 1
 288 512 l 1
 192 512 l 1
 192 320 l 1
 224 320 l 1
 288 384 l 1
 320 384 l 1
 320 192 l 1
 288 192 l 1
 224 256 l 1
 192 256 l 1
 192 64 l 1xf6
 288 64 l 1
 416 192 l 1
 448 192 l 1
 448 0 l 1
 0 0 l 17xfa
384 640 m 0
 352 640 320 640 320 672 c 0
 320 704 352 704 384 704 c 0
 416 704 448 704 448 672 c 0
 448 640 416 640 384 640 c 0
64 640 m 0xf6
 32 640 0 640 0 672 c 0xfa
 0 704 32 704 64 704 c 0xf6
 96 704 128 704 128 672 c 0xfa
 128 640 96 640 64 640 c 0xf6
EndSplineSet
Validated: 1
EndChar

StartChar: Egrave
Encoding: 200 200 264
GlifName: E_grave
Width: 512
VWidth: 0
Flags: W
HStem: 0 64<192 288> 256 64<192 224> 512 64<192 288> 640 21G<204 320>
VStem: 64 128<64 256 320 512>
LayerCount: 2
Fore
SplineSet
0 0 m 17
 0 32 l 1
 64 64 l 1
 64 512 l 17
 0 544 l 1
 0 576 l 9
 448 576 l 1
 448 384 l 1
 416 384 l 1
 288 512 l 1
 192 512 l 1
 192 320 l 1
 224 320 l 1
 288 384 l 1
 320 384 l 1
 320 192 l 1
 288 192 l 1
 224 256 l 1
 192 256 l 1
 192 64 l 1
 288 64 l 1
 416 192 l 1
 448 192 l 1
 448 0 l 1
 0 0 l 17
256 768 m 1
 320 640 l 1
 224 640 l 1
 128 736 l 1
 128 768 l 1
 256 768 l 1
EndSplineSet
Validated: 1
EndChar

StartChar: dotlessi
Encoding: 361 305 265
GlifName: dotlessi
Width: 512
VWidth: 0
Flags: W
HStem: 0 21G<128 384> 428 20G<128 320>
VStem: 192 128<64 384>
LayerCount: 2
Fore
SplineSet
128 0 m 17
 128 32 l 1
 192 64 l 9
 192 384 l 17
 128 416 l 1
 128 448 l 9
 320 448 l 25
 320 64 l 17
 384 32 l 1
 384 0 l 9
 128 0 l 17
EndSplineSet
Validated: 1
EndChar

StartChar: Iacute
Encoding: 205 205 266
GlifName: I_acute
Width: 512
VWidth: 0
Flags: W
HStem: 0 21G<128 384> 640 21G<192 308>
VStem: 192 128<64 512>
LayerCount: 2
Fore
SplineSet
256 768 m 25
 384 768 l 1
 384 736 l 25
 288 640 l 25
 192 640 l 1
 256 768 l 25
128 0 m 17
 128 32 l 1
 192 64 l 1
 192 512 l 17
 128 544 l 1
 128 576 l 9
 384 576 l 17
 384 544 l 1
 320 512 l 9
 320 64 l 1
 384 32 l 1
 384 0 l 9
 128 0 l 17
EndSplineSet
Validated: 1
EndChar

StartChar: brokenbar
Encoding: 166 166 267
GlifName: brokenbar
Width: 512
VWidth: 0
Flags: W
VStem: 192 128<-64 256 384 704>
LayerCount: 2
Fore
SplineSet
192 256 m 1
 320 256 l 1
 320 -64 l 1
 192 -64 l 1
 192 256 l 1
192 704 m 1
 320 704 l 1
 320 384 l 1
 192 384 l 1
 192 704 l 1
EndSplineSet
Validated: 1
EndChar

StartChar: Oacute
Encoding: 211 211 268
GlifName: O_acute
Width: 512
VWidth: 0
Flags: W
HStem: 0 64<158.183 289.817> 512 64<158.183 289.817> 640 21G<128 244>
VStem: 0 128<106.672 469.328> 320 128<106.672 469.328>
LayerCount: 2
Fore
SplineSet
0 288 m 0
 0 480 32 576 224 576 c 0
 416 576 448 480 448 288 c 0
 448 96 416 0 224 0 c 0
 32 0 0 96 0 288 c 0
128 288 m 0
 128 128 128 64 224 64 c 0
 320 64 320 128 320 288 c 0
 320 448 320 512 224 512 c 0
 128 512 128 448 128 288 c 0
192 768 m 25
 320 768 l 1
 320 736 l 25
 224 640 l 25
 128 640 l 1
 192 768 l 25
EndSplineSet
Validated: 1
EndChar

StartChar: Ocircumflex
Encoding: 212 212 269
GlifName: O_circumflex
Width: 512
VWidth: 0
Flags: W
HStem: 0 64<158.183 289.817> 512 64<158.183 289.817> 640 21G<64 180 268 384>
VStem: 0 128<106.672 469.328> 320 128<106.672 469.328>
LayerCount: 2
Fore
SplineSet
0 288 m 0
 0 480 32 576 224 576 c 0
 416 576 448 480 448 288 c 0
 448 96 416 0 224 0 c 0
 32 0 0 96 0 288 c 0
128 288 m 0
 128 128 128 64 224 64 c 0
 320 64 320 128 320 288 c 0
 320 448 320 512 224 512 c 0
 128 512 128 448 128 288 c 0
160 768 m 1
 288 768 l 1
 384 640 l 1
 288 640 l 1
 224 704 l 1
 160 640 l 1
 64 640 l 25
 160 768 l 1
EndSplineSet
Validated: 1
EndChar

StartChar: Ograve
Encoding: 210 210 270
GlifName: O_grave
Width: 512
VWidth: 0
Flags: W
HStem: 0 64<158.183 289.817> 512 64<158.183 289.817> 640 21G<204 320>
VStem: 0 128<106.672 469.328> 320 128<106.672 469.328>
LayerCount: 2
Fore
SplineSet
256 768 m 1
 320 640 l 1
 224 640 l 1
 128 736 l 1
 128 768 l 1
 256 768 l 1
0 288 m 0
 0 480 32 576 224 576 c 0
 416 576 448 480 448 288 c 0
 448 96 416 0 224 0 c 0
 32 0 0 96 0 288 c 0
128 288 m 0
 128 128 128 64 224 64 c 0
 320 64 320 128 320 288 c 0
 320 448 320 512 224 512 c 0
 128 512 128 448 128 288 c 0
EndSplineSet
Validated: 1
EndChar

StartChar: Otilde
Encoding: 213 213 271
GlifName: O_tilde
Width: 512
VWidth: 0
Flags: W
HStem: 0 64<158.183 289.817> 512 64<158.183 289.817> 640 64<0 64 252.496 324.229> 704 64<123.771 195.504 384 448>
VStem: 0 128<106.672 469.328> 320 128<106.672 469.328>
LayerCount: 2
Fore
SplineSet
0 288 m 0xcc
 0 480 32 576 224 576 c 0
 416 576 448 480 448 288 c 0
 448 96 416 0 224 0 c 0
 32 0 0 96 0 288 c 0xcc
128 288 m 0
 128 128 128 64 224 64 c 0
 320 64 320 128 320 288 c 0
 320 448 320 512 224 512 c 0
 128 512 128 448 128 288 c 0
0 640 m 1xec
 0 704 l 1
 64 704 l 1xec
 64 704 64 768 160 768 c 1xdc
 288 768 224 704 288 704 c 1xec
 352 704 288 768 448 768 c 1
 448 704 l 1
 384 704 l 1xdc
 384 704 384 640 288 640 c 1xec
 160 640 224 704 160 704 c 1xdc
 96 704 160 640 0 640 c 1xec
EndSplineSet
Validated: 1
EndChar

StartChar: otilde
Encoding: 245 245 272
GlifName: otilde
Width: 512
VWidth: 0
Flags: W
HStem: 0 64<161.096 286.904> 384 64<161.096 286.904> 512 64<0 64 252.496 324.229> 576 64<123.771 195.504 384 448>
VStem: 0 128<99.7228 348.277> 320 128<99.7228 348.277>
LayerCount: 2
Fore
SplineSet
128 224 m 0xcc
 128 96 160 64 224 64 c 0
 288 64 320 96 320 224 c 0
 320 352 288 384 224 384 c 0
 160 384 128 352 128 224 c 0xcc
0 224 m 0
 0 384 64 448 224 448 c 0
 384 448 448 384 448 224 c 0
 448 64 384 0 224 0 c 0
 64 0 0 64 0 224 c 0
0 512 m 1xec
 0 576 l 1
 64 576 l 1xec
 64 576 64 640 160 640 c 1xdc
 288 640 224 576 288 576 c 1xec
 352 576 288 640 448 640 c 1
 448 576 l 1
 384 576 l 1xdc
 384 576 384 512 288 512 c 1xec
 160 512 224 576 160 576 c 1xdc
 96 576 160 512 0 512 c 1xec
EndSplineSet
Validated: 1
EndChar

StartChar: Uacute
Encoding: 218 218 273
GlifName: U_acute
Width: 512
VWidth: 0
Flags: W
HStem: 0 64<160.651 287.349> 640 21G<128 244>
VStem: 0 128<111.274 576> 320 128<111.274 576>
LayerCount: 2
Fore
SplineSet
128 576 m 1
 128 320 l 1
 128 128 128 64 224 64 c 3
 320 64 320 128 320 320 c 1
 320 576 l 1
 448 576 l 1
 448 320 l 1
 448 32 384 0 224 0 c 0
 64 0 0 32 0 320 c 1
 0 576 l 1
 128 576 l 1
192 768 m 25
 320 768 l 1
 320 736 l 25
 224 640 l 25
 128 640 l 1
 192 768 l 25
EndSplineSet
Validated: 1
EndChar

StartChar: Ucircumflex
Encoding: 219 219 274
GlifName: U_circumflex
Width: 512
VWidth: 0
Flags: W
HStem: 0 64<160.651 287.349> 640 21G<64 180 268 384>
VStem: 0 128<111.274 576> 320 128<111.274 576>
LayerCount: 2
Fore
SplineSet
128 576 m 1
 128 320 l 1
 128 128 128 64 224 64 c 3
 320 64 320 128 320 320 c 1
 320 576 l 1
 448 576 l 1
 448 320 l 1
 448 32 384 0 224 0 c 0
 64 0 0 32 0 320 c 1
 0 576 l 1
 128 576 l 1
64 672 m 1
 160 768 l 1
 288 768 l 1
 384 672 l 1
 384 640 l 1
 288 640 l 1
 224 704 l 1
 160 640 l 1
 64 640 l 25
 64 672 l 1
EndSplineSet
Validated: 1
EndChar

StartChar: Ugrave
Encoding: 217 217 275
GlifName: U_grave
Width: 512
VWidth: 0
Flags: W
HStem: 0 64<160.651 287.349> 640 21G<204 320>
VStem: 0 128<111.274 576> 320 128<111.274 576>
LayerCount: 2
Fore
SplineSet
128 576 m 1
 128 320 l 1
 128 128 128 64 224 64 c 3
 320 64 320 128 320 320 c 1
 320 576 l 1
 448 576 l 1
 448 320 l 1
 448 32 384 0 224 0 c 0
 64 0 0 32 0 320 c 1
 0 576 l 1
 128 576 l 1
256 768 m 1
 320 640 l 1
 224 640 l 1
 128 736 l 1
 128 768 l 1
 256 768 l 1
EndSplineSet
Validated: 1
EndChar

StartChar: yacute
Encoding: 253 253 276
GlifName: yacute
Width: 512
VWidth: 0
Flags: W
HStem: -192 64<0 229.311> 0 64<160.623 287.914> 428 20G<0 128 320 448>
VStem: 0 128<111.24 448> 320 128<-70.5 32 98.2971 448>
LayerCount: 2
Fore
SplineSet
0 224 m 0
 0 320 0 352 0 448 c 1
 128 448 l 1
 128 320 128 288 128 224 c 0
 128 96 160 64 224 64 c 0
 288 64 320 96 320 224 c 0
 320 288 320 320 320 448 c 1
 448 448 l 1
 448 32 l 2
 448 -128 352 -192 0 -192 c 0
 0 -192 0 -192 0 -128 c 1
 256 -128 320 -128 320 32 c 1
 320 32 288 0 224 0 c 1
 96 0 0 64 0 224 c 0
256 704 m 25
 384 704 l 1
 384 672 l 25
 224 512 l 1
 128 512 l 1
 256 704 l 25
EndSplineSet
Validated: 1
EndChar

StartChar: Yacute
Encoding: 221 221 277
GlifName: Y_acute
Width: 512
VWidth: 0
Flags: W
HStem: 0 21G<128 384> 640 21G<192 308>
VStem: 64 128<384 576> 192 128<64 192> 320 128<384 576>
LayerCount: 2
Fore
SplineSet
64 576 m 1xe0
 192 576 l 1
 192 384 l 1
 256 256 l 1
 320 384 l 1
 320 576 l 1
 448 576 l 1
 448 384 l 1xe8
 320 192 l 1
 320 64 l 1
 384 32 l 1
 384 0 l 1
 128 0 l 1
 128 32 l 1
 192 64 l 1
 192 192 l 1xd0
 64 384 l 1
 64 576 l 1xe0
256 768 m 25
 384 768 l 1
 384 736 l 1
 288 640 l 25
 192 640 l 1xd0
 256 768 l 25
EndSplineSet
Validated: 1
EndChar

StartChar: Icircumflex
Encoding: 206 206 278
GlifName: I_circumflex
Width: 512
VWidth: 0
Flags: W
HStem: 0 21G<128 384> 640 21G<64 180 332 448>
VStem: 192 128<64 512>
LayerCount: 2
Fore
SplineSet
160 768 m 1
 352 768 l 1
 448 640 l 1
 352 640 l 1
 256 736 l 1
 160 640 l 1
 64 640 l 25
 160 768 l 1
128 0 m 17
 128 32 l 1
 192 64 l 1
 192 512 l 17
 128 544 l 1
 128 576 l 9
 384 576 l 17
 384 544 l 1
 320 512 l 9
 320 64 l 1
 384 32 l 1
 384 0 l 9
 128 0 l 17
EndSplineSet
Validated: 1
EndChar

StartChar: Idieresis
Encoding: 207 207 279
GlifName: I_dieresis
Width: 512
VWidth: 0
Flags: W
HStem: 0 21G<128 384> 640 64<65.4375 190.562 321.438 446.562>
VStem: 64 128<643.296 700.704> 192 128<64 512> 320 128<643.296 700.704>
LayerCount: 2
Fore
SplineSet
384 640 m 0xc8
 352 640 320 640 320 672 c 0
 320 704 352 704 384 704 c 0
 416 704 448 704 448 672 c 0
 448 640 416 640 384 640 c 0xc8
128 640 m 0
 96 640 64 640 64 672 c 0
 64 704 96 704 128 704 c 0
 160 704 192 704 192 672 c 0xe0
 192 640 160 640 128 640 c 0
128 0 m 17
 128 32 l 1
 192 64 l 1
 192 512 l 17
 128 544 l 1
 128 576 l 9
 384 576 l 17
 384 544 l 1
 320 512 l 9
 320 64 l 1xd0
 384 32 l 1
 384 0 l 9
 128 0 l 17
EndSplineSet
Validated: 1
EndChar

StartChar: thorn
Encoding: 254 254 280
GlifName: thorn
Width: 512
VWidth: 0
Flags: W
HStem: -192 21G<0 256> 0 64<204.554 306.918> 384 64<204.554 306.918> 620 20G<0 192>
VStem: 64 128<-128 32 74.1355 373.865 416 576> 320 128<95.087 352.913>
LayerCount: 2
Fore
SplineSet
256 384 m 1
 192 384 192 352 192 224 c 1
 192 96 192 64 256 64 c 1
 320 64 320 96 320 224 c 1
 320 352 320 384 256 384 c 1
192 32 m 1
 192 -128 l 1
 256 -160 l 1
 256 -192 l 9
 0 -192 l 17
 0 -160 l 1
 64 -128 l 1
 64 -128 64 416 64 576 c 1
 0 608 l 1
 0 640 l 1
 192 640 l 1
 192 416 l 1
 192 448 224 448 256 448 c 1
 384 448 448 384 448 224 c 1
 448 64 384 0 256 0 c 1
 224 0 192 0 192 32 c 1
EndSplineSet
Validated: 1
EndChar

StartChar: Thorn
Encoding: 222 222 281
GlifName: T_horn
Width: 512
VWidth: 0
Flags: W
HStem: 0 21G<0 256> 128 64<203.152 307.406> 448 64<203.152 307.406> 620 20G<0 256>
VStem: 64 128<64 160 201.298 438.702 480 576> 320 128<202.934 437.066>
LayerCount: 2
Fore
SplineSet
256 448 m 1
 192 448 192 416 192 320 c 1
 192 224 192 192 256 192 c 1
 320 192 320 224 320 320 c 1
 320 416 320 448 256 448 c 1
192 160 m 1
 192 64 l 1
 256 32 l 1
 256 0 l 9
 0 0 l 17
 0 32 l 1
 64 64 l 1
 64 64 64 416 64 576 c 1
 0 608 l 1
 0 640 l 1
 256 640 l 1
 256 608 l 1
 192 576 l 1
 192 480 l 1
 192 512 224 512 256 512 c 1
 384 512 448 480 448 320 c 1
 448 160 384 128 256 128 c 1
 224 128 192 128 192 160 c 1
EndSplineSet
Validated: 1
EndChar

StartChar: multiply
Encoding: 215 215 282
GlifName: multiply
Width: 512
VWidth: 0
Flags: W
HStem: 428 20G<0 116 332 448>
DStem2: 96 448 0 416 0.707107 -0.707107<0 181.019 271.529 452.548> 0 96 96 64 0.707107 0.707107<45.2548 226.274 316.784 497.803>
LayerCount: 2
Fore
SplineSet
0 448 m 1
 96 448 l 1
 224 320 l 1
 352 448 l 1
 448 448 l 1
 448 416 l 1
 288 256 l 1
 448 96 l 1
 448 64 l 1
 352 64 l 1
 224 192 l 1
 96 64 l 1
 0 64 l 1
 0 96 l 1
 160 256 l 1
 0 416 l 1
 0 448 l 1
EndSplineSet
Validated: 1
EndChar

StartChar: Igrave
Encoding: 204 204 283
GlifName: I_grave
Width: 512
VWidth: 0
Flags: W
HStem: 0 21G<128 384> 640 21G<204 320>
VStem: 192 128<64 512>
LayerCount: 2
Fore
SplineSet
320 640 m 25
 224 640 l 1
 128 736 l 25
 128 768 l 25
 256 768 l 1
 320 640 l 25
384 0 m 9
 128 0 l 17
 128 32 l 1
 192 64 l 1
 192 512 l 17
 128 544 l 1
 128 576 l 9
 384 576 l 17
 384 544 l 1
 320 512 l 9
 320 64 l 1
 384 32 l 1
 384 0 l 9
EndSplineSet
Validated: 1
EndChar

StartChar: Oslash
Encoding: 216 216 284
GlifName: O_slash
Width: 512
VWidth: 0
Flags: W
HStem: 0 64<192 292.091> 576 64<155.909 256>
VStem: 0 128<83.0952 528.542> 320 128<111.458 556.905>
DStem2: 128 64 192 64 0.242536 0.970143<15.5223 527.758>
LayerCount: 2
Fore
SplineSet
0 320 m 0
 0 608 64 640 224 640 c 0
 256 640 256 640 288 640 c 1
 320 704 l 1
 384 704 l 1
 352 608 l 1
 416 576 448 608 448 320 c 0
 448 32 384 0 224 0 c 0
 192 0 192 0 160 0 c 1
 128 -64 l 1
 64 -64 l 1
 96 32 l 1
 32 64 0 32 0 320 c 0
128 64 m 1
 256 576 l 1
 256 576 256 576 224 576 c 0
 128 576 128 544 128 320 c 0
 128 256 128 96 128 64 c 1
192 64 m 1
 192 64 192 64 224 64 c 0
 320 64 320 96 320 320 c 0
 320 416 320 544 320 576 c 1
 192 64 l 1
EndSplineSet
Validated: 1
EndChar

StartChar: oslash
Encoding: 248 248 285
GlifName: oslash
Width: 512
VWidth: 0
Flags: W
HStem: 0 64<131.629 286.904> 384 64<162.106 285.894>
VStem: 0 128<64 96 224 346.852> 320 128<101.148 285.894>
DStem2: 128 224 128 96 0.707107 0.707107<0 181.019>
LayerCount: 2
Fore
SplineSet
0 224 m 0
 0 384 64 448 224 448 c 0
 384 448 448 384 448 224 c 0
 448 64 384 0 224 0 c 0
 64 0 0 64 0 224 c 0
128 224 m 0
 288 384 l 1
 288 384 256 384 224 384 c 0
 160 384 128 352 128 224 c 0
128 96 m 1
 128 64 192 64 224 64 c 0
 288 64 320 96 320 224 c 0
 320 256 320 256 320 288 c 1
 128 96 l 1
EndSplineSet
Validated: 1
EndChar

StartChar: registered
Encoding: 174 174 286
GlifName: registered
Width: 512
VWidth: 0
Flags: W
HStem: 64 64<91.0622 356.938> 320 64<192 224> 448 64<192 254.474> 576 64<91.0622 356.938>
VStem: 0 64<153.667 550.333> 128 64<192 320 384 448> 256 64<192 288 387.817 444.602> 384 64<153.667 550.333>
LayerCount: 2
Fore
SplineSet
192 384 m 17
 224 384 256 384 256 416 c 1
 256 448 224 448 192 448 c 9
 192 384 l 17
128 192 m 25
 128 512 l 1
 224 512 l 17
 256 512 320 448 320 416 c 1
 320 384 256 352 256 352 c 1
 320 288 l 1
 320 192 l 1
 256 192 l 1
 256 288 l 1
 224 320 l 1
 192 320 l 1
 192 192 l 9
 128 192 l 25
64 352 m 3
 64 128 64 128 224 128 c 3
 384 128 384 128 384 352 c 3
 384 576 384 576 224 576 c 3
 64 576 64 576 64 352 c 3
0 352 m 3
 0 608 32 640 224 640 c 3
 416 640 448 608 448 352 c 3
 448 96 416 64 224 64 c 3
 32 64 0 96 0 352 c 3
EndSplineSet
Validated: 1
EndChar

StartChar: copyright
Encoding: 169 169 287
GlifName: copyright
Width: 512
VWidth: 0
Flags: W
HStem: 64 64<91.0622 356.938> 192 64<214.67 282.288> 448 64<214.67 282.288> 576 64<91.0622 356.938>
VStem: 0 64<153.667 550.333> 128 64<278.2 425.8> 384 64<153.667 550.333>
LayerCount: 2
Fore
SplineSet
320 256 m 1
 320 224 288 192 256 192 c 0
 192 192 128 256 128 352 c 0
 128 448 192 512 256 512 c 0
 288 512 320 480 320 448 c 1
 320 448 288 448 256 448 c 0
 224 448 192 416 192 352 c 0
 192 288 224 256 256 256 c 0
 288 256 320 256 320 256 c 1
64 352 m 3
 64 128 64 128 224 128 c 3
 384 128 384 128 384 352 c 3
 384 576 384 576 224 576 c 3
 64 576 64 576 64 352 c 3
0 352 m 3
 0 608 32 640 224 640 c 3
 416 640 448 608 448 352 c 3
 448 96 416 64 224 64 c 3
 32 64 0 96 0 352 c 3
EndSplineSet
Validated: 1
EndChar

StartChar: currency
Encoding: 164 164 288
GlifName: currency
Width: 512
VWidth: 0
Flags: W
HStem: 0 21G<0 116 332 448> 64 64<160 288> 384 64<160 288>
VStem: 0 128<147.392 364.608> 320 128<147.392 364.608>
LayerCount: 2
Fore
SplineSet
0 256 m 0
 0 352 32 384 64 416 c 1
 0 480 l 1
 0 512 l 1
 96 512 l 1
 160 448 l 1
 288 448 l 1
 352 512 l 1
 448 512 l 1
 448 480 l 1
 384 416 l 1
 416 384 448 352 448 256 c 0
 448 160 416 128 384 96 c 1
 448 32 l 1
 448 0 l 1
 352 0 l 1
 288 64 l 1
 160 64 l 1
 96 0 l 1
 0 0 l 1
 0 32 l 1
 64 96 l 1
 32 128 0 160 0 256 c 0
128 256 m 0
 128 128 160 128 224 128 c 0
 288 128 320 128 320 256 c 0
 320 384 288 384 224 384 c 0
 160 384 128 384 128 256 c 0
EndSplineSet
Validated: 1
EndChar

StartChar: macron
Encoding: 175 175 289
GlifName: macron
Width: 512
VWidth: 0
Flags: W
HStem: 640 64<0 512>
LayerCount: 2
Fore
SplineSet
0 704 m 1
 512 704 l 1
 512 640 l 1
 0 640 l 1
 0 704 l 1
EndSplineSet
Validated: 1
EndChar

StartChar: acute
Encoding: 180 180 323
GlifName: acute
Width: 512
VWidth: 0
Flags: W
HStem: 512 192
VStem: 128 256
LayerCount: 2
Fore
SplineSet
256 704 m 25
 384 704 l 1
 384 672 l 25
 224 512 l 1
 128 512 l 1
 256 704 l 25
EndSplineSet
Validated: 1
EndChar

StartChar: uni00AD
Encoding: 173 173 324
GlifName: uni00A_D_
Width: 512
VWidth: 0
Flags: W
HStem: 256 64<0 448>
LayerCount: 2
Fore
SplineSet
0 320 m 1
 448 320 l 1
 448 256 l 1
 0 256 l 1
 0 320 l 1
EndSplineSet
Validated: 1
EndChar

StartChar: underscoredbl
Encoding: 362 8215 325
GlifName: underscoredbl
Width: 512
VWidth: 0
Flags: W
HStem: -192 64<0 512> -64 64<0 512>
LayerCount: 2
Fore
SplineSet
0 -128 m 1
 512 -128 l 1
 512 -192 l 1
 0 -192 l 1
 0 -128 l 1
0 0 m 1
 512 0 l 1
 512 -64 l 1
 0 -64 l 1
 0 0 l 1
EndSplineSet
Validated: 1
EndChar

StartChar: cedilla
Encoding: 184 184 326
GlifName: cedilla
Width: 512
VWidth: 0
Flags: W
HStem: -128 64<64 255.855>
VStem: 256 128<-63.2059 2.63312>
LayerCount: 2
Fore
SplineSet
288 64 m 1
 352 0 384 0 384 -32 c 0
 384 -64 288 -128 224 -128 c 2
 64 -128 l 1
 64 -64 l 1
 224 -64 l 2
 256 -64 256 -64 256 -32 c 0
 256 64 160 0 128 64 c 1
 288 64 l 1
EndSplineSet
Validated: 1
EndChar

StartChar: dieresis
Encoding: 168 168 327
GlifName: dieresis
Width: 512
VWidth: 0
Flags: W
HStem: 640 64<1.4375 126.562 321.438 446.562>
VStem: 0 128<643.296 700.704> 320 128<643.296 700.704>
LayerCount: 2
Fore
SplineSet
384 640 m 0
 352 640 320 640 320 672 c 0
 320 704 352 704 384 704 c 0
 416 704 448 704 448 672 c 0
 448 640 416 640 384 640 c 0
64 640 m 0
 32 640 0 640 0 672 c 0
 0 704 32 704 64 704 c 0
 96 704 128 704 128 672 c 0
 128 640 96 640 64 640 c 0
EndSplineSet
Validated: 1
EndChar

StartChar: uni00B9
Encoding: 185 185 328
GlifName: uni00B_9
Width: 512
VWidth: 0
Flags: W
VStem: 192 128<384 576>
LayerCount: 2
Fore
SplineSet
320 704 m 1
 320 384 l 1
 384 352 l 1
 384 320 l 1
 128 320 l 1
 128 352 l 1
 192 384 l 1
 192 576 l 1
 128 576 l 25
 128 608 l 25
 224 704 l 25
 320 704 l 1
EndSplineSet
Validated: 1
EndChar

StartChar: uni00B3
Encoding: 179 179 329
GlifName: uni00B_3
Width: 512
VWidth: 0
Flags: W
HStem: 320 64<64 261.953> 512 64<128 279.282> 640 64<64 296.375>
VStem: 320 128<420.762 480.12 591.914 621.57>
LayerCount: 2
Fore
SplineSet
64 704 m 1
 256 704 l 1
 384 704 448 640 448 608 c 1
 448 544 384 544 384 544 c 1
 384 544 448 512 448 448 c 1
 448 384 384 320 256 320 c 1
 64 320 l 1
 64 384 l 1
 64 384 320 384 320 448 c 1
 320 512 128 512 128 512 c 1
 128 576 l 1
 128 576 320 576 320 608 c 1
 320 640 64 640 64 640 c 1
 64 704 l 1
EndSplineSet
Validated: 1
EndChar

StartChar: Euro
Encoding: 363 8364 331
Width: 512
VWidth: 0
Flags: W
HStem: 0 64<261.162 390.87> 256 64<0 64 192 320> 384 64<0 64 192 384> 576 64<241.144 391.037>
VStem: 64 128<142.797 256 320 384>
LayerCount: 2
Fore
SplineSet
448 64 m 1
 448 64 448 0 320 0 c 0
 160 0 64 96 64 256 c 1
 0 256 l 1
 0 320 l 1
 64 320 l 1
 64 352 64 352 64 384 c 1
 0 384 l 1
 0 448 l 1
 64 448 l 1
 96 576 192 640 320 640 c 0
 448 640 480 576 480 576 c 1
 448 512 l 1
 448 512 384 576 320 576 c 0
 256 576 192 544 192 448 c 1
 416 448 l 1
 384 384 l 1
 192 384 l 1
 192 352 192 352 192 320 c 1
 352 320 l 1
 320 256 l 1
 192 256 l 1
 192 128 256 64 320 64 c 0
 384 64 448 128 448 128 c 1
 448 64 l 1
EndSplineSet
Validated: 1
EndChar

StartChar: quotesinglbase
Encoding: 364 8218 332
Width: 512
VWidth: 0
Flags: W
HStem: -64 256<256 288> 0 21G<240 272>
VStem: 192 128<33.8882 170.906>
LayerCount: 2
Fore
SplineSet
192 96 m 0x60
 192 160 224 192 256 192 c 0
 288 192 320 160 320 96 c 0
 320 32 320 -64 256 -64 c 1xa0
 256 -32 l 0
 288 32 l 1
 288 32 288 32 256 0 c 1
 224 0 192 32 192 96 c 0x60
EndSplineSet
Validated: 1
EndChar

StartChar: quotedblbase
Encoding: 365 8222 333
Width: 512
VWidth: 0
Flags: W
HStem: -64 256<128 160 384 416> 0 21G<112 144 368 400>
VStem: 64 128<33.8882 170.906> 320 128<33.8882 170.906>
LayerCount: 2
Fore
SplineSet
320 96 m 0x70
 320 160 352 192 384 192 c 0
 416 192 448 160 448 96 c 0
 448 32 448 -64 384 -64 c 1xb0
 384 -32 l 0
 416 32 l 1
 416 32 416 32 384 0 c 1
 352 0 320 32 320 96 c 0x70
64 96 m 0
 64 160 96 192 128 192 c 0
 160 192 192 160 192 96 c 0
 192 32 192 -64 128 -64 c 1xb0
 128 -32 l 0
 160 32 l 1
 160 32 160 32 128 0 c 1x70
 96 0 64 32 64 96 c 0
EndSplineSet
Validated: 1
EndChar

StartChar: ellipsis
Encoding: 366 8230 334
Width: 512
VWidth: 0
Flags: W
HStem: 0 128<17.7979 110.202 209.798 302.202 401.798 494.202>
VStem: 0 128<17.7979 110.202> 192 128<17.7979 110.202> 384 128<17.7979 110.202>
CounterMasks: 1 70
LayerCount: 2
Fore
SplineSet
384 64 m 0
 384 96 416 128 448 128 c 0
 480 128 512 96 512 64 c 0
 512 32 480 0 448 0 c 0
 416 0 384 32 384 64 c 0
192 64 m 0
 192 96 224 128 256 128 c 0
 288 128 320 96 320 64 c 0
 320 32 288 0 256 0 c 0
 224 0 192 32 192 64 c 0
0 64 m 0
 0 96 32 128 64 128 c 0
 96 128 128 96 128 64 c 0
 128 32 96 0 64 0 c 0
 32 0 0 32 0 64 c 0
EndSplineSet
Validated: 1
EndChar

StartChar: dagger
Encoding: 367 8224 335
Width: 512
VWidth: 0
Flags: W
HStem: 384 64<64 192 320 448> 620 20G<192 320>
VStem: 192 128<-128 384 448 640>
LayerCount: 2
Fore
SplineSet
192 640 m 1
 320 640 l 1
 320 448 l 1
 448 448 l 1
 448 384 l 1
 320 384 l 1
 320 -128 l 1
 192 -128 l 1
 192 384 l 1
 64 384 l 1
 64 448 l 1
 192 448 l 1
 192 640 l 1
EndSplineSet
Validated: 1
EndChar

StartChar: daggerdbl
Encoding: 368 8225 336
Width: 512
VWidth: 0
Flags: W
HStem: 64 64<64 192 320 448> 384 64<64 192 320 448> 620 20G<192 320>
VStem: 192 128<-128 64 128 384 448 640>
LayerCount: 2
Fore
SplineSet
192 640 m 1
 320 640 l 1
 320 448 l 1
 448 448 l 1
 448 384 l 1
 320 384 l 1
 320 128 l 1
 448 128 l 1
 448 64 l 1
 320 64 l 1
 320 -128 l 1
 192 -128 l 1
 192 64 l 1
 64 64 l 1
 64 128 l 1
 192 128 l 1
 192 384 l 1
 64 384 l 1
 64 448 l 1
 192 448 l 1
 192 640 l 1
EndSplineSet
Validated: 1
EndChar

StartChar: circumflex
Encoding: 369 710 337
Width: 512
VWidth: 0
Flags: W
HStem: 640 128
VStem: 64 320
LayerCount: 2
Fore
SplineSet
160 768 m 1
 288 768 l 1
 384 640 l 1
 288 640 l 1
 224 704 l 1
 160 640 l 1
 64 640 l 25
 160 768 l 1
EndSplineSet
Validated: 1
EndChar

StartChar: perthousand
Encoding: 370 8240 338
Width: 512
VWidth: 0
Flags: W
HStem: 0 64<192.794 255.206 384.794 447.206> 128 64<192.794 255.206 384.794 447.206> 320 64<64.7941 127.206> 428 20G<268 320> 448 64<64.7941 127.206>
VStem: 0 64<384.794 447.206> 128 64<64.7941 127.206 384.794 447.206> 256 128<64.0625 127.938> 448 64<64.7941 127.206>
DStem2: 0 160 32 64 0.707107 0.707107<0 362.039>
LayerCount: 2
Fore
SplineSet
64 416 m 0xef80
 64 384 64 384 96 384 c 0
 128 384 128 384 128 416 c 0
 128 448 128 448 96 448 c 0
 64 448 64 448 64 416 c 0xef80
0 416 m 0
 0 448 64 512 96 512 c 0
 128 512 192 448 192 416 c 0
 192 384 128 320 96 320 c 0
 64 320 0 384 0 416 c 0
384 96 m 0
 384 64 384 64 416 64 c 0
 448 64 448 64 448 96 c 0
 448 128 448 128 416 128 c 0
 384 128 384 128 384 96 c 0
0 160 m 1
 288 448 l 1
 320 448 l 1xf780
 320 352 l 1
 32 64 l 1
 0 64 l 1
 0 160 l 1
192 96 m 0
 192 64 192 64 224 64 c 0
 256 64 256 64 256 96 c 0
 256 128 256 128 224 128 c 0
 192 128 192 128 192 96 c 0
128 96 m 0
 128 128 192 192 224 192 c 0
 256 192 320 128 320 128 c 1
 320 128 384 192 416 192 c 0
 448 192 512 128 512 96 c 0
 512 64 448 0 416 0 c 0
 384 0 320 64 320 64 c 1
 320 64 256 0 224 0 c 0
 192 0 128 64 128 96 c 0
EndSplineSet
Validated: 1
EndChar

StartChar: Scaron
Encoding: 371 352 339
Width: 512
VWidth: 0
Flags: W
HStem: 0 64<144.5 305.463> 256 64<183.232 264.768> 512 64<142.537 303.5> 640 21G<145 303>
VStem: 0 128<86.6881 192 371.382 496.5> 320 128<79.5 204.618 384 489.312>
LayerCount: 2
Fore
SplineSet
160 640 m 1
 64 768 l 25
 160 768 l 1
 224 704 l 1
 288 768 l 1
 384 768 l 1
 288 640 l 1
 160 640 l 1
128 192 m 1
 128 96 128 64 224 64 c 3
 320 64 320 96 320 160 c 0
 320 192 256 256 224 256 c 3
 96 256 0 384 0 416 c 0
 0 512 64 576 224 576 c 0
 384 576 448 512 448 384 c 1
 320 384 l 1
 320 480 320 512 224 512 c 3
 128 512 128 480 128 416 c 0
 128 384 192 320 224 320 c 3
 352 320 448 192 448 160 c 3
 448 64 384 0 224 0 c 3
 64 0 0 64 0 192 c 1
 128 192 l 1
EndSplineSet
Validated: 1
EndChar

StartChar: guilsinglleft
Encoding: 372 8249 340
Width: 512
VWidth: 0
Flags: W
HStem: 0 320
VStem: 128 256
DStem2: 256 160 128 160 0.707107 -0.707107<0 135.765> 128 160 256 160 0.707107 0.707107<90.5097 226.274>
LayerCount: 2
Fore
SplineSet
128 160 m 1
 288 320 l 1
 384 320 l 1
 384 288 l 1
 256 160 l 1
 384 32 l 1
 384 0 l 1
 288 0 l 1
 128 160 l 1
EndSplineSet
Validated: 1
EndChar

StartChar: OE
Encoding: 373 338 341
Width: 512
VWidth: 0
Flags: W
HStem: 0 64<159.25 224> 320 64<384 448> 576 64<159.25 224>
VStem: 0 128<101.322 538.678> 256 128<96 320 384 544>
LayerCount: 2
Fore
SplineSet
256 544 m 1
 224 576 l 0
 160 576 128 576 128 320 c 0
 128 64 160 64 224 64 c 0
 256 96 l 1
 256 544 l 1
224 0 m 2
 32 0 0 64 0 320 c 0
 0 576 32 640 224 640 c 2
 448 640 l 25
 448 608 l 25
 384 576 l 25
 384 384 l 25
 448 384 l 25
 448 320 l 25
 384 320 l 25
 384 64 l 25
 448 32 l 25
 448 0 l 25
 224 0 l 2
EndSplineSet
Validated: 1
EndChar

StartChar: Zcaron
Encoding: 374 381 342
Width: 512
VWidth: 0
Flags: W
HStem: 0 64<128 288> 512 64<160 320> 640 21G<145 303>
VStem: 0 128<64 160>
DStem2: 0 160 128 160 0.707107 0.707107<90.5097 452.548>
LayerCount: 2
Fore
SplineSet
160 640 m 1
 64 768 l 25
 160 768 l 1
 224 704 l 1
 288 768 l 1
 384 768 l 1
 288 640 l 1
 160 640 l 1
0 0 m 1
 0 160 l 1
 320 480 l 1
 320 512 l 1
 160 512 l 1
 32 384 l 1
 0 384 l 9
 0 576 l 1
 448 576 l 1
 448 480 l 1
 128 160 l 1
 128 64 l 1
 288 64 l 17
 416 192 l 1
 448 192 l 9
 448 0 l 25
 0 0 l 1
EndSplineSet
Validated: 1
EndChar

StartChar: quoteleft
Encoding: 375 8216 343
Width: 512
VWidth: 0
Flags: W
HStem: 448 256<224 256> 620 20G<240 272>
VStem: 192 128<469.094 606.112>
LayerCount: 2
Fore
SplineSet
320 544 m 0x60
 320 480 288 448 256 448 c 0
 224 448 192 480 192 544 c 0
 192 608 192 704 256 704 c 1xa0
 256 672 l 0
 224 608 l 1
 224 608 224 608 256 640 c 1
 288 640 320 608 320 544 c 0x60
EndSplineSet
Validated: 1
EndChar

StartChar: quoteright
Encoding: 376 8217 344
Width: 512
VWidth: 0
Flags: W
HStem: 448 256<256 288>
VStem: 192 128<545.888 682.906>
LayerCount: 2
Fore
SplineSet
192 608 m 0
 192 672 224 704 256 704 c 0
 288 704 320 672 320 608 c 0
 320 544 320 448 256 448 c 1
 256 480 l 0
 288 544 l 1
 288 544 288 544 256 512 c 1
 224 512 192 544 192 608 c 0
EndSplineSet
Validated: 1
EndChar

StartChar: quotedblleft
Encoding: 377 8220 345
Width: 512
VWidth: 0
Flags: W
HStem: 448 256<96 128 352 384> 620 20G<112 144 368 400>
VStem: 64 128<469.094 606.112> 320 128<469.094 606.112>
LayerCount: 2
Fore
SplineSet
192 544 m 0x70
 192 480 160 448 128 448 c 0
 96 448 64 480 64 544 c 0
 64 608 64 704 128 704 c 1xb0
 128 672 l 0
 96 608 l 1
 96 608 96 608 128 640 c 1
 160 640 192 608 192 544 c 0x70
448 544 m 0
 448 480 416 448 384 448 c 0
 352 448 320 480 320 544 c 0
 320 608 320 704 384 704 c 1xb0
 384 672 l 0
 352 608 l 1
 352 608 352 608 384 640 c 1x70
 416 640 448 608 448 544 c 0
EndSplineSet
Validated: 1
EndChar

StartChar: quotedblright
Encoding: 378 8221 346
Width: 512
VWidth: 0
Flags: W
HStem: 448 256<128 160 384 416>
VStem: 64 128<545.888 682.906> 320 128<545.888 682.906>
LayerCount: 2
Fore
SplineSet
320 608 m 0
 320 672 352 704 384 704 c 0
 416 704 448 672 448 608 c 0
 448 544 448 448 384 448 c 1
 384 480 l 0
 416 544 l 1
 416 544 416 544 384 512 c 1
 352 512 320 544 320 608 c 0
64 608 m 0
 64 672 96 704 128 704 c 0
 160 704 192 672 192 608 c 0
 192 544 192 448 128 448 c 1
 128 480 l 0
 160 544 l 1
 160 544 160 544 128 512 c 1
 96 512 64 544 64 608 c 0
EndSplineSet
Validated: 1
EndChar

StartChar: endash
Encoding: 379 8211 347
Width: 512
VWidth: 0
Flags: W
HStem: 256 64<64 384>
VStem: 64 320<256 320>
LayerCount: 2
Fore
SplineSet
64 320 m 1
 384 320 l 1
 384 256 l 1
 64 256 l 1
 64 320 l 1
EndSplineSet
Validated: 1
EndChar

StartChar: emdash
Encoding: 380 8212 348
Width: 512
VWidth: 0
Flags: W
HStem: 256 64<0 448>
LayerCount: 2
Fore
SplineSet
0 320 m 1
 448 320 l 1
 448 256 l 1
 0 256 l 1
 0 320 l 1
EndSplineSet
Validated: 1
EndChar

StartChar: tilde
Encoding: 381 732 349
Width: 512
VWidth: 0
Flags: W
HStem: 576 64<261.334 314.602> 640 64<197.398 250.666>
VStem: 128 256
LayerCount: 2
Fore
SplineSet
128 608 m 1xa0
 128 640 192 704 224 704 c 1x60
 256 704 256 640 288 640 c 1xa0
 320 640 320 704 352 704 c 1
 384 704 l 1x60
 384 672 l 1
 384 640 320 576 288 576 c 1xa0
 256 576 256 640 224 640 c 1x60
 192 640 192 576 160 576 c 1
 128 576 l 1
 128 608 l 1xa0
EndSplineSet
Validated: 1
EndChar

StartChar: trademark
Encoding: 382 8482 350
Width: 512
VWidth: 0
Flags: W
HStem: 448 192<64 128 192 224 416 448> 576 64<0 64 128 192>
VStem: 64 64<448 576> 192 64<448 544> 384 64<448 544>
LayerCount: 2
Fore
SplineSet
192 448 m 1xb8
 192 576 l 1
 128 576 l 1x78
 128 448 l 1
 64 448 l 1xb8
 64 576 l 1
 0 576 l 1
 0 640 l 1x78
 224 640 l 1
 320 544 l 1
 416 640 l 1
 448 640 l 1
 448 448 l 1
 384 448 l 1
 384 544 l 1
 320 480 l 1
 256 544 l 1
 256 448 l 1
 192 448 l 1xb8
EndSplineSet
Validated: 1
EndChar

StartChar: scaron
Encoding: 383 353 351
Width: 512
VWidth: 0
Flags: W
HStem: 0 64<149.893 314.193> 384 64<133.807 298.107>
VStem: 0 128<87.5 128 323.458 372.359> 320 128<75.2578 124.542 320 360.5>
LayerCount: 2
Fore
SplineSet
128 128 m 1
 128 128 128 64 224 64 c 3
 320 64 320 96 320 96 c 0
 320 128 192 192 192 192 c 0
 192 192 0 288 0 352 c 0
 0 352 0 448 224 448 c 3
 448 448 448 320 448 320 c 1
 320 320 l 1
 320 320 320 384 224 384 c 3
 128 384 128 352 128 352 c 0
 128 320 256 256 256 256 c 0
 256 256 448 160 448 96 c 3
 448 64 448 0 224 0 c 3
 0 0 0 128 0 128 c 1
 128 128 l 1
192 512 m 1
 64 704 l 1
 160 704 l 25
 224 640 l 25
 288 704 l 25
 384 704 l 1
 256 512 l 1
 192 512 l 1
EndSplineSet
Validated: 1
EndChar

StartChar: guilsinglright
Encoding: 384 8250 352
Width: 512
VWidth: 0
Flags: W
HStem: 0 320
VStem: 128 256
DStem2: 224 320 128 288 0.707107 -0.707107<0 135.765> 128 32 224 0 0.707107 0.707107<45.2548 181.019>
LayerCount: 2
Fore
SplineSet
384 160 m 1
 224 0 l 1
 128 0 l 1
 128 32 l 1
 256 160 l 1
 128 288 l 1
 128 320 l 1
 224 320 l 1
 384 160 l 1
EndSplineSet
Validated: 1
EndChar

StartChar: oe
Encoding: 385 339 353
Width: 512
VWidth: 0
Flags: W
HStem: 0 64<137.573 182.15 354.172 484.906> 192 64<323.296 376.361> 384 64<137.573 182.041 324.136 416>
VStem: 0 128<105.677 342.323> 192 128<93.9103 192 257.438 381.062> 384 128<258.469 381.651>
CounterMasks: 1 fc
LayerCount: 2
Fore
SplineSet
128 224 m 0
 128 128 128 64 160 64 c 0
 192 64 192 128 192 224 c 0
 192 320 192 384 160 384 c 0
 128 384 128 320 128 224 c 0
160 0 m 0
 64 0 0 96 0 224 c 0
 0 352 64 448 160 448 c 0
 224 448 224 384 224 384 c 1
 256 416 320 448 384 448 c 0
 448 448 512 384 512 320 c 0
 512 224 512 192 320 192 c 1
 320 96 320 64 512 64 c 1
 512 0 480 0 416 0 c 0
 288 0 320 32 288 64 c 1
 288 64 256 0 160 0 c 0
320 320 m 1
 320 288 320 256 352 256 c 1
 384 256 384 288 384 320 c 1
 384 352 384 384 352 384 c 0
 320 384 320 352 320 320 c 1
EndSplineSet
Validated: 1
EndChar

StartChar: zcaron
Encoding: 386 382 354
Width: 512
VWidth: 0
Flags: W
HStem: 0 128<352 448> 0 64<96 288> 320 128<0 96> 384 64<160 288>
DStem2: 0 96 96 64 0.707107 0.707107<45.2548 407.294>
LayerCount: 2
Fore
SplineSet
192 512 m 1x00
 64 704 l 1
 160 704 l 25
 224 640 l 25
 288 704 l 25
 384 704 l 1
 256 512 l 1
 192 512 l 1x00
96 320 m 1x20
 0 320 l 1
 0 448 l 25x20
 448 448 l 17
 448 416 l 1
 96 64 l 1
 288 64 l 1x50
 352 128 l 1
 448 128 l 1
 448 0 l 25x80
 0 0 l 1
 0 96 l 1
 288 384 l 1
 160 384 l 1x50
 96 320 l 1x20
EndSplineSet
Validated: 1
EndChar

StartChar: Ydieresis
Encoding: 387 376 355
Width: 512
VWidth: 0
Flags: W
HStem: 0 21G<128 384> 640 64<65.4375 190.562 321.438 446.562>
VStem: 64 128<384 576 643.296 700.704> 192 128<64 192> 320 128<384 576 643.296 700.704>
LayerCount: 2
Fore
SplineSet
384 640 m 0xc8
 352 640 320 640 320 672 c 0
 320 704 352 704 384 704 c 0
 416 704 448 704 448 672 c 0
 448 640 416 640 384 640 c 0xc8
128 640 m 0
 96 640 64 640 64 672 c 0
 64 704 96 704 128 704 c 0
 160 704 192 704 192 672 c 0xe0
 192 640 160 640 128 640 c 0
64 576 m 1
 192 576 l 1
 192 384 l 1
 256 256 l 1
 320 384 l 1
 320 576 l 1
 448 576 l 1
 448 384 l 1xe8
 320 192 l 1
 320 64 l 1
 384 32 l 1
 384 0 l 1
 128 0 l 1
 128 32 l 1
 192 64 l 1
 192 192 l 1xd0
 64 384 l 1
 64 576 l 1
EndSplineSet
Validated: 1
EndChar
